SplineFontDB: 3.2
FontName: Pointless-Italic
FullName: Pointless Italic
FamilyName: Pointless
Weight: Italic
Copyright: Based on Pointfree by wrp, whoever he/she/they is/are, I thank you.\nTadhg O'Brien 2020 released under the terms of the Unlicense.
Version: 1.0
ItalicAngle: 0
UnderlinePosition: -143
UnderlineWidth: 20
Ascent: 656
Descent: 164
InvalidEm: 0
sfntRevision: 0x00010000
LayerCount: 2
Layer: 0 1 "Back" 1
Layer: 1 1 "Fore" 0
XUID: [1021 796 -163880829 2966828]
StyleMap: 0x0040
FSType: 0
OS2Version: 3
OS2_WeightWidthSlopeOnly: 0
OS2_UseTypoMetrics: 0
CreationTime: 1316413706
ModificationTime: 1606910241
PfmFamily: 17
TTFWeight: 400
TTFWidth: 5
LineGap: 0
VLineGap: 0
Panose: 2 0 5 3 0 0 0 0 0 0
OS2TypoAscent: 891
OS2TypoAOffset: 0
OS2TypoDescent: -256
OS2TypoDOffset: 0
OS2TypoLinegap: 0
OS2WinAscent: 891
OS2WinAOffset: 0
OS2WinDescent: 256
OS2WinDOffset: 0
HheadAscent: 891
HheadAOffset: 0
HheadDescent: -256
HheadDOffset: 0
OS2SubXSize: 585
OS2SubYSize: 543
OS2SubXOff: 0
OS2SubYOff: 120
OS2SupXSize: 585
OS2SupYSize: 543
OS2SupXOff: 0
OS2SupYOff: 379
OS2StrikeYSize: 42
OS2StrikeYPos: 209
OS2CapHeight: 613
OS2XHeight: 454
OS2Vendor: '    '
OS2CodePages: 00000001.00000000
OS2UnicodeRanges: 00000001.00000000.00000000.00000000
MarkAttachClasses: 1
DEI: 91125
ShortTable: maxp 16
  1
  0
  98
  112
  5
  0
  0
  0
  0
  0
  0
  0
  0
  0
  0
  0
EndShort
LangName: 1033 "" "" "" "" "" "1.0"
Encoding: UnicodeBmp
UnicodeInterp: none
NameList: AGL For New Fonts
DisplaySize: -48
AntiAlias: 1
FitToEm: 0
WinInfo: 22 22 6
BeginPrivate: 0
EndPrivate
TeXData: 1 0 0 639376 319687 213126 549863 1048576 213126 783286 444596 497025 792723 393216 433062 380633 303038 157286 324010 404750 52429 2506097 1059062 262144
BeginChars: 65539 94

StartChar: exclam
Encoding: 33 33 0
Width: 500
Flags: W
LayerCount: 2
Fore
SplineSet
314 580 m 1,0,1
 322 600 322 600 341 610 c 0,2,3
 360 619 360 619 374 619 c 0,4,5
 385 619 385 619 394 612 c 0,6,7
 411 601 411 601 410 583 c 2,8,-1
 330 238 l 2,9,10
 323 216 323 216 305 204.5 c 128,-1,11
 287 193 287 193 271.5 192.5 c 128,-1,12
 256 192 256 192 247 200 c 0,13,14
 232 214 232 214 235 235 c 2,15,-1
 314 580 l 1,0,1
258 125 m 256,16,17
 280 125 280 125 294.5 106 c 128,-1,18
 309 87 309 87 303 60 c 256,19,20
 297 33 297 33 273.5 14.5 c 128,-1,21
 250 -4 250 -4 228 -4 c 256,22,23
 206 -4 206 -4 191.5 14.5 c 128,-1,24
 177 33 177 33 183 60 c 256,25,26
 189 87 189 87 212.5 106 c 128,-1,27
 236 125 236 125 258 125 c 256,16,17
EndSplineSet
EndChar

StartChar: quotedbl
Encoding: 34 34 1
Width: 500
Flags: W
LayerCount: 2
Fore
SplineSet
408 575 m 1,0,1
 416 595 416 595 434 605 c 128,-1,2
 452 615 452 615 465 615 c 0,3,4
 479 615 479 615 490 607 c 0,5,6
 504 597 504 597 504 578 c 1,7,-1
 470 435 l 2,8,9
 463 413 463 413 444.5 401 c 128,-1,10
 426 389 426 389 412 389 c 0,11,12
 396 390 396 390 388 400 c 0,13,14
 372 414 372 414 375 432 c 2,15,-1
 408 575 l 1,0,1
221 576 m 1,16,17
 229 596 229 596 247 606 c 128,-1,18
 265 616 265 616 278 616 c 0,19,20
 295 617 295 617 302 609 c 0,21,22
 316 595 316 595 317 579 c 1,23,-1
 284 436 l 2,24,25
 277 414 277 414 258.5 402 c 128,-1,26
 240 390 240 390 226 390 c 0,27,28
 208 393 208 393 201 402 c 0,29,30
 186 416 186 416 188 433 c 2,31,-1
 221 576 l 1,16,17
EndSplineSet
EndChar

StartChar: numbersign
Encoding: 35 35 2
Width: 500
Flags: W
LayerCount: 2
Fore
SplineSet
436 574 m 0,0,1
 446 596 446 596 460.5 605.5 c 128,-1,2
 475 615 475 615 487.5 613 c 128,-1,3
 500 611 500 611 507.5 598.5 c 128,-1,4
 515 586 515 586 509 564 c 0,5,6
 497 531 497 531 485.5 498.5 c 128,-1,7
 474 466 474 466 462 434 c 1,8,-1
 508 434 l 1,9,10
 524 428 524 428 529.5 416 c 128,-1,11
 535 404 535 404 532 391.5 c 128,-1,12
 529 379 529 379 517 367.5 c 128,-1,13
 505 356 505 356 486 352 c 1,14,-1
 433 352 l 1,15,16
 421 320 421 320 410.5 289 c 128,-1,17
 400 258 400 258 389 227 c 1,18,-1
 435 227 l 1,19,20
 451 221 451 221 457 209 c 128,-1,21
 463 197 463 197 459.5 184.5 c 128,-1,22
 456 172 456 172 444 160.5 c 128,-1,23
 432 149 432 149 413 145 c 1,24,-1
 359 145 l 1,25,26
 346 107 346 107 332.5 69.5 c 128,-1,27
 319 32 319 32 306 -6 c 1,28,29
 295 -24 295 -24 281 -32 c 128,-1,30
 267 -40 267 -40 256 -38.5 c 128,-1,31
 245 -37 245 -37 237.5 -26.5 c 128,-1,32
 230 -16 230 -16 233 4 c 1,33,34
 246 39 246 39 258 74.5 c 128,-1,35
 270 110 270 110 283 145 c 1,36,-1
 204 145 l 1,37,38
 191 107 191 107 177 69.5 c 128,-1,39
 163 32 163 32 150 -6 c 1,40,41
 139 -24 139 -24 125 -32 c 128,-1,42
 111 -40 111 -40 100 -38.5 c 128,-1,43
 89 -37 89 -37 81.5 -26.5 c 128,-1,44
 74 -16 74 -16 77 4 c 1,45,46
 90 39 90 39 102 74.5 c 128,-1,47
 114 110 114 110 127 145 c 1,48,-1
 95 145 l 2,49,50
 75 148 75 148 68.5 160.5 c 128,-1,51
 62 173 62 173 65.5 187.5 c 128,-1,52
 69 202 69 202 82.5 214 c 128,-1,53
 96 226 96 226 117 227 c 2,54,-1
 156 227 l 1,55,56
 168 258 168 258 178.5 289 c 128,-1,57
 189 320 189 320 201 352 c 1,58,-1
 172 352 l 2,59,60
 152 355 152 355 145 367.5 c 128,-1,61
 138 380 138 380 142 394.5 c 128,-1,62
 146 409 146 409 159.5 421 c 128,-1,63
 173 433 173 433 194 434 c 2,64,-1
 230 434 l 1,65,66
 243 469 243 469 255 503.5 c 128,-1,67
 267 538 267 538 280 573 c 0,68,69
 290 595 290 595 304.5 604.5 c 128,-1,70
 319 614 319 614 331.5 612 c 128,-1,71
 344 610 344 610 351.5 597.5 c 128,-1,72
 359 585 359 585 353 563 c 2,73,-1
 306 434 l 1,74,-1
 385 434 l 1,75,76
 398 469 398 469 410.5 504 c 128,-1,77
 423 539 423 539 436 574 c 0,0,1
312 227 m 1,78,79
 324 258 324 258 334.5 289 c 128,-1,80
 345 320 345 320 356 352 c 1,81,-1
 277 352 l 1,82,83
 266 320 266 320 255 289 c 128,-1,84
 244 258 244 258 233 227 c 1,85,-1
 312 227 l 1,78,79
EndSplineSet
EndChar

StartChar: dollar
Encoding: 36 36 3
Width: 500
Flags: W
LayerCount: 2
Fore
SplineSet
69 105 m 1,0,1
 66 120 66 120 66 128 c 128,-1,2
 66 136 66 136 72 149 c 128,-1,3
 78 162 78 162 86 167.5 c 128,-1,4
 94 173 94 173 107 172 c 0,5,6
 112 170 112 170 119.5 163 c 128,-1,7
 127 156 127 156 132.5 148 c 128,-1,8
 138 140 138 140 155 124 c 128,-1,9
 172 108 172 108 183 103 c 2,10,-1
 206 92 l 1,11,-1
 251 287 l 1,12,13
 235 296 235 296 212.5 309 c 128,-1,14
 190 322 190 322 171 341.5 c 128,-1,15
 152 361 152 361 141.5 387.5 c 128,-1,16
 131 414 131 414 139 448 c 0,17,18
 145 475 145 475 161 500.5 c 128,-1,19
 177 526 177 526 201 547 c 128,-1,20
 225 568 225 568 256 582 c 128,-1,21
 287 596 287 596 324 601 c 1,22,-1
 332 635 l 2,23,24
 340 669 340 669 352 694.5 c 128,-1,25
 364 720 364 720 391 720 c 0,26,27
 416 720 416 720 417 696.5 c 128,-1,28
 418 673 418 673 410 641 c 0,29,30
 407 630 407 630 404.5 620 c 128,-1,31
 402 610 402 610 400 599 c 1,32,33
 412 597 412 597 432 590 c 128,-1,34
 452 583 452 583 471.5 572.5 c 128,-1,35
 491 562 491 562 518 533 c 128,-1,36
 545 504 545 504 541 486 c 0,37,38
 540 473 540 473 524 462.5 c 128,-1,39
 508 452 508 452 492 454 c 1,40,41
 477 462 477 462 461.5 478 c 128,-1,42
 446 494 446 494 426 506.5 c 128,-1,43
 406 519 406 519 381 525 c 1,44,45
 370 481 370 481 359.5 431 c 128,-1,46
 349 381 349 381 337 336 c 1,47,48
 364 324 364 324 391.5 312.5 c 128,-1,49
 419 301 419 301 439 282 c 128,-1,50
 459 263 459 263 468.5 237 c 128,-1,51
 478 211 478 211 469 175 c 0,52,53
 459 133 459 133 437.5 104 c 128,-1,54
 416 75 416 75 387 55.5 c 128,-1,55
 358 36 358 36 325.5 25 c 128,-1,56
 293 14 293 14 261 8 c 1,57,58
 257 -9 257 -9 253 -26.5 c 128,-1,59
 249 -44 249 -44 246 -62 c 1,60,61
 237 -81 237 -81 224.5 -90 c 128,-1,62
 212 -99 212 -99 200 -99 c 0,63,64
 183 -99 183 -99 177.5 -88.5 c 128,-1,65
 172 -78 172 -78 173 -62 c 128,-1,66
 174 -46 174 -46 178.5 -26 c 128,-1,67
 183 -6 183 -6 186 12 c 1,68,-1
 185 13 l 1,69,70
 158 21 158 21 139.5 30 c 128,-1,71
 121 39 121 39 108 50.5 c 128,-1,72
 95 62 95 62 86 75.5 c 128,-1,73
 77 89 77 89 69 105 c 1,0,1
320 262 m 1,74,75
 311 221 311 221 299.5 172.5 c 128,-1,76
 288 124 288 124 279 84 c 1,77,78
 295 83 295 83 316 91.5 c 128,-1,79
 337 100 337 100 362 116 c 0,80,81
 393 141 393 141 399 162.5 c 128,-1,82
 405 184 405 184 398 204 c 0,83,84
 387 225 387 225 370 237 c 128,-1,85
 353 249 353 249 320 262 c 1,74,75
309 526 m 1,86,87
 285 522 285 522 275.5 519 c 128,-1,88
 266 516 266 516 250 507 c 128,-1,89
 234 498 234 498 223.5 489 c 128,-1,90
 213 480 213 480 207 459 c 0,91,92
 202 425 202 425 222.5 403.5 c 128,-1,93
 243 382 243 382 270 362 c 1,94,-1
 309 526 l 1,86,87
EndSplineSet
EndChar

StartChar: percent
Encoding: 37 37 4
Width: 500
Flags: W
LayerCount: 2
Fore
SplineSet
503 590 m 1,0,1
 521 603 521 603 537 603 c 0,2,3
 552 603 552 603 559.5 592 c 128,-1,4
 567 581 567 581 563 564 c 0,5,6
 561 555 561 555 553 542 c 0,7,8
 478 457 478 457 452 426 c 128,-1,9
 426 395 426 395 357.5 316.5 c 128,-1,10
 289 238 289 238 219 158.5 c 128,-1,11
 149 79 149 79 107 32 c 0,12,13
 97 21 97 21 86.5 17 c 128,-1,14
 76 13 76 13 68 13 c 0,15,16
 54 13 54 13 46 23.5 c 128,-1,17
 38 34 38 34 42 51 c 0,18,19
 45 65 45 65 57 80 c 0,20,21
 132 165 132 165 184.5 225.5 c 128,-1,22
 237 286 237 286 306 364 c 128,-1,23
 375 442 375 442 445 521.5 c 128,-1,24
 515 601 515 601 503 590 c 1,0,1
363 171 m 0,25,26
 345 171 345 171 327 156 c 128,-1,27
 309 141 309 141 304 120 c 256,28,29
 299 99 299 99 310.5 84 c 128,-1,30
 322 69 322 69 340 69 c 0,31,32
 357 69 357 69 375 84 c 128,-1,33
 393 99 393 99 398 120 c 256,34,35
 403 141 403 141 391.5 156 c 128,-1,36
 380 171 380 171 363 171 c 0,25,26
381 247 m 256,37,38
 425 247 425 247 452.5 210.5 c 128,-1,39
 480 174 480 174 469 123 c 0,40,41
 457 71 457 71 412 34 c 128,-1,42
 367 -3 367 -3 323 -3 c 256,43,44
 279 -3 279 -3 250.5 34 c 128,-1,45
 222 71 222 71 235 125 c 0,46,47
 247 176 247 176 292 211.5 c 128,-1,48
 337 247 337 247 381 247 c 256,37,38
273 544 m 0,49,50
 255 544 255 544 236.5 529 c 128,-1,51
 218 514 218 514 214 493 c 256,52,53
 209 472 209 472 220.5 457 c 128,-1,54
 232 442 232 442 249 442 c 0,55,56
 266 442 266 442 284.5 457 c 128,-1,57
 303 472 303 472 308 493 c 256,58,59
 313 514 313 514 301.5 529 c 128,-1,60
 290 544 290 544 273 544 c 0,49,50
290 620 m 256,61,62
 334 620 334 620 362 583.5 c 128,-1,63
 390 547 390 547 378 496 c 0,64,65
 366 444 366 444 321 407 c 128,-1,66
 276 370 276 370 233 370 c 256,67,68
 189 370 189 370 160.5 407 c 128,-1,69
 132 444 132 444 144 496 c 0,70,71
 156 547 156 547 201 583.5 c 128,-1,72
 246 620 246 620 290 620 c 256,61,62
EndSplineSet
EndChar

StartChar: ampersand
Encoding: 38 38 5
Width: 500
Flags: W
LayerCount: 2
Fore
SplineSet
421 57 m 0,0,1
 438 41 438 41 430 23 c 0,2,3
 427 8 427 8 413.5 -3.5 c 128,-1,4
 400 -15 400 -15 380 -15 c 0,5,6
 374 -15 374 -15 372 -14 c 0,7,8
 353 1 353 1 341 25.5 c 128,-1,9
 329 50 329 50 317 72 c 1,10,11
 275 22 275 22 237.5 2 c 128,-1,12
 200 -18 200 -18 177 -17 c 0,13,14
 142 -17 142 -17 124 -3.5 c 128,-1,15
 106 10 106 10 88.5 36 c 128,-1,16
 71 62 71 62 63.5 96 c 128,-1,17
 56 130 56 130 66 171 c 0,18,19
 73 203 73 203 87.5 228 c 128,-1,20
 102 253 102 253 120.5 273 c 128,-1,21
 139 293 139 293 154.5 306 c 128,-1,22
 170 319 170 319 190 331 c 1,23,24
 178 361 178 361 178.5 403.5 c 128,-1,25
 179 446 179 446 188 486 c 0,26,27
 195 516 195 516 212.5 539 c 128,-1,28
 230 562 230 562 252.5 578.5 c 128,-1,29
 275 595 275 595 292.5 602.5 c 128,-1,30
 310 610 310 610 323 610 c 0,31,32
 342 605 342 605 357.5 598 c 128,-1,33
 373 591 373 591 386 575 c 128,-1,34
 399 559 399 559 406 533 c 128,-1,35
 413 507 413 507 402 477 c 1,36,37
 396 452 396 452 383 427 c 128,-1,38
 370 402 370 402 352 380.5 c 128,-1,39
 334 359 334 359 313 341.5 c 128,-1,40
 292 324 292 324 268 313 c 1,41,-1
 308 244 l 2,42,43
 319 225 319 225 321 214 c 128,-1,44
 323 203 323 203 336 187 c 1,45,46
 370 228 370 228 398.5 259.5 c 128,-1,47
 427 291 427 291 442 319 c 0,48,49
 453 333 453 333 464 339 c 128,-1,50
 475 345 475 345 485 345 c 0,51,52
 499 345 499 345 507.5 333.5 c 128,-1,53
 516 322 516 322 510 307 c 0,54,55
 505 293 505 293 477.5 262 c 128,-1,56
 450 231 450 231 449 229.5 c 128,-1,57
 448 228 448 228 410 184.5 c 128,-1,58
 372 141 372 141 369 129 c 1,59,60
 381 101 381 101 391 91.5 c 128,-1,61
 401 82 401 82 421 57 c 0,0,1
222 74 m 0,62,63
 238 81 238 81 252 95 c 128,-1,64
 266 109 266 109 284 123 c 1,65,66
 261 161 261 161 252.5 186.5 c 128,-1,67
 244 212 244 212 214 265 c 1,68,69
 198 256 198 256 193 250 c 128,-1,70
 188 244 188 244 175 232.5 c 128,-1,71
 162 221 162 221 152 205.5 c 128,-1,72
 142 190 142 190 137 169 c 0,73,74
 132 146 132 146 136.5 127 c 128,-1,75
 141 108 141 108 148.5 92 c 128,-1,76
 156 76 156 76 173.5 68.5 c 128,-1,77
 191 61 191 61 196 65 c 1,78,79
 207 65 207 65 222 74 c 0,62,63
244 461 m 0,80,81
 244 429 244 429 245 409 c 128,-1,82
 246 389 246 389 262 373 c 1,83,84
 291 389 291 389 307.5 413.5 c 128,-1,85
 324 438 324 438 331 478 c 0,86,87
 337 511 337 511 325 524 c 128,-1,88
 313 537 313 537 304 537 c 0,89,90
 293 537 293 537 278 526.5 c 128,-1,91
 263 516 263 516 253.5 498 c 128,-1,92
 244 480 244 480 244 461 c 0,80,81
EndSplineSet
EndChar

StartChar: quotesingle
Encoding: 39 39 6
Width: 500
Flags: W
LayerCount: 2
Fore
SplineSet
313 573 m 1,0,1
 322 595 322 595 335 603 c 0,2,3
 353 613 353 613 370 613 c 0,4,5
 384 612 384 612 396 604 c 0,6,7
 411 595 411 595 409 576 c 2,8,-1
 374 424 l 2,9,10
 371 402 371 402 353 390 c 256,11,12
 335 378 335 378 316 378 c 0,13,14
 299 379 299 379 289 389 c 0,15,16
 275 399 275 399 278 421 c 2,17,-1
 313 573 l 1,0,1
EndSplineSet
EndChar

StartChar: parenleft
Encoding: 40 40 7
Width: 500
Flags: W
LayerCount: 2
Fore
SplineSet
322 -22 m 0,0,1
 329 -38 329 -38 325.5 -53 c 128,-1,2
 322 -68 322 -68 312 -77.5 c 128,-1,3
 302 -87 302 -87 287.5 -90 c 128,-1,4
 273 -93 273 -93 258 -84 c 1,5,6
 249 -73 249 -73 239.5 -63 c 128,-1,7
 230 -53 230 -53 225 -40 c 0,8,9
 196 7 196 7 186.5 94 c 128,-1,10
 177 181 177 181 190.5 239 c 128,-1,11
 204 297 204 297 213 317 c 128,-1,12
 222 337 222 337 254 402 c 0,13,14
 270 431 270 431 287 456.5 c 128,-1,15
 304 482 304 482 322.5 506 c 128,-1,16
 341 530 341 530 361 553.5 c 128,-1,17
 381 577 381 577 403 602 c 1,18,19
 420 614 420 614 433.5 615 c 128,-1,20
 447 616 447 616 455 608.5 c 128,-1,21
 463 601 463 601 463.5 586.5 c 128,-1,22
 464 572 464 572 453 554 c 0,23,24
 432 529 432 529 414 508.5 c 128,-1,25
 396 488 396 488 380 467.5 c 128,-1,26
 364 447 364 447 349 425 c 128,-1,27
 334 403 334 403 319 375 c 0,28,29
 278 289 278 289 268.5 256 c 128,-1,30
 259 223 259 223 257.5 197 c 128,-1,31
 256 171 256 171 261 118 c 128,-1,32
 266 65 266 65 296 12 c 0,33,34
 301 3 301 3 308 -5.5 c 128,-1,35
 315 -14 315 -14 322 -22 c 0,0,1
EndSplineSet
EndChar

StartChar: parenright
Encoding: 41 41 8
Width: 500
Flags: W
LayerCount: 2
Fore
SplineSet
133 -23 m 0,0,1
 143 -15 143 -15 154.5 -6.5 c 128,-1,2
 166 2 166 2 175 11 c 0,3,4
 215 60 215 60 257.5 124 c 128,-1,5
 300 188 300 188 316 263.5 c 128,-1,6
 332 339 332 339 323 375 c 1,7,8
 321 402 321 402 315 423 c 128,-1,9
 309 444 309 444 302.5 464.5 c 128,-1,10
 296 485 296 485 288 505.5 c 128,-1,11
 280 526 280 526 269 551 c 1,12,13
 267 569 267 569 274 583.5 c 128,-1,14
 281 598 281 598 292.5 605.5 c 128,-1,15
 304 613 304 613 317.5 612 c 128,-1,16
 331 611 331 611 342 599 c 1,17,18
 352 574 352 574 361.5 550.5 c 128,-1,19
 371 527 371 527 378.5 503 c 128,-1,20
 386 479 386 479 391 453.5 c 128,-1,21
 396 428 396 428 399 399 c 0,22,23
 404 306 404 306 392.5 262.5 c 128,-1,24
 381 219 381 219 370.5 192 c 128,-1,25
 360 165 360 165 324 100.5 c 128,-1,26
 288 36 288 36 222 -41 c 0,27,28
 211 -54 211 -54 196.5 -64 c 128,-1,29
 182 -74 182 -74 168 -85 c 1,30,31
 149 -94 149 -94 136.5 -91 c 128,-1,32
 124 -88 124 -88 118 -78.5 c 128,-1,33
 112 -69 112 -69 115.5 -54 c 128,-1,34
 119 -39 119 -39 133 -23 c 0,0,1
EndSplineSet
EndChar

StartChar: asterisk
Encoding: 42 42 9
Width: 500
Flags: W
LayerCount: 2
Fore
SplineSet
158 355 m 0,0,1
 147 372 147 372 151 390 c 0,2,3
 155 406 155 406 167 417 c 128,-1,4
 179 428 179 428 195 428 c 0,5,6
 206 427 206 427 216.5 419 c 128,-1,7
 227 411 227 411 237 400.5 c 128,-1,8
 247 390 247 390 256 378 c 128,-1,9
 265 366 265 366 272 356 c 1,10,11
 272 358 272 358 272.5 360 c 128,-1,12
 273 362 273 362 273 364 c 0,13,14
 282 385 282 385 291 410.5 c 128,-1,15
 300 436 300 436 307 460 c 128,-1,16
 314 484 314 484 327.5 499 c 128,-1,17
 341 514 341 514 357 514 c 0,18,19
 371 514 371 514 379.5 502.5 c 128,-1,20
 388 491 388 491 383 469 c 0,21,22
 375 434 375 434 363.5 401.5 c 128,-1,23
 352 369 352 369 348 358 c 128,-1,24
 344 347 344 347 343.5 342 c 128,-1,25
 343 337 343 337 358 349 c 0,26,27
 372 356 372 356 382.5 360.5 c 128,-1,28
 393 365 393 365 407.5 371.5 c 128,-1,29
 422 378 422 378 436.5 383.5 c 128,-1,30
 451 389 451 389 460 389 c 0,31,32
 477 389 477 389 484.5 377 c 128,-1,33
 492 365 492 365 489 350 c 0,34,35
 486 336 486 336 470.5 323.5 c 128,-1,36
 455 311 455 311 435 300 c 128,-1,37
 415 289 415 289 395.5 282 c 128,-1,38
 376 275 376 275 358 267 c 0,39,40
 355 266 355 266 349 266 c 1,41,-1
 371 207 l 2,42,43
 378 193 378 193 374 176 c 256,44,45
 370 159 370 159 357.5 148.5 c 128,-1,46
 345 138 345 138 330 138 c 0,47,48
 323 138 323 138 311.5 147.5 c 128,-1,49
 300 157 300 157 294 172.5 c 128,-1,50
 288 188 288 188 279 205 c 128,-1,51
 270 222 270 222 269 237 c 1,52,53
 266 233 266 233 259 225 c 2,54,-1
 171 159 l 2,55,56
 155 150 155 150 142 150 c 0,57,58
 126 150 126 150 119 161.5 c 128,-1,59
 112 173 112 173 116 188 c 0,60,61
 118 197 118 197 124.5 207 c 128,-1,62
 131 217 131 217 142 225 c 2,63,-1
 224 287 l 1,64,65
 216 289 216 289 207 297 c 128,-1,66
 198 305 198 305 190 315 c 128,-1,67
 182 325 182 325 173.5 336 c 128,-1,68
 165 347 165 347 158 355 c 0,0,1
EndSplineSet
EndChar

StartChar: plus
Encoding: 43 43 10
Width: 500
Flags: W
LayerCount: 2
Fore
SplineSet
134 262 m 1,0,1
 114 265 114 265 107 277 c 128,-1,2
 100 289 100 289 104 303 c 0,3,4
 107 318 107 318 120.5 330.5 c 128,-1,5
 134 343 134 343 156 344 c 2,6,-1
 270 345 l 1,7,-1
 299 473 l 1,8,9
 308 493 308 493 320.5 503 c 128,-1,10
 333 513 333 513 346 513 c 0,11,12
 358 513 358 513 367 504 c 128,-1,13
 376 495 376 495 376 476 c 1,14,-1
 346 345 l 1,15,-1
 472 345 l 1,16,17
 489 340 489 340 494.5 328.5 c 128,-1,18
 500 317 500 317 497 304 c 0,19,20
 494 290 494 290 482 279 c 128,-1,21
 470 268 470 268 451 263 c 1,22,-1
 327 263 l 1,23,-1
 298 137 l 2,24,25
 292 114 292 114 277.5 102.5 c 128,-1,26
 263 91 263 91 249 91 c 0,27,28
 236 91 236 91 227.5 101.5 c 128,-1,29
 219 112 219 112 221 134 c 2,30,-1
 251 263 l 1,31,-1
 134 262 l 1,0,1
EndSplineSet
EndChar

StartChar: comma
Encoding: 44 44 11
Width: 500
Flags: W
LayerCount: 2
Fore
SplineSet
236 88 m 0,0,1
 209 50 209 50 183 11 c 128,-1,2
 157 -28 157 -28 103 -109 c 0,3,4
 101 -113 101 -113 100.5 -116.5 c 128,-1,5
 100 -120 100 -120 99 -123 c 0,6,7
 94 -143 94 -143 105 -153.5 c 128,-1,8
 116 -164 116 -164 129 -166 c 256,9,10
 142 -168 142 -168 157.5 -160 c 128,-1,11
 173 -152 173 -152 179 -142 c 0,12,13
 206 -104 206 -104 246 -45 c 128,-1,14
 286 14 286 14 312 52 c 0,15,16
 320 65 320 65 322 74 c 0,17,18
 326 92 326 92 311 105 c 128,-1,19
 296 118 296 118 278 114 c 0,20,21
 255 112 255 112 236 88 c 0,0,1
EndSplineSet
EndChar

StartChar: hyphen
Encoding: 45 45 12
Width: 500
Flags: W
LayerCount: 2
Fore
SplineSet
136 262 m 4,0,1
 116 265 116 265 109 277 c 132,-1,2
 102 289 102 289 105 303 c 260,3,4
 108 317 108 317 122 330.5 c 132,-1,5
 136 344 136 344 158 344 c 4,6,7
 169 344 169 344 195.5 344 c 132,-1,8
 222 344 222 344 263.5 344.5 c 132,-1,9
 305 345 305 345 340.5 345 c 132,-1,10
 376 345 376 345 470 345 c 5,11,12
 487 340 487 340 492.5 328.5 c 132,-1,13
 498 317 498 317 495 304 c 4,14,15
 492 290 492 290 480 279 c 132,-1,16
 468 268 468 268 449 263 c 5,17,18
 387 263 387 263 283.5 262.5 c 132,-1,19
 180 262 180 262 136 262 c 4,0,1
EndSplineSet
EndChar

StartChar: period
Encoding: 46 46 13
Width: 500
Flags: W
LayerCount: 2
Fore
SplineSet
260 143 m 0,0,1
 286 143 286 143 303.5 120.5 c 128,-1,2
 321 98 321 98 314 68 c 0,3,4
 307 37 307 37 279.5 15 c 128,-1,5
 252 -7 252 -7 226 -7 c 0,6,7
 199 -7 199 -7 182.5 15 c 128,-1,8
 166 37 166 37 173 68 c 0,9,10
 180 98 180 98 206.5 120.5 c 128,-1,11
 233 143 233 143 260 143 c 0,0,1
EndSplineSet
EndChar

StartChar: slash
Encoding: 47 47 14
Width: 500
Flags: W
LayerCount: 2
Fore
SplineSet
492 682 m 1,0,1
 513 708 513 708 534 708 c 0,2,3
 548 708 548 708 556.5 697 c 128,-1,4
 565 686 565 686 561 668 c 0,5,6
 559 659 559 659 552 646 c 0,7,8
 442 471 442 471 331.5 298 c 128,-1,9
 221 125 221 125 110 -50 c 0,10,11
 100 -61 100 -61 89.5 -65.5 c 128,-1,12
 79 -70 79 -70 71 -70 c 0,13,14
 57 -70 57 -70 49.5 -59 c 128,-1,15
 42 -48 42 -48 46 -28 c 0,16,17
 47 -25 47 -25 48 -21.5 c 128,-1,18
 49 -18 49 -18 50 -14 c 0,19,20
 160 161 160 161 270.5 334 c 128,-1,21
 381 507 381 507 492 682 c 1,0,1
EndSplineSet
EndChar

StartChar: zero
Encoding: 48 48 15
Width: 500
Flags: W
LayerCount: 2
Fore
SplineSet
292 247 m 0,0,1
 229 204 229 204 159 155 c 1,2,3
 163 135 163 135 170 107 c 1,4,5
 190 63 190 63 232 56 c 1,6,7
 274 56 274 56 313 102 c 1,8,9
 366 153 366 153 386 197 c 0,10,11
 429 288 429 288 437 345 c 1,12,13
 399 321 399 321 292 247 c 0,0,1
362 527 m 0,14,15
 314 521 314 521 282 491 c 1,16,17
 252 470 252 470 217 400 c 0,18,19
 180 328 180 328 164 234 c 1,20,21
 391 391 391 391 439 423 c 1,22,23
 438 453 438 453 419 493 c 1,24,25
 388 529 388 529 362 527 c 0,14,15
480 231 m 1,26,27
 463 194 463 194 437 151.5 c 128,-1,28
 411 109 411 109 378 72 c 128,-1,29
 345 35 345 35 306.5 8.5 c 128,-1,30
 268 -18 268 -18 249 -23 c 0,31,32
 221 -27 221 -27 196.5 -23 c 128,-1,33
 172 -19 172 -19 156 -10 c 0,34,35
 139 0 139 0 125.5 12.5 c 128,-1,36
 112 25 112 25 104 45 c 0,37,38
 89 77 89 77 84 114 c 0,39,40
 84 114 l 0,41,42
 83 114 l 0,43,44
 63 107 63 107 50.5 112.5 c 128,-1,45
 38 118 38 118 41.5 133.5 c 128,-1,46
 45 149 45 149 63 167 c 0,47,48
 72 176 72 176 82 182 c 0,49,50
 82 186 82 186 82 190 c 0,51,52
 85 230 85 230 95 270.5 c 128,-1,53
 105 311 105 311 120 350 c 0,54,55
 135 392 135 392 160.5 437 c 128,-1,56
 186 482 186 482 220 520 c 128,-1,57
 254 558 254 558 290.5 582.5 c 128,-1,58
 327 607 327 607 373 609 c 0,59,60
 395 610 395 610 409.5 606.5 c 128,-1,61
 424 603 424 603 432 599 c 0,62,63
 449 589 449 589 463 576 c 128,-1,64
 477 563 477 563 488 546 c 0,65,66
 508 514 508 514 513 476 c 0,67,68
 514 469 514 469 515 462 c 1,69,70
 517 463 517 463 519 464 c 0,71,72
 539 471 539 471 551.5 465 c 128,-1,73
 564 459 564 459 560.5 443.5 c 128,-1,74
 557 428 557 428 538 410 c 0,75,76
 527 400 527 400 516 393 c 1,77,78
 513 352 513 352 503 312 c 0,79,80
 494 270 494 270 480 231 c 1,26,27
EndSplineSet
EndChar

StartChar: one
Encoding: 49 49 16
Width: 500
Flags: W
LayerCount: 2
Fore
SplineSet
418 5 m 0,0,1
 398 -10 398 -10 316 -1 c 1,2,3
 271 -1 l 0,4,5
 226 -1 226 -1 152 4 c 0,6,7
 91 5 91 5 44 3 c 0,8,9
 27 4 27 4 32 31 c 0,10,11
 38 59 38 59 60 67 c 0,12,13
 79 76 79 76 131.5 75.5 c 128,-1,14
 184 75 184 75 232 72 c 1,15,16
 266 201 266 201 275.5 259 c 128,-1,17
 285 317 285 317 327 480 c 1,18,19
 232 403 232 403 208 394 c 1,20,21
 189 392 189 392 181 404 c 128,-1,22
 173 416 173 416 176 431 c 0,23,24
 178 440 178 440 184.5 450 c 128,-1,25
 191 460 191 460 301 547 c 1,26,-1
 374 601 l 1,27,28
 387 606 387 606 395 606 c 0,29,30
 424 606 424 606 424 571 c 1,31,32
 375 385 375 385 357.5 284.5 c 128,-1,33
 340 184 340 184 308 73 c 1,34,35
 346 69 346 69 378 72 c 0,36,37
 435 73 435 73 439 61 c 0,38,39
 444 51 444 51 443 39 c 128,-1,40
 442 27 442 27 418 5 c 0,0,1
EndSplineSet
EndChar

StartChar: two
Encoding: 50 50 17
Width: 500
Flags: W
LayerCount: 2
Fore
SplineSet
417 481 m 0,0,1
 414 499 414 499 404 511 c 128,-1,2
 394 523 394 523 381 525 c 0,3,4
 340 525 340 525 301 501.5 c 128,-1,5
 262 478 262 478 227 446 c 0,6,7
 212 436 212 436 197 436 c 0,8,9
 181 436 181 436 174 447.5 c 128,-1,10
 167 459 167 459 171 477 c 0,11,12
 175 493 175 493 187 508 c 0,13,14
 209 528 209 528 234 547.5 c 128,-1,15
 259 567 259 567 285.5 582 c 128,-1,16
 312 597 312 597 339 606 c 128,-1,17
 366 615 366 615 392 615 c 0,18,19
 422 615 422 615 444.5 601.5 c 128,-1,20
 467 588 467 588 480.5 563.5 c 128,-1,21
 494 539 494 539 497.5 505 c 128,-1,22
 501 471 501 471 492 431 c 0,23,24
 489 418 489 418 483 404 c 0,25,26
 462 358 462 358 434 329 c 128,-1,27
 406 300 406 300 376 279.5 c 128,-1,28
 346 259 346 259 318.5 240.5 c 128,-1,29
 291 222 291 222 267.5 200 c 128,-1,30
 244 178 244 178 216 151.5 c 128,-1,31
 188 125 188 125 162 85 c 1,32,-1
 339 85 l 2,33,34
 350 85 350 85 367.5 85.5 c 128,-1,35
 385 86 385 86 390 86 c 0,36,37
 407 86 407 86 411 70.5 c 128,-1,38
 415 55 415 55 411 38 c 1,39,40
 396 11 396 11 392.5 5 c 128,-1,41
 389 -1 389 -1 321 -4 c 2,42,-1
 100 -4 l 1,43,44
 65 0 65 0 71 43 c 1,45,46
 87 79 87 79 99 107 c 128,-1,47
 111 135 111 135 134.5 165 c 128,-1,48
 158 195 158 195 179.5 215 c 128,-1,49
 201 235 201 235 227 257 c 0,50,51
 250 278 250 278 276 299 c 128,-1,52
 302 320 302 320 331.5 339.5 c 128,-1,53
 361 359 361 359 385 385 c 128,-1,54
 409 411 409 411 417 448 c 0,55,56
 419 458 419 458 418.5 469 c 128,-1,57
 418 480 418 480 417 481 c 0,0,1
EndSplineSet
EndChar

StartChar: three
Encoding: 51 51 18
Width: 500
Flags: W
LayerCount: 2
Fore
SplineSet
74 71 m 0,0,1
 67 86 67 86 71 102 c 0,2,3
 75 119 75 119 87.5 129.5 c 128,-1,4
 100 140 100 140 116 140 c 0,5,6
 122 139 122 139 138 129 c 128,-1,7
 154 119 154 119 161 109 c 128,-1,8
 168 99 168 99 184.5 87 c 128,-1,9
 201 75 201 75 233 72 c 0,10,11
 258 72 258 72 281 83.5 c 128,-1,12
 304 95 304 95 321.5 114 c 128,-1,13
 339 133 339 133 351.5 157 c 128,-1,14
 364 181 364 181 370 206 c 0,15,16
 376 232 376 232 363.5 249 c 128,-1,17
 351 266 351 266 330 276 c 128,-1,18
 309 286 309 286 284.5 290 c 128,-1,19
 260 294 260 294 242 294 c 1,20,21
 225 299 225 299 219.5 310.5 c 128,-1,22
 214 322 214 322 217 335 c 256,23,24
 220 348 220 348 232 359.5 c 128,-1,25
 244 371 244 371 263 376 c 0,26,27
 280 378 280 378 300 382.5 c 128,-1,28
 320 387 320 387 339.5 394.5 c 128,-1,29
 359 402 359 402 376 413.5 c 128,-1,30
 393 425 393 425 404 442 c 1,31,-1
 411 467 l 1,32,-1
 412 488 l 2,33,34
 413 499 413 499 407 506 c 128,-1,35
 401 513 401 513 391.5 517 c 128,-1,36
 382 521 382 521 370 522.5 c 128,-1,37
 358 524 358 524 347 524 c 0,38,39
 326 524 326 524 299.5 519.5 c 128,-1,40
 273 515 273 515 245 500 c 0,41,42
 233 492 233 492 223 486.5 c 128,-1,43
 213 481 213 481 203 481 c 0,44,45
 188 481 188 481 180.5 493.5 c 128,-1,46
 173 506 173 506 178 530 c 0,47,48
 185 547 185 547 200.5 559 c 128,-1,49
 216 571 216 571 234.5 579.5 c 128,-1,50
 253 588 253 588 281.5 596 c 128,-1,51
 310 604 310 604 327.5 604.5 c 128,-1,52
 345 605 345 605 354 605 c 128,-1,53
 363 605 363 605 359 605 c 1,54,55
 392 605 392 605 419 596.5 c 128,-1,56
 446 588 446 588 464 570.5 c 128,-1,57
 482 553 482 553 488.5 526 c 128,-1,58
 495 499 495 499 486 462 c 0,59,60
 484 455 484 455 480 441 c 128,-1,61
 476 427 476 427 466.5 410.5 c 128,-1,62
 457 394 457 394 439.5 375.5 c 128,-1,63
 422 357 422 357 392 339 c 1,64,65
 406 329 406 329 419.5 314.5 c 128,-1,66
 433 300 433 300 441 281.5 c 128,-1,67
 449 263 449 263 451.5 241 c 128,-1,68
 454 219 454 219 448 194 c 0,69,70
 439 156 439 156 414.5 119 c 128,-1,71
 390 82 390 82 358 53.5 c 128,-1,72
 326 25 326 25 289 7.5 c 128,-1,73
 252 -10 252 -10 220 -10 c 0,74,75
 174 -12 174 -12 134.5 14 c 128,-1,76
 95 40 95 40 74 71 c 0,0,1
EndSplineSet
EndChar

StartChar: four
Encoding: 52 52 19
Width: 500
InSpiro: 1
Flags: W
LayerCount: 2
Fore
SplineSet
320 18 m 1,0,-1
 312 -2 l 1,1,-1
 300 -17 l 1,2,-1
 285 -26 l 1,3,-1
 270 -29 l 1,4,-1
 259 -26 l 1,5,-1
 249 -18 l 1,6,-1
 244 -5 l 1,7,-1
 243 15 l 1,8,-1
 282 181 l 1,9,-1
 236 182 l 1,10,-1
 204 184 l 1,11,-1
 174 186 l 1,12,-1
 135 191 l 1,13,-1
 111 216 l 1,14,-1
 112 246 l 1,15,-1
 122 319 l 1,16,-1
 140 419 l 1,17,-1
 164 495 l 1,18,-1
 204 577 l 1,19,-1
 217 584 l 1,20,-1
 228 586 l 1,21,-1
 238 587 l 1,22,-1
 251 585 l 1,23,-1
 260 578 l 1,24,-1
 265 566 l 1,25,-1
 251 529 l 1,26,-1
 236 477 l 1,27,-1
 225 429 l 1,28,-1
 212 375 l 1,29,-1
 200 303 l 1,30,-1
 194 268 l 1,31,-1
 220 264 l 1,32,-1
 251 264 l 1,33,-1
 281 264 l 1,34,-1
 301 264 l 1,35,-1
 319 343 l 1,36,-1
 329 360 l 1,37,-1
 340 372 l 1,38,-1
 353 380 l 1,39,-1
 365 382 l 1,40,-1
 377 380 l 1,41,-1
 387 374 l 1,42,-1
 394 362 l 1,43,-1
 396 346 l 1,44,-1
 377 263 l 1,45,-1
 453 263 l 1,46,-1
 467 255 l 1,47,-1
 476 245 l 1,48,-1
 480 234 l 1,49,-1
 479 221 l 1,50,-1
 473 208 l 1,51,-1
 463 196 l 1,52,-1
 449 186 l 1,53,-1
 431 179 l 1,54,-1
 406 179 l 1,55,-1
 387 179 l 1,56,-1
 358 180 l 1,57,-1
 320 18 l 1,0,-1
  Spiro
    320 18 v
    312 -2 o
    300 -17 o
    285 -26 o
    270 -29 o
    259 -26 o
    249 -18 o
    244 -5 o
    243 15 [
    282 181 v
    236 182 o
    204 184 o
    174 186 o
    135 191 v
    111 216 o
    112 246 o
    122 319 o
    122 319 v
    140 419 o
    164 495 o
    204 577 o
    217 584 o
    228 586 o
    238 587 o
    251 585 o
    260 578 o
    265 566 o
    251 529 o
    236 477 o
    225 429 o
    212 375 o
    200 303 o
    194 268 v
    220 264 o
    251 264 o
    281 264 o
    301 264 v
    319 343 v
    329 360 o
    340 372 o
    353 380 o
    365 382 o
    377 380 o
    387 374 o
    394 362 o
    396 346 v
    377 263 v
    453 263 v
    467 255 o
    476 245 o
    480 234 o
    479 221 o
    473 208 o
    463 196 o
    449 186 o
    431 179 o
    406 179 o
    387 179 o
    358 180 v
    320 18 v
    0 0 z
  EndSpiro
EndSplineSet
EndChar

StartChar: five
Encoding: 53 53 20
Width: 500
Flags: W
LayerCount: 2
Fore
SplineSet
77 39 m 1,0,1
 66 56 66 56 70 76 c 0,2,3
 74 93 74 93 87 104.5 c 128,-1,4
 100 116 100 116 118 116 c 0,5,6
 127 116 127 116 135 113 c 0,7,8
 155 96 155 96 178.5 86 c 128,-1,9
 202 76 202 76 231 76 c 0,10,11
 255 76 255 76 278.5 85 c 128,-1,12
 302 94 302 94 323 110.5 c 128,-1,13
 344 127 344 127 359 150 c 128,-1,14
 374 173 374 173 380 201 c 256,15,16
 386 229 386 229 378.5 248.5 c 128,-1,17
 371 268 371 268 356 280 c 128,-1,18
 341 292 341 292 320.5 297.5 c 128,-1,19
 300 303 300 303 282 303 c 0,20,21
 266 303 266 303 250 300.5 c 128,-1,22
 234 298 234 298 217 293 c 0,23,24
 210 289 210 289 204.5 284.5 c 128,-1,25
 199 280 199 280 194 276 c 128,-1,26
 189 272 189 272 183.5 269.5 c 128,-1,27
 178 267 178 267 170 267 c 0,28,29
 156 267 156 267 147 278 c 128,-1,30
 138 289 138 289 141 313 c 0,31,32
 151 364 151 364 162 415 c 128,-1,33
 173 466 173 466 183 519 c 1,34,35
 172 533 172 533 177 552 c 0,36,37
 181 568 181 568 195 582 c 128,-1,38
 209 596 209 596 230 596 c 0,39,40
 237 596 237 596 257 596.5 c 128,-1,41
 277 597 277 597 303.5 597.5 c 128,-1,42
 330 598 330 598 359.5 598.5 c 128,-1,43
 389 599 389 599 415.5 599.5 c 128,-1,44
 442 600 442 600 462 600.5 c 128,-1,45
 482 601 482 601 488 601 c 0,46,47
 505 596 505 596 511 584 c 128,-1,48
 517 572 517 572 514 558 c 0,49,50
 511 543 511 543 498 531 c 128,-1,51
 485 519 485 519 465 514 c 1,52,53
 412 512 412 512 361.5 512 c 128,-1,54
 311 512 311 512 260 510 c 1,55,56
 254 478 254 478 247 445.5 c 128,-1,57
 240 413 240 413 234 380 c 1,58,59
 252 385 252 385 270 387.5 c 128,-1,60
 288 390 288 390 306 390 c 0,61,62
 352 390 352 390 384.5 373.5 c 128,-1,63
 417 357 417 357 436 329 c 128,-1,64
 455 301 455 301 461 266 c 128,-1,65
 467 231 467 231 458 193 c 0,66,67
 450 157 450 157 427 121 c 128,-1,68
 404 85 404 85 371 55.5 c 128,-1,69
 338 26 338 26 297.5 7.5 c 128,-1,70
 257 -11 257 -11 213 -11 c 0,71,72
 174 -11 174 -11 139 2.5 c 128,-1,73
 104 16 104 16 77 39 c 1,0,1
EndSplineSet
EndChar

StartChar: six
Encoding: 54 54 21
Width: 500
Flags: W
LayerCount: 2
Fore
SplineSet
407 551 m 0,0,1
 354 510 354 510 302 451.5 c 128,-1,2
 250 393 250 393 213 328 c 1,3,4
 275 365 275 365 334 365 c 0,5,6
 369 365 369 365 397 353.5 c 128,-1,7
 425 342 425 342 442 319.5 c 128,-1,8
 459 297 459 297 464 264.5 c 128,-1,9
 469 232 469 232 460 190 c 0,10,11
 450 145 450 145 428.5 109 c 128,-1,12
 407 73 407 73 378.5 48.5 c 128,-1,13
 350 24 350 24 315 11 c 128,-1,14
 280 -2 280 -2 241 -2 c 0,15,16
 197 -2 197 -2 161.5 16 c 128,-1,17
 126 34 126 34 110 69 c 0,18,19
 101 88 101 88 96.5 100 c 128,-1,20
 92 112 92 112 90 124 c 128,-1,21
 88 136 88 136 88 150 c 128,-1,22
 88 164 88 164 89 187 c 0,23,24
 90 204 90 204 94 222 c 0,25,26
 106 273 106 273 132.5 326.5 c 128,-1,27
 159 380 159 380 196 431 c 128,-1,28
 233 482 233 482 277 527.5 c 128,-1,29
 321 573 321 573 367 609 c 0,30,31
 385 622 385 622 400 622 c 0,32,33
 415 622 415 622 423 611 c 128,-1,34
 431 600 431 600 427 584 c 0,35,36
 423 567 423 567 407 551 c 0,0,1
181 211 m 0,37,38
 177 207 177 207 173 204 c 128,-1,39
 169 201 169 201 166 199 c 0,40,41
 164 188 164 188 165.5 177.5 c 128,-1,42
 167 167 167 167 167 156 c 0,43,44
 184 112 184 112 207 96.5 c 128,-1,45
 230 81 230 81 259 81 c 0,46,47
 295 81 295 81 317.5 94.5 c 128,-1,48
 340 108 340 108 353.5 125.5 c 128,-1,49
 367 143 367 143 373 160.5 c 128,-1,50
 379 178 379 178 381 187 c 0,51,52
 387 214 387 214 384 232.5 c 128,-1,53
 381 251 381 251 371 262 c 128,-1,54
 361 273 361 273 347 278 c 128,-1,55
 333 283 333 283 317 283 c 0,56,57
 282 283 282 283 246.5 263.5 c 128,-1,58
 211 244 211 244 181 211 c 0,37,38
EndSplineSet
EndChar

StartChar: seven
Encoding: 55 55 22
Width: 500
Flags: W
LayerCount: 2
Fore
SplineSet
192 262 m 4,0,1
 172 265 172 265 165 277 c 132,-1,2
 158 289 158 289 162 303 c 260,3,4
 165 317 165 317 178.5 330.5 c 132,-1,5
 192 344 192 344 214 344 c 4,6,7
 225 344 225 344 251.5 344 c 132,-1,8
 278 344 278 344 291.5 344.5 c 132,-1,9
 305 345 305 345 341 345 c 132,-1,10
 377 345 377 345 471 345 c 5,11,12
 488 340 488 340 493.5 328.5 c 132,-1,13
 499 317 499 317 496 304 c 4,14,15
 493 290 493 290 481 279 c 132,-1,16
 469 268 469 268 449 263 c 5,17,18
 387 262 387 262 284 262 c 4,19,20
 192 262 l 4,0,1
225 10 m 1,21,22
 215 -7 215 -7 202.5 -15 c 128,-1,23
 190 -23 190 -23 179 -23 c 0,24,25
 166 -23 166 -23 157.5 -12 c 128,-1,26
 149 -1 149 -1 152 20 c 1,27,28
 172 81 172 81 203 148 c 128,-1,29
 234 215 234 215 272.5 280 c 132,-1,30
 311 345 311 345 355.5 405.5 c 128,-1,31
 400 466 400 466 446 514 c 1,32,-1
 180 514 l 2,33,34
 160 517 160 517 153 529 c 128,-1,35
 146 541 146 541 149 555 c 0,36,37
 152 570 152 570 166 582.5 c 128,-1,38
 180 595 180 595 201 596 c 2,39,-1
 548 596 l 1,40,41
 578 587 578 587 572 556 c 0,42,43
 570 547 570 547 562 534 c 1,44,45
 545 517 545 517 528.5 500.5 c 128,-1,46
 512 484 512 484 496 466 c 0,47,48
 453 417 453 417 412.5 362 c 132,-1,49
 372 307 372 307 336.5 249 c 132,-1,50
 301 191 301 191 272.5 130.5 c 128,-1,51
 244 70 244 70 225 10 c 1,21,22
EndSplineSet
EndChar

StartChar: eight
Encoding: 56 56 23
Width: 500
Flags: W
LayerCount: 2
Fore
SplineSet
70 145 m 1,0,1
 83 175 83 175 96 202 c 128,-1,2
 109 229 109 229 138 254 c 0,3,4
 158 274 158 274 181.5 288.5 c 128,-1,5
 205 303 205 303 230 317 c 1,6,7
 198 348 198 348 181 389.5 c 128,-1,8
 164 431 164 431 176 485 c 0,9,10
 185 523 185 523 208.5 548.5 c 128,-1,11
 232 574 232 574 263.5 590 c 128,-1,12
 295 606 295 606 330 612.5 c 128,-1,13
 365 619 365 619 397 619 c 0,14,15
 423 619 423 619 449 612.5 c 128,-1,16
 475 606 475 606 494.5 591.5 c 128,-1,17
 514 577 514 577 522.5 553 c 128,-1,18
 531 529 531 529 523 494 c 0,19,20
 516 462 516 462 502.5 437 c 128,-1,21
 489 412 489 412 469 391 c 128,-1,22
 449 370 449 370 423 352 c 128,-1,23
 397 334 397 334 365 316 c 1,24,25
 385 300 385 300 404.5 281.5 c 128,-1,26
 424 263 424 263 438.5 241.5 c 128,-1,27
 453 220 453 220 459 195.5 c 128,-1,28
 465 171 465 171 458 141 c 0,29,30
 452 114 452 114 431.5 87.5 c 128,-1,31
 411 61 411 61 384.5 39.5 c 128,-1,32
 358 18 358 18 328 3.5 c 128,-1,33
 298 -11 298 -11 273 -15 c 0,34,35
 236 -22 236 -22 205 -22 c 0,36,37
 171 -22 171 -22 143 -11.5 c 128,-1,38
 115 -1 115 -1 89 25 c 0,39,40
 67 46 67 46 66.5 74 c 128,-1,41
 66 102 66 102 69 132 c 2,42,-1
 70 145 l 1,0,1
163 175 m 0,43,44
 159 167 159 167 155.5 158.5 c 128,-1,45
 152 150 152 150 148 142 c 0,46,47
 148 133 148 133 147 124 c 128,-1,48
 146 115 146 115 146 107 c 0,49,50
 152 89 152 89 161.5 78.5 c 128,-1,51
 171 68 171 68 183.5 62.5 c 128,-1,52
 196 57 196 57 208.5 56 c 128,-1,53
 221 55 221 55 232 55 c 0,54,55
 249 55 249 55 270 59.5 c 128,-1,56
 291 64 291 64 311.5 75 c 128,-1,57
 332 86 332 86 349.5 104 c 128,-1,58
 367 122 367 122 379 149 c 1,59,60
 381 168 381 168 370.5 185 c 128,-1,61
 360 202 360 202 345.5 217.5 c 128,-1,62
 331 233 331 233 314 246.5 c 128,-1,63
 297 260 297 260 283 271 c 1,64,65
 243 247 243 247 216 227.5 c 128,-1,66
 189 208 189 208 163 175 c 0,43,44
250 456 m 0,67,68
 259 427 259 427 274.5 405 c 128,-1,69
 290 383 290 383 312 363 c 1,70,71
 346 382 346 382 375.5 404 c 128,-1,72
 405 426 405 426 431 458 c 0,73,74
 435 466 435 466 438 474 c 128,-1,75
 441 482 441 482 444 489 c 0,76,77
 443 494 443 494 444 499.5 c 128,-1,78
 445 505 445 505 444 510 c 0,79,80
 433 530 433 530 414.5 536 c 128,-1,81
 396 542 396 542 373 542 c 0,82,83
 359 542 359 542 341 539 c 128,-1,84
 323 536 323 536 305.5 529.5 c 128,-1,85
 288 523 288 523 273.5 512 c 128,-1,86
 259 501 259 501 253 485 c 0,87,88
 252 478 252 478 251.5 470.5 c 128,-1,89
 251 463 251 463 250 456 c 0,67,68
EndSplineSet
EndChar

StartChar: nine
Encoding: 57 57 24
Width: 500
Flags: W
LayerCount: 2
Fore
SplineSet
177 -28 m 0,0,1
 173 -29 173 -29 170 -29.5 c 128,-1,2
 167 -30 167 -30 163 -30 c 0,3,4
 144 -30 144 -30 136 -19 c 128,-1,5
 128 -8 128 -8 132 7 c 0,6,7
 137 27 137 27 159 43 c 1,8,9
 228 75 228 75 284.5 125 c 128,-1,10
 341 175 341 175 380 239 c 1,11,12
 327 217 327 217 278 217 c 0,13,14
 231 217 231 217 199.5 234 c 128,-1,15
 168 251 168 251 150.5 277.5 c 128,-1,16
 133 304 133 304 129 336.5 c 128,-1,17
 125 369 125 369 133 401 c 0,18,19
 142 439 142 439 163.5 476 c 128,-1,20
 185 513 185 513 218.5 542.5 c 128,-1,21
 252 572 252 572 295 590.5 c 128,-1,22
 338 609 338 609 388 609 c 0,23,24
 411 609 411 609 429 602 c 0,25,26
 467 590 467 590 487.5 568 c 128,-1,27
 508 546 508 546 516.5 517 c 128,-1,28
 525 488 525 488 522.5 452.5 c 128,-1,29
 520 417 520 417 512 376 c 0,30,31
 497 311 497 311 466.5 250.5 c 128,-1,32
 436 190 436 190 393 138 c 128,-1,33
 350 86 350 86 296 44 c 128,-1,34
 242 2 242 2 177 -28 c 0,0,1
216 337 m 0,35,36
 231 316 231 316 251 306.5 c 128,-1,37
 271 297 271 297 296 297 c 0,38,39
 328 297 328 297 361.5 310.5 c 128,-1,40
 395 324 395 324 424 344 c 0,41,42
 426 344 426 344 427 348 c 128,-1,43
 428 352 428 352 429.5 357.5 c 128,-1,44
 431 363 431 363 432 368 c 128,-1,45
 433 373 433 373 434 376 c 0,46,47
 441 405 441 405 442.5 433 c 128,-1,48
 444 461 444 461 437.5 482.5 c 128,-1,49
 431 504 431 504 413.5 517 c 128,-1,50
 396 530 396 530 365 530 c 0,51,52
 340 530 340 530 315 520 c 128,-1,53
 290 510 290 510 268 492.5 c 128,-1,54
 246 475 246 475 230.5 451 c 128,-1,55
 215 427 215 427 209 400 c 0,56,57
 205 383 205 383 206 367 c 128,-1,58
 207 351 207 351 216 337 c 0,35,36
EndSplineSet
EndChar

StartChar: colon
Encoding: 58 58 25
Width: 500
Flags: W
LayerCount: 2
Fore
SplineSet
266 152 m 0,0,1
 293 152 293 152 310 129 c 128,-1,2
 327 106 327 106 320 75 c 0,3,4
 313 43 313 43 285 20.5 c 128,-1,5
 257 -2 257 -2 230 -2 c 0,6,7
 202 -2 202 -2 184.5 20.5 c 128,-1,8
 167 43 167 43 175 75 c 0,9,10
 182 106 182 106 210 129 c 128,-1,11
 238 152 238 152 266 152 c 0,0,1
335 457 m 256,12,13
 363 457 363 457 380 433.5 c 128,-1,14
 397 410 397 410 390 378 c 0,15,16
 382 345 382 345 354 323 c 128,-1,17
 326 301 326 301 299 301 c 256,18,19
 271 301 271 301 253 323 c 128,-1,20
 235 345 235 345 243 378 c 0,21,22
 250 410 250 410 278.5 433.5 c 128,-1,23
 307 457 307 457 335 457 c 256,12,13
EndSplineSet
EndChar

StartChar: semicolon
Encoding: 59 59 26
Width: 500
Flags: W
LayerCount: 2
Fore
SplineSet
230 117 m 0,0,1
 203 79 203 79 177 40 c 128,-1,2
 151 1 151 1 97 -80 c 0,3,4
 95 -84 95 -84 94.5 -87.5 c 128,-1,5
 94 -91 94 -91 93 -94 c 0,6,7
 88 -114 88 -114 99 -124.5 c 128,-1,8
 110 -135 110 -135 123 -137 c 256,9,10
 136 -139 136 -139 151.5 -131 c 128,-1,11
 167 -123 167 -123 173 -113 c 0,12,13
 200 -75 200 -75 240 -16 c 128,-1,14
 280 43 280 43 306 81 c 0,15,16
 314 94 314 94 316 103 c 0,17,18
 320 121 320 121 305 134 c 128,-1,19
 290 147 290 147 272 143 c 0,20,21
 249 141 249 141 230 117 c 0,0,1
337 455 m 0,22,23
 363 455 363 455 380.5 432 c 128,-1,24
 398 409 398 409 391 378 c 0,25,26
 384 346 384 346 355.5 323.5 c 128,-1,27
 327 301 327 301 301 301 c 0,28,29
 274 301 274 301 258 323.5 c 128,-1,30
 242 346 242 346 249 378 c 0,31,32
 256 409 256 409 283 432 c 128,-1,33
 310 455 310 455 337 455 c 0,22,23
EndSplineSet
EndChar

StartChar: less
Encoding: 60 60 27
Width: 500
Flags: W
LayerCount: 2
Fore
SplineSet
450 175 m 0,0,1
 448 185 448 185 370.5 222.5 c 128,-1,2
 293 260 293 260 222 303 c 1,3,4
 340 356 340 356 512 450 c 1,5,6
 530 466 530 466 532 483 c 0,7,8
 536 499 536 499 528 510 c 128,-1,9
 520 521 520 521 504 521 c 0,10,11
 496 521 496 521 483 516 c 1,12,13
 474 517 474 517 442.5 497 c 128,-1,14
 411 477 411 477 301.5 423 c 128,-1,15
 192 369 192 369 172.5 355 c 128,-1,16
 153 341 153 341 147 337 c 0,17,18
 126 322 126 322 122 302 c 0,19,20
 118 285 118 285 129 269 c 0,21,22
 148 251 148 251 370 124 c 0,23,24
 381 118 381 118 409 107 c 1,25,26
 425 107 425 107 437.5 117.5 c 128,-1,27
 450 128 450 128 453 144 c 256,28,29
 457 160 457 160 450 175 c 0,0,1
EndSplineSet
EndChar

StartChar: equal
Encoding: 61 61 28
Width: 500
Flags: W
LayerCount: 2
Fore
SplineSet
513 393 m 0,0,1
 507 368 507 368 489.5 357 c 128,-1,2
 472 346 472 346 449 346 c 2,3,-1
 172 346 l 2,4,5
 149 346 149 346 136 357 c 128,-1,6
 123 368 123 368 129 393 c 0,7,8
 134 408 134 408 142 414 c 0,9,10
 156 431 156 431 192 431 c 2,11,-1
 469 431 l 2,12,13
 502 431 502 431 509 414 c 0,14,15
 514 398 514 398 513 393 c 0,0,1
472 234 m 1,16,17
 466 201 466 201 447.5 188.5 c 128,-1,18
 429 176 429 176 404 176 c 2,19,-1
 132 175 l 2,20,21
 107 175 107 175 95.5 186.5 c 128,-1,22
 84 198 84 198 88.5 217.5 c 128,-1,23
 93 237 93 237 111 248.5 c 128,-1,24
 129 260 129 260 151 260 c 2,25,-1
 424 261 l 2,26,27
 470 261 470 261 472 234 c 1,16,17
EndSplineSet
EndChar

StartChar: greater
Encoding: 62 62 29
Width: 500
Flags: W
LayerCount: 2
Fore
SplineSet
97 169 m 0,0,1
 104 179 104 179 196.5 216 c 128,-1,2
 289 253 289 253 382 303 c 1,3,4
 178 427 178 427 163 449 c 0,5,6
 154 465 154 465 159 482 c 0,7,8
 163 498 163 498 175.5 509 c 128,-1,9
 188 520 188 520 204 520 c 0,10,11
 209 522 209 522 238 510 c 0,12,13
 247 502 247 502 265.5 489 c 128,-1,14
 284 476 284 476 362 424 c 128,-1,15
 440 372 440 372 461 354 c 128,-1,16
 482 336 482 336 477 336 c 1,17,18
 491 321 491 321 487 301 c 0,19,20
 483 284 483 284 464 268 c 0,21,22
 437 250 437 250 154 116 c 0,23,24
 141 110 141 110 107 101 c 1,25,26
 91 101 91 101 83 111.5 c 128,-1,27
 75 122 75 122 79 138 c 256,28,29
 83 154 83 154 97 169 c 0,0,1
EndSplineSet
EndChar

StartChar: question
Encoding: 63 63 30
Width: 500
Flags: W
LayerCount: 2
Fore
SplineSet
328 247 m 1,0,1
 313 237 313 237 302 214.5 c 128,-1,2
 291 192 291 192 293.5 178 c 128,-1,3
 296 164 296 164 277 154 c 128,-1,4
 258 144 258 144 235 156 c 0,5,6
 221 166 221 166 221.5 183.5 c 128,-1,7
 222 201 222 201 235 233 c 0,8,9
 234 238 234 238 256 271 c 1,10,11
 272 285 272 285 291 305 c 0,12,13
 321 339 321 339 345 359.5 c 128,-1,14
 369 380 369 380 388 405 c 128,-1,15
 407 430 407 430 418.5 448.5 c 128,-1,16
 430 467 430 467 428.5 486.5 c 128,-1,17
 427 506 427 506 405 527 c 0,18,19
 402 528 402 528 399.5 529 c 128,-1,20
 397 530 397 530 394 531 c 0,21,22
 343 541 343 541 303.5 515.5 c 128,-1,23
 264 490 264 490 250 445 c 1,24,25
 233 429 233 429 213.5 427.5 c 128,-1,26
 194 426 194 426 185 434.5 c 128,-1,27
 176 443 176 443 176.5 459.5 c 128,-1,28
 177 476 177 476 193 495 c 1,29,30
 211 529 211 529 237 553 c 128,-1,31
 263 577 263 577 299.5 591 c 128,-1,32
 336 605 336 605 374.5 609.5 c 128,-1,33
 413 614 413 614 436.5 608 c 128,-1,34
 460 602 460 602 481 578 c 128,-1,35
 502 554 502 554 506 516 c 0,36,37
 510 490 510 490 502 463 c 128,-1,38
 494 436 494 436 479 413.5 c 128,-1,39
 464 391 464 391 444 368.5 c 128,-1,40
 424 346 424 346 398 318 c 128,-1,41
 372 290 372 290 357.5 277.5 c 128,-1,42
 343 265 343 265 328 247 c 1,0,1
262 123 m 256,43,44
 284 123 284 123 298.5 104.5 c 128,-1,45
 313 86 313 86 307 60 c 0,46,47
 301 33 301 33 278 15 c 128,-1,48
 255 -3 255 -3 233 -3 c 256,49,50
 211 -3 211 -3 196 15 c 128,-1,51
 181 33 181 33 187 60 c 0,52,53
 193 86 193 86 216.5 104.5 c 128,-1,54
 240 123 240 123 262 123 c 256,43,44
EndSplineSet
EndChar

StartChar: at
Encoding: 64 64 31
Width: 500
Flags: W
LayerCount: 2
Fore
SplineSet
234 349 m 0,0,1
 273 412 273 412 302.5 421 c 128,-1,2
 332 430 332 430 352 431 c 0,3,4
 392 429 392 429 399 419 c 128,-1,5
 406 409 406 409 401.5 383.5 c 128,-1,6
 397 358 397 358 395.5 343 c 128,-1,7
 394 328 394 328 389 295 c 1,8,9
 374 238 374 238 375 224 c 1,10,11
 382 226 382 226 388 229 c 128,-1,12
 394 232 394 232 398.5 237.5 c 128,-1,13
 403 243 403 243 416.5 264.5 c 128,-1,14
 430 286 430 286 433.5 297 c 128,-1,15
 437 308 437 308 445 329 c 0,16,17
 459 377 459 377 454 425 c 0,18,19
 449 475 449 475 434 497 c 0,20,21
 421 523 421 523 408 528 c 0,22,23
 381 537 381 537 349 531 c 0,24,25
 317 522 317 522 280 484 c 0,26,27
 242 447 242 447 200 372 c 0,28,29
 177 328 177 328 165 276 c 0,30,31
 151 220 151 220 152 164 c 0,32,33
 155 125 155 125 177 99 c 0,34,35
 191 79 191 79 224 70 c 1,36,37
 256 66 256 66 280 75 c 0,38,39
 308 85 308 85 342 95 c 0,40,41
 356 101 356 101 366 101 c 0,42,43
 383 101 383 101 389 90 c 128,-1,44
 395 79 395 79 393 64 c 0,45,46
 389 40 389 40 346.5 25 c 128,-1,47
 304 10 304 10 278 3 c 0,48,49
 253 -3 253 -3 231 -4 c 256,50,51
 208 -5 208 -5 183 -1 c 0,52,53
 152 3 152 3 144 17 c 1,54,55
 116 41 116 41 104 65 c 0,56,57
 87 97 87 97 84 160 c 0,58,59
 81 211 81 211 99 281 c 0,60,61
 119 356 119 356 159 419 c 0,62,63
 198 483 198 483 244 527 c 1,64,65
 287 577 287 577 351 599 c 1,66,67
 420 615 420 615 452 595 c 128,-1,68
 484 575 484 575 500 529 c 256,69,70
 515 483 515 483 514 445 c 1,71,72
 518 396 518 396 506 336 c 0,73,74
 498 308 498 308 483 271 c 1,75,76
 467 240 467 240 448 215 c 128,-1,77
 429 190 429 190 394 173.5 c 128,-1,78
 359 157 359 157 333 147 c 0,79,80
 323 143 323 143 297 137 c 128,-1,81
 271 131 271 131 234 137 c 0,82,83
 218 141 218 141 209.5 159.5 c 128,-1,84
 201 178 201 178 198.5 208 c 128,-1,85
 196 238 196 238 207 278 c 0,86,87
 215 317 215 317 234 349 c 0,0,1
291 348 m 0,88,89
 277 328 277 328 267 303 c 128,-1,90
 257 278 257 278 252 257 c 0,91,92
 249 246 249 246 251 222 c 128,-1,93
 253 198 253 198 260.5 196.5 c 128,-1,94
 268 195 268 195 281 195 c 0,95,96
 303 200 303 200 310 206 c 128,-1,97
 317 212 317 212 320 224 c 128,-1,98
 323 236 323 236 325 258.5 c 128,-1,99
 327 281 327 281 334 297 c 0,100,101
 337 311 337 311 339 325.5 c 128,-1,102
 341 340 341 340 342 348 c 128,-1,103
 343 356 343 356 338.5 363.5 c 128,-1,104
 334 371 334 371 330 371 c 0,105,106
 320 370 320 370 310.5 364 c 128,-1,107
 301 358 301 358 291 348 c 0,88,89
EndSplineSet
EndChar

StartChar: A
Encoding: 65 65 32
Width: 500
Flags: W
LayerCount: 2
Fore
SplineSet
438 35 m 0,0,1
 433 16 433 16 421.5 4 c 128,-1,2
 410 -8 410 -8 397.5 -10.5 c 128,-1,3
 385 -13 385 -13 374.5 -6 c 128,-1,4
 364 1 364 1 360 18 c 1,5,6
 365 65 365 65 365 110.5 c 128,-1,7
 365 156 365 156 362 201 c 1,8,-1
 202 199 l 2,9,10
 200 199 200 199 198 199.5 c 128,-1,11
 196 200 196 200 194 200 c 0,12,13
 151 115 151 115 112 24 c 0,14,15
 100 3 100 3 84 -4 c 128,-1,16
 68 -11 68 -11 56.5 -7 c 128,-1,17
 45 -3 45 -3 40.5 11 c 128,-1,18
 36 25 36 25 45 47 c 0,19,20
 109 192 109 192 187.5 343 c 128,-1,21
 266 494 266 494 321 601 c 1,22,23
 336 616 336 616 355 621 c 0,24,25
 366 625 366 625 377 620.5 c 128,-1,26
 388 616 388 616 393 609 c 0,27,28
 394 609 394 609 391.5 610.5 c 128,-1,29
 389 612 389 612 390 612 c 0,30,31
 418 550 418 550 423 489.5 c 128,-1,32
 428 429 428 429 431 381 c 0,33,34
 434 368 434 368 436 337.5 c 128,-1,35
 438 307 438 307 439 286 c 2,36,-1
 442 202 l 2,37,38
 445 161 445 161 444 119.5 c 128,-1,39
 443 78 443 78 438 35 c 0,0,1
344 516 m 1,40,41
 322 467 322 467 287.5 399 c 128,-1,42
 253 331 253 331 227 279 c 1,43,-1
 361 283 l 1,44,45
 360 311 360 311 361.5 341 c 128,-1,46
 363 371 363 371 360 399 c 0,47,48
 358 429 358 429 354.5 458 c 128,-1,49
 351 487 351 487 344 516 c 1,40,41
EndSplineSet
EndChar

StartChar: B
Encoding: 66 66 33
Width: 500
Flags: W
LayerCount: 2
Fore
SplineSet
88 -5 m 0,0,1
 68 -3 68 -3 61 9.5 c 128,-1,2
 54 22 54 22 57 36 c 0,3,4
 59 43 59 43 65 53 c 0,5,6
 180 547 180 547 184 555 c 0,7,8
 191 573 191 573 209.5 587.5 c 128,-1,9
 228 602 228 602 259 612 c 128,-1,10
 290 622 290 622 352 624 c 0,11,12
 394 624 394 624 424.5 609 c 128,-1,13
 455 594 455 594 473.5 570.5 c 128,-1,14
 492 547 492 547 498 518.5 c 128,-1,15
 504 490 504 490 497 463 c 0,16,17
 488 425 488 425 462 389.5 c 128,-1,18
 436 354 436 354 397 328 c 1,19,20
 438 303 438 303 451.5 264.5 c 128,-1,21
 465 226 465 226 455 184 c 0,22,23
 449 156 449 156 433.5 129.5 c 128,-1,24
 418 103 418 103 396.5 80 c 128,-1,25
 375 57 375 57 348.5 39.5 c 128,-1,26
 322 22 322 22 293 13 c 0,27,28
 256 1 256 1 219.5 -2.5 c 128,-1,29
 183 -6 183 -6 139 -6 c 0,30,31
 126 -6 126 -6 113.5 -6 c 128,-1,32
 101 -6 101 -6 88 -5 c 0,0,1
358 246 m 0,33,34
 340 262 340 262 316.5 269.5 c 128,-1,35
 293 277 293 277 266 280 c 0,36,37
 247 281 247 281 226 279.5 c 128,-1,38
 205 278 205 278 193 275 c 1,39,-1
 146 75 l 1,40,41
 166 75 166 75 204 77 c 128,-1,42
 242 79 242 79 276.5 88.5 c 128,-1,43
 311 98 311 98 339.5 119 c 128,-1,44
 368 140 368 140 377 178 c 0,45,46
 382 198 382 198 377.5 216 c 128,-1,47
 373 234 373 234 358 246 c 0,33,34
213 364 m 1,48,49
 223 362 223 362 237.5 361.5 c 128,-1,50
 252 361 252 361 280 362 c 0,51,52
 293 363 293 363 315 369.5 c 128,-1,53
 337 376 337 376 358 387.5 c 128,-1,54
 379 399 379 399 396.5 416 c 128,-1,55
 414 433 414 433 419 456 c 0,56,57
 424 478 424 478 417.5 494 c 128,-1,58
 411 510 411 510 398 520.5 c 128,-1,59
 385 531 385 531 366 536 c 128,-1,60
 347 541 347 541 328 541 c 0,61,62
 293 541 293 541 251 528 c 1,63,-1
 213 364 l 1,48,49
EndSplineSet
EndChar

StartChar: C
Encoding: 67 67 34
Width: 500
Flags: W
LayerCount: 2
Fore
SplineSet
395 169 m 1,0,1
 413 182 413 182 429 182 c 0,2,3
 444 182 444 182 451.5 171 c 128,-1,4
 459 160 459 160 455 143 c 0,5,6
 453 134 453 134 446 121 c 0,7,8
 424 95 424 95 399 70.5 c 128,-1,9
 374 46 374 46 346.5 27.5 c 128,-1,10
 319 9 319 9 289 -2.5 c 128,-1,11
 259 -14 259 -14 226 -14 c 0,12,13
 176 -14 176 -14 158 5.5 c 128,-1,14
 140 25 140 25 118.5 63 c 128,-1,15
 97 101 97 101 92.5 152.5 c 128,-1,16
 88 204 88 204 102 263 c 0,17,18
 112 305 112 305 130 341 c 0,19,20
 154 388 154 388 179 424 c 128,-1,21
 204 460 204 460 236 496 c 128,-1,22
 268 532 268 532 302 551.5 c 128,-1,23
 336 571 336 571 359 583 c 0,24,25
 390 596 390 596 415 603 c 128,-1,26
 440 610 440 610 462 610 c 0,27,28
 495 610 495 610 516 590 c 128,-1,29
 537 570 537 570 549 522 c 0,30,31
 550 513 550 513 548 504 c 0,32,33
 544 486 544 486 531 475 c 128,-1,34
 518 464 518 464 503 464 c 0,35,36
 485 464 485 464 474 480 c 1,37,38
 467 507 467 507 459.5 518 c 128,-1,39
 452 529 452 529 439 529 c 0,40,41
 429 529 429 529 412.5 526.5 c 128,-1,42
 396 524 396 524 374 516 c 0,43,44
 328 494 328 494 301 468.5 c 128,-1,45
 274 443 274 443 254 416 c 128,-1,46
 234 389 234 389 212 344 c 128,-1,47
 190 299 190 299 176 255 c 0,48,49
 168 219 168 219 170 184.5 c 128,-1,50
 172 150 172 150 185 122.5 c 128,-1,51
 198 95 198 95 209 80 c 128,-1,52
 220 65 220 65 245 67 c 0,53,54
 266 69 266 69 287 77 c 128,-1,55
 308 85 308 85 327 100 c 128,-1,56
 346 115 346 115 363.5 133 c 128,-1,57
 381 151 381 151 395 169 c 1,0,1
EndSplineSet
EndChar

StartChar: D
Encoding: 68 68 35
Width: 500
Flags: W
LayerCount: 2
Fore
SplineSet
88 -18 m 0,0,1
 75 -16 75 -16 67 -9.5 c 128,-1,2
 59 -3 59 -3 56 6 c 2,3,-1
 55 12 l 2,4,5
 54 17 54 17 53.5 22.5 c 128,-1,6
 53 28 53 28 54 33 c 2,7,-1
 168 530 l 2,8,9
 176 551 176 551 197.5 566 c 128,-1,10
 219 581 219 581 254.5 590 c 128,-1,11
 290 599 290 599 324 596 c 0,12,13
 389 593 389 593 412 571 c 128,-1,14
 435 549 435 549 460 505 c 128,-1,15
 485 461 485 461 494 411 c 128,-1,16
 503 361 503 361 487 299 c 0,17,18
 473 239 473 239 439 181.5 c 128,-1,19
 405 124 405 124 353 81 c 0,20,21
 317 51 317 51 277.5 31.5 c 128,-1,22
 238 12 238 12 188 1.5 c 128,-1,23
 138 -9 138 -9 132.5 -11.5 c 128,-1,24
 127 -14 127 -14 88 -18 c 0,0,1
305 514 m 0,25,26
 282 517 282 517 269 513.5 c 128,-1,27
 256 510 256 510 240 507 c 1,28,-1
 138 67 l 1,29,30
 171 70 171 70 198.5 74.5 c 128,-1,31
 226 79 226 79 260.5 100 c 128,-1,32
 295 121 295 121 313 139 c 0,33,34
 351 174 351 174 376.5 218 c 128,-1,35
 402 262 402 262 412 308 c 0,36,37
 421 348 421 348 416.5 385 c 128,-1,38
 412 422 412 422 392 450.5 c 128,-1,39
 372 479 372 479 356.5 495 c 128,-1,40
 341 511 341 511 305 514 c 0,25,26
EndSplineSet
EndChar

StartChar: E
Encoding: 69 69 36
Width: 500
Flags: W
LayerCount: 2
Fore
SplineSet
392 89 m 0,0,1
 410 90 410 90 419.5 81.5 c 128,-1,2
 429 73 429 73 429.5 60.5 c 128,-1,3
 430 48 430 48 422 34.5 c 128,-1,4
 414 21 414 21 396 11 c 1,5,6
 360 1 360 1 319.5 2 c 128,-1,7
 279 3 279 3 240 1.5 c 128,-1,8
 201 0 201 0 163.5 0.5 c 128,-1,9
 126 1 126 1 93 10 c 0,10,11
 80 18 80 18 76 29.5 c 128,-1,12
 72 41 72 41 76 52 c 2,13,-1
 76 53 l 1,14,-1
 181 508 l 1,15,16
 179 527 179 527 180.5 541 c 128,-1,17
 182 555 182 555 188 565 c 128,-1,18
 194 575 194 575 205 585 c 1,19,20
 245 593 245 593 281.5 596 c 128,-1,21
 318 599 318 599 358.5 597 c 128,-1,22
 399 595 399 595 435.5 599 c 128,-1,23
 472 603 472 603 510 601 c 0,24,25
 531 602 531 602 540 591 c 128,-1,26
 549 580 549 580 548 566 c 128,-1,27
 547 552 547 552 535 538.5 c 128,-1,28
 523 525 523 525 501 520 c 0,29,30
 445 517 445 517 382 518 c 128,-1,31
 319 519 319 519 260 513 c 1,32,-1
 218 333 l 1,33,34
 266 331 266 331 315.5 333.5 c 128,-1,35
 365 336 365 336 415 341 c 0,36,37
 436 342 436 342 445 331 c 128,-1,38
 454 320 454 320 452.5 306 c 128,-1,39
 451 292 451 292 439 278.5 c 128,-1,40
 427 265 427 265 406 260 c 0,41,42
 354 255 354 255 301.5 252 c 128,-1,43
 249 249 249 249 199 251 c 1,44,-1
 159 83 l 1,45,46
 213 74 213 74 274 78.5 c 128,-1,47
 335 83 335 83 392 89 c 0,0,1
EndSplineSet
EndChar

StartChar: F
Encoding: 70 70 37
Width: 500
Flags: W
LayerCount: 2
Fore
SplineSet
135 27 m 1,0,1
 129 4 129 4 114.5 -7.5 c 128,-1,2
 100 -19 100 -19 86 -19 c 0,3,4
 73 -19 73 -19 64.5 -8.5 c 128,-1,5
 56 2 56 2 58 24 c 2,6,-1
 115 273 l 2,7,8
 123 307 123 307 134 354 c 0,9,10
 137 366 137 366 141 382.5 c 128,-1,11
 145 399 145 399 150 418 c 0,12,13
 157 447 157 447 160 474 c 128,-1,14
 163 501 163 501 157 517 c 0,15,16
 155 531 155 531 157 542 c 0,17,18
 164 571 164 571 195 581 c 1,19,20
 231 587 231 587 266 588.5 c 128,-1,21
 301 590 301 590 353.5 591.5 c 128,-1,22
 406 593 406 593 441.5 594 c 128,-1,23
 477 595 477 595 513 600 c 0,24,25
 535 600 535 600 544 589 c 128,-1,26
 553 578 553 578 549 561 c 0,27,28
 546 547 546 547 534.5 535.5 c 128,-1,29
 523 524 523 524 503 519 c 0,30,31
 444 511 444 511 387.5 511.5 c 128,-1,32
 331 512 331 512 239 506 c 1,33,34
 239 485 239 485 235 462.5 c 128,-1,35
 231 440 231 440 226 418 c 0,36,37
 222 401 222 401 218 386 c 128,-1,38
 214 371 214 371 211 357 c 2,39,-1
 209 347 l 1,40,41
 259 347 259 347 330 350.5 c 128,-1,42
 401 354 401 354 443 357 c 0,43,44
 464 357 464 357 473.5 346 c 128,-1,45
 483 335 483 335 479 318 c 0,46,47
 473 293 473 293 444.5 280.5 c 128,-1,48
 416 268 416 268 377.5 268 c 128,-1,49
 339 268 339 268 297.5 268 c 128,-1,50
 256 268 256 268 190 266 c 1,51,-1
 135 27 l 1,0,1
EndSplineSet
EndChar

StartChar: G
Encoding: 71 71 38
Width: 500
Flags: W
LayerCount: 2
Fore
SplineSet
468 336 m 0,0,1
 485 331 485 331 490.5 319.5 c 128,-1,2
 496 308 496 308 493 295 c 0,3,4
 490 283 490 283 480.5 272.5 c 128,-1,5
 471 262 471 262 455 256 c 1,6,-1
 421 106 l 2,7,8
 416 84 416 84 399 69 c 128,-1,9
 382 54 382 54 367 41 c 0,10,11
 330 9 330 9 282.5 -6 c 128,-1,12
 235 -21 235 -21 195 -13 c 1,13,14
 151 4 151 4 135 25 c 128,-1,15
 119 46 119 46 105 91 c 128,-1,16
 91 136 91 136 92 181 c 128,-1,17
 93 226 93 226 105 288 c 0,18,19
 113 322 113 322 122.5 355 c 128,-1,20
 132 388 132 388 154 427 c 128,-1,21
 176 466 176 466 198.5 499 c 128,-1,22
 221 532 221 532 258 558 c 0,23,24
 276 573 276 573 312 589.5 c 128,-1,25
 348 606 348 606 403 614 c 0,26,27
 418 614 418 614 440 610.5 c 128,-1,28
 462 607 462 607 481 599.5 c 128,-1,29
 500 592 500 592 512 579 c 128,-1,30
 524 566 524 566 520 547 c 0,31,32
 516 531 516 531 503.5 520 c 128,-1,33
 491 509 491 509 475 509 c 0,34,35
 467 509 467 509 456.5 513 c 128,-1,36
 446 517 446 517 434.5 521.5 c 128,-1,37
 423 526 423 526 410.5 530 c 128,-1,38
 398 534 398 534 385 534 c 0,39,40
 376 534 376 534 363 529 c 128,-1,41
 350 524 350 524 341 521 c 0,42,43
 304 502 304 502 277 481 c 128,-1,44
 250 460 250 460 222 412.5 c 128,-1,45
 194 365 194 365 181 293 c 0,46,47
 169 229 169 229 170 195.5 c 128,-1,48
 171 162 171 162 185 124 c 128,-1,49
 199 86 199 86 213 78 c 0,50,51
 241 63 241 63 278 76 c 128,-1,52
 315 89 315 89 347 117 c 1,53,-1
 378 253 l 1,54,55
 342 252 342 252 326.5 251 c 128,-1,56
 311 250 311 250 275 250 c 0,57,58
 255 253 255 253 248.5 265 c 128,-1,59
 242 277 242 277 245 291 c 256,60,61
 248 305 248 305 262 318.5 c 128,-1,62
 276 332 276 332 297 332 c 0,63,64
 306 332 306 332 336.5 332.5 c 128,-1,65
 367 333 367 333 382.5 334 c 128,-1,66
 398 335 398 335 428.5 335.5 c 128,-1,67
 459 336 459 336 468 336 c 0,0,1
EndSplineSet
EndChar

StartChar: H
Encoding: 72 72 39
Width: 500
Flags: W
LayerCount: 2
Fore
SplineSet
492 324 m 2,0,1
 476 256 476 256 426 39 c 0,2,3
 419 8 419 8 402 -3 c 128,-1,4
 385 -14 385 -14 369 -14 c 0,5,6
 355 -14 355 -14 346 -1 c 128,-1,7
 337 12 337 12 344 39 c 2,8,-1
 394 261 l 1,9,-1
 183 233 l 1,10,-1
 138 40 l 2,11,12
 131 9 131 9 114 -2 c 128,-1,13
 97 -13 97 -13 81 -13 c 0,14,15
 67 -13 67 -13 59 0 c 128,-1,16
 51 13 51 13 57 40 c 2,17,-1
 177 557 l 2,18,19
 181 574 181 574 188 585 c 128,-1,20
 195 596 195 596 204.5 602 c 128,-1,21
 214 608 214 608 223.5 610 c 128,-1,22
 233 612 233 612 242 612 c 0,23,24
 254 612 254 612 259.5 601 c 128,-1,25
 265 590 265 590 260 567 c 2,26,-1
 204 324 l 1,27,-1
 414 346 l 1,28,-1
 463 557 l 2,29,30
 467 574 467 574 474.5 585 c 128,-1,31
 482 596 482 596 491 602 c 128,-1,32
 500 608 500 608 510.5 610 c 128,-1,33
 521 612 521 612 529 612 c 0,34,35
 542 612 542 612 548 601 c 128,-1,36
 554 590 554 590 548 567 c 2,37,-1
 492 324 l 2,0,1
EndSplineSet
EndChar

StartChar: I
Encoding: 73 73 40
Width: 500
Flags: W
LayerCount: 2
Fore
SplineSet
390 81 m 0,0,1
 411 82 411 82 420 71 c 128,-1,2
 429 60 429 60 427.5 46 c 128,-1,3
 426 32 426 32 414 18.5 c 128,-1,4
 402 5 402 5 380 0 c 1,5,6
 331 -2 331 -2 257 -1 c 128,-1,7
 183 0 183 0 85 0 c 0,8,9
 65 3 65 3 58 15.5 c 128,-1,10
 51 28 51 28 55 42.5 c 128,-1,11
 59 57 59 57 72.5 69 c 128,-1,12
 86 81 86 81 106 82 c 0,13,14
 120 82 120 82 158.5 82 c 128,-1,15
 197 82 197 82 211 81 c 1,16,-1
 312 518 l 1,17,-1
 201 517 l 2,18,19
 181 520 181 520 174.5 532.5 c 128,-1,20
 168 545 168 545 171.5 559.5 c 128,-1,21
 175 574 175 574 188.5 586 c 128,-1,22
 202 598 202 598 223 599 c 1,23,24
 181 597 181 597 307 599 c 0,25,26
 362 596 362 596 421.5 600 c 128,-1,27
 481 604 481 604 521 602 c 1,28,29
 537 596 537 596 543 584 c 128,-1,30
 549 572 549 572 545.5 559.5 c 128,-1,31
 542 547 542 547 530 535.5 c 128,-1,32
 518 524 518 524 499 520 c 2,33,-1
 388 518 l 1,34,-1
 287 80 l 1,35,36
 299 80 299 80 338 80 c 128,-1,37
 377 80 377 80 390 81 c 0,0,1
EndSplineSet
EndChar

StartChar: J
Encoding: 74 74 41
Width: 500
Flags: W
LayerCount: 2
Fore
SplineSet
559 602 m 2,0,1
 578 601 578 601 586 588.5 c 128,-1,2
 594 576 594 576 589 561 c 0,3,4
 586 547 586 547 574.5 536 c 128,-1,5
 563 525 563 525 543 521 c 0,6,7
 526 520 526 520 504.5 520 c 128,-1,8
 483 520 483 520 467 520 c 1,9,-1
 385 160 l 2,10,11
 372 104 372 104 337 61 c 0,12,13
 320 40 320 40 298.5 23 c 128,-1,14
 277 6 277 6 253.5 -5.5 c 128,-1,15
 230 -17 230 -17 205.5 -23.5 c 128,-1,16
 181 -30 181 -30 158 -30 c 0,17,18
 126 -30 126 -30 111.5 -18.5 c 128,-1,19
 97 -7 97 -7 81 20 c 0,20,21
 79 23 79 23 74 34 c 128,-1,22
 69 45 69 45 64 57.5 c 128,-1,23
 59 70 59 70 55 81 c 128,-1,24
 51 92 51 92 51 94 c 0,25,26
 45 107 45 107 48 122 c 0,27,28
 52 138 52 138 64 149 c 128,-1,29
 76 160 76 160 92 160 c 0,30,31
 107 160 107 160 119 149 c 0,32,33
 125 140 125 140 128.5 130.5 c 128,-1,34
 132 121 132 121 134.5 111.5 c 128,-1,35
 137 102 137 102 138 95.5 c 128,-1,36
 139 89 139 89 144 75 c 0,37,38
 151 63 151 63 167.5 53 c 128,-1,39
 184 43 184 43 211.5 53 c 128,-1,40
 239 63 239 63 262 84 c 0,41,42
 270 90 270 90 274.5 95 c 128,-1,43
 279 100 279 100 282.5 104.5 c 128,-1,44
 286 109 286 109 289.5 114.5 c 128,-1,45
 293 120 293 120 298 128 c 0,46,47
 312 167 312 167 322 206 c 128,-1,48
 332 245 332 245 341 284 c 0,49,50
 347 311 347 311 353.5 340.5 c 128,-1,51
 360 370 360 370 367 401 c 128,-1,52
 374 432 374 432 380 462 c 128,-1,53
 386 492 386 492 391 519 c 1,54,55
 336 517 336 517 297 517 c 128,-1,56
 258 517 258 517 290 517 c 1,57,58
 272 520 272 520 264.5 532.5 c 128,-1,59
 257 545 257 545 262 559 c 0,60,61
 268 585 268 585 302 599 c 1,62,63
 392 600 392 600 428 600 c 128,-1,64
 464 600 464 600 555 602 c 2,65,-1
 559 602 l 2,0,1
EndSplineSet
EndChar

StartChar: K
Encoding: 75 75 42
Width: 500
Flags: W
LayerCount: 2
Fore
SplineSet
127 40 m 0,0,1
 121 17 121 17 107 5.5 c 128,-1,2
 93 -6 93 -6 79 -6 c 0,3,4
 66 -6 66 -6 56.5 5 c 128,-1,5
 47 16 47 16 49 38 c 0,6,7
 80 168 80 168 109.5 296 c 128,-1,8
 139 424 139 424 170 563 c 1,9,10
 179 583 179 583 191.5 593 c 128,-1,11
 204 603 204 603 217 603 c 0,12,13
 229 603 229 603 238 594 c 128,-1,14
 247 585 247 585 247 566 c 1,15,16
 234 509 234 509 221.5 457 c 128,-1,17
 209 405 209 405 195 347 c 1,18,19
 240 366 240 366 275 390 c 128,-1,20
 310 414 310 414 342 443.5 c 128,-1,21
 374 473 374 473 407.5 508.5 c 128,-1,22
 441 544 441 544 483 585 c 0,23,24
 501 598 501 598 517 598 c 0,25,26
 532 598 532 598 539.5 587 c 128,-1,27
 547 576 547 576 543 559 c 0,28,29
 541 550 541 550 533 537 c 1,30,31
 497 502 497 502 468 471.5 c 128,-1,32
 439 441 439 441 411 414 c 128,-1,33
 383 387 383 387 356 363.5 c 128,-1,34
 329 340 329 340 298 320 c 1,35,36
 338 257 338 257 378 195.5 c 128,-1,37
 418 134 418 134 457 71 c 0,38,39
 464 57 464 57 460 40 c 256,40,41
 456 23 456 23 443.5 12.5 c 128,-1,42
 431 2 431 2 416 2 c 0,43,44
 409 2 409 2 401 5.5 c 128,-1,45
 393 9 393 9 387 18 c 0,46,47
 382 26 382 26 369.5 46 c 128,-1,48
 357 66 357 66 340 92.5 c 128,-1,49
 323 119 323 119 304.5 148.5 c 128,-1,50
 286 178 286 178 269 204.5 c 128,-1,51
 252 231 252 231 239 251 c 128,-1,52
 226 271 226 271 222 279 c 1,53,54
 202 270 202 270 174 260 c 1,55,56
 161 202 161 202 149.5 149.5 c 128,-1,57
 138 97 138 97 127 40 c 0,0,1
EndSplineSet
EndChar

StartChar: L
Encoding: 76 76 43
Width: 500
Flags: W
LayerCount: 2
Fore
SplineSet
395 88 m 1,0,1
 411 82 411 82 416.5 70 c 128,-1,2
 422 58 422 58 419 45.5 c 128,-1,3
 416 33 416 33 404 21.5 c 128,-1,4
 392 10 392 10 373 6 c 0,5,6
 301 4 301 4 230.5 3.5 c 128,-1,7
 160 3 160 3 88 -8 c 1,8,9
 53 -4 53 -4 58 35 c 1,10,11
 88 167 88 167 119.5 298 c 128,-1,12
 151 429 151 429 182 562 c 1,13,14
 190 581 190 581 203 591 c 128,-1,15
 216 601 216 601 227.5 601.5 c 128,-1,16
 239 602 239 602 248 593 c 128,-1,17
 257 584 257 584 259 565 c 1,18,19
 230 441 230 441 201 319.5 c 128,-1,20
 172 198 172 198 143 74 c 1,21,22
 206 76 206 76 268.5 81 c 128,-1,23
 331 86 331 86 395 88 c 1,0,1
EndSplineSet
EndChar

StartChar: M
Encoding: 77 77 44
Width: 500
Flags: W
LayerCount: 2
Fore
SplineSet
442 34 m 1,0,1
 436 11 436 11 421.5 -0.5 c 128,-1,2
 407 -12 407 -12 393 -12 c 0,3,4
 380 -12 380 -12 370.5 -1.5 c 128,-1,5
 361 9 361 9 365 31 c 0,6,7
 378 91 378 91 390 136 c 1,8,9
 398 188 398 188 408 240 c 1,10,11
 411 284 411 284 420 322 c 1,12,13
 425 358 425 358 436 449 c 1,14,15
 414 399 414 399 393 353.5 c 128,-1,16
 372 308 372 308 353 265.5 c 128,-1,17
 334 223 334 223 312 190 c 1,18,19
 294 172 294 172 275 171 c 1,20,21
 256 178 256 178 251 194 c 1,22,23
 246 256 246 256 243.5 286.5 c 128,-1,24
 241 317 241 317 237 429 c 1,25,26
 221 381 221 381 204.5 328 c 128,-1,27
 188 275 188 275 171 221 c 128,-1,28
 154 167 154 167 137 114 c 128,-1,29
 120 61 120 61 105 13 c 1,30,31
 95 -4 95 -4 82.5 -12 c 128,-1,32
 70 -20 70 -20 59 -20 c 0,33,34
 46 -20 46 -20 37.5 -9 c 128,-1,35
 29 2 29 2 32 23 c 0,36,37
 52 87 52 87 74 155.5 c 128,-1,38
 96 224 96 224 118 293.5 c 128,-1,39
 140 363 140 363 162 432 c 128,-1,40
 184 501 184 501 204 565 c 0,41,42
 212 583 212 583 225 593 c 128,-1,43
 238 603 238 603 251 603 c 0,44,45
 271 603 271 603 280 581 c 1,46,47
 297 474 297 474 295.5 490 c 128,-1,48
 294 506 294 506 297 439.5 c 128,-1,49
 300 373 300 373 303 287 c 1,50,51
 317 321 317 321 345 388.5 c 128,-1,52
 373 456 373 456 390 494 c 128,-1,53
 407 532 407 532 439 584 c 0,54,55
 449 597 449 597 460 603 c 128,-1,56
 471 609 471 609 481 609 c 0,57,58
 492 609 492 609 500.5 601.5 c 128,-1,59
 509 594 509 594 513 576 c 0,60,61
 517 543 517 543 502.5 423.5 c 128,-1,62
 488 304 488 304 488.5 306 c 128,-1,63
 489 308 489 308 466.5 169 c 128,-1,64
 444 30 444 30 442 34 c 1,0,1
EndSplineSet
EndChar

StartChar: N
Encoding: 78 78 45
Width: 500
Flags: W
LayerCount: 2
Fore
SplineSet
469 586 m 1,0,1
 478 606 478 606 491 616 c 128,-1,2
 504 626 504 626 517 626 c 0,3,4
 529 626 529 626 537.5 617 c 128,-1,5
 546 608 546 608 546 589 c 1,6,7
 513 446 513 446 480.5 312 c 128,-1,8
 448 178 448 178 407 35 c 1,9,10
 408 34 l 1,11,-1
 407 34 l 1,12,13
 405 29 405 29 404 25.5 c 128,-1,14
 403 22 403 22 402 18 c 0,15,16
 393 2 393 2 381.5 -6 c 128,-1,17
 370 -14 370 -14 359 -14 c 0,18,19
 342 -14 342 -14 331 2 c 0,20,21
 330 6 330 6 328.5 9 c 128,-1,22
 327 12 327 12 326 15 c 2,23,-1
 325 15 l 1,24,-1
 326 17 l 1,25,26
 305 87 305 87 297.5 143.5 c 128,-1,27
 290 200 290 200 278 245 c 128,-1,28
 266 290 266 290 251 338.5 c 128,-1,29
 236 387 236 387 222 456 c 1,30,31
 210 403 210 403 198.5 353.5 c 128,-1,32
 187 304 187 304 175.5 253.5 c 128,-1,33
 164 203 164 203 152 148 c 128,-1,34
 140 93 140 93 125 29 c 0,35,36
 119 6 119 6 104.5 -5.5 c 128,-1,37
 90 -17 90 -17 76 -17 c 0,38,39
 63 -17 63 -17 54.5 -6.5 c 128,-1,40
 46 4 46 4 48 26 c 0,41,42
 79 161 79 161 110.5 299.5 c 128,-1,43
 142 438 142 438 173 573 c 1,44,45
 181 591 181 591 193.5 601 c 128,-1,46
 206 611 206 611 219 611 c 0,47,48
 232 610 232 610 245 600 c 1,49,50
 274 534 274 534 307.5 420.5 c 128,-1,51
 341 307 341 307 348 281 c 128,-1,52
 355 255 355 255 365 163 c 1,53,54
 394 273 394 273 418.5 374 c 128,-1,55
 443 475 443 475 469 586 c 1,0,1
EndSplineSet
EndChar

StartChar: O
Encoding: 79 79 46
Width: 500
Flags: W
LayerCount: 2
Fore
SplineSet
404 273 m 0,0,1
 410 293 410 293 416.5 312 c 128,-1,2
 423 331 423 331 428 352 c 0,3,4
 434 378 434 378 435.5 405 c 128,-1,5
 437 432 437 432 431 455 c 0,6,7
 420 498 420 498 406 523 c 128,-1,8
 392 548 392 548 361 545 c 0,9,10
 330 539 330 539 294 495.5 c 128,-1,11
 258 452 258 452 231 400 c 128,-1,12
 204 348 204 348 198 330 c 128,-1,13
 192 312 192 312 175 264 c 1,14,15
 166 215 166 215 166.5 177 c 128,-1,16
 167 139 167 139 176.5 115 c 128,-1,17
 186 91 186 91 193 81 c 0,18,19
 210 66 210 66 226 70 c 1,20,21
 244 70 244 70 253.5 71.5 c 128,-1,22
 263 73 263 73 283 88 c 0,23,24
 306 106 306 106 322 126 c 128,-1,25
 338 146 338 146 353 170 c 128,-1,26
 368 194 368 194 383.5 220 c 128,-1,27
 399 246 399 246 404 273 c 0,0,1
474 260 m 0,28,29
 463 223 463 223 441 183 c 128,-1,30
 419 143 419 143 394 109 c 128,-1,31
 369 75 369 75 339 49 c 128,-1,32
 309 23 309 23 280 9 c 0,33,34
 264 3 264 3 246.5 -3 c 128,-1,35
 229 -9 229 -9 213 -11 c 0,36,37
 188 -8 188 -8 173 -6 c 0,38,39
 138 9 138 9 122 40.5 c 128,-1,40
 106 72 106 72 98 107.5 c 128,-1,41
 90 143 90 143 92 183 c 128,-1,42
 94 223 94 223 103 263 c 0,43,44
 106 278 106 278 111 292.5 c 128,-1,45
 116 307 116 307 121 321 c 0,46,47
 133 353 133 353 151 391.5 c 128,-1,48
 169 430 169 430 191.5 467 c 128,-1,49
 214 504 214 504 238 534.5 c 128,-1,50
 262 565 262 565 287 587 c 0,51,52
 301 599 301 599 329 609 c 128,-1,53
 357 619 357 619 396 621 c 1,54,55
 449 613 449 613 470.5 585 c 128,-1,56
 492 557 492 557 506 492 c 0,57,58
 514 460 514 460 512.5 424.5 c 128,-1,59
 511 389 511 389 503 353 c 0,60,61
 498 330 498 330 490.5 306.5 c 128,-1,62
 483 283 483 283 474 260 c 0,28,29
EndSplineSet
EndChar

StartChar: P
Encoding: 80 80 47
Width: 500
Flags: W
LayerCount: 2
Fore
SplineSet
175 556 m 1,0,1
 184 576 184 576 196.5 585.5 c 128,-1,2
 209 595 209 595 222 595 c 0,3,4
 229 595 229 595 233 593 c 0,5,6
 272 610 272 610 309 620 c 128,-1,7
 346 630 346 630 361 630 c 0,8,9
 387 630 387 630 410.5 624.5 c 128,-1,10
 434 619 434 619 454 605 c 0,11,12
 476 591 476 591 491.5 569 c 128,-1,13
 507 547 507 547 514.5 520.5 c 128,-1,14
 522 494 522 494 523 464 c 128,-1,15
 524 434 524 434 517 404 c 0,16,17
 504 346 504 346 464 297 c 0,18,19
 422 246 422 246 370 215.5 c 128,-1,20
 318 185 318 185 259 180 c 0,21,22
 248 179 248 179 236 178.5 c 128,-1,23
 224 178 224 178 214 178 c 0,24,25
 199 178 199 178 188.5 181 c 128,-1,26
 178 184 178 184 166 187 c 1,27,28
 157 149 157 149 146 101 c 128,-1,29
 135 53 135 53 127 15 c 0,30,31
 121 -8 121 -8 106.5 -19.5 c 128,-1,32
 92 -31 92 -31 78 -31 c 0,33,34
 65 -31 65 -31 56.5 -20.5 c 128,-1,35
 48 -10 48 -10 50 12 c 2,36,-1
 113 288 l 1,37,-1
 175 556 l 1,0,1
401 533 m 0,38,39
 376 549 376 549 341 549 c 0,40,41
 308 547 308 547 289.5 539 c 128,-1,42
 271 531 271 531 242 516 c 1,43,-1
 185 270 l 1,44,45
 203 265 203 265 222 262.5 c 128,-1,46
 241 260 241 260 262 260 c 0,47,48
 282 260 282 260 318 272.5 c 128,-1,49
 354 285 354 285 380 308 c 0,50,51
 404 330 404 330 419 356 c 128,-1,52
 434 382 434 382 440 408 c 0,53,54
 449 446 449 446 439.5 479.5 c 128,-1,55
 430 513 430 513 401 533 c 0,38,39
EndSplineSet
EndChar

StartChar: Q
Encoding: 81 81 48
Width: 500
Flags: W
LayerCount: 2
Fore
SplineSet
421 13 m 0,0,1
 440 -1 440 -1 435 -26 c 0,2,3
 432 -41 432 -41 421.5 -52 c 128,-1,4
 411 -63 411 -63 396 -65 c 0,5,6
 383 -65 383 -65 375 -58 c 0,7,8
 341 -2 341 -2 314 30 c 0,9,10
 312 29 312 29 271 3 c 0,11,12
 255 -5 255 -5 242.5 -11 c 128,-1,13
 230 -17 230 -17 211 -17 c 0,14,15
 195 -20 195 -20 177 -13 c 0,16,17
 154 -6 154 -6 129.5 24 c 128,-1,18
 105 54 105 54 98 80 c 128,-1,19
 91 106 91 106 91.5 154.5 c 128,-1,20
 92 203 92 203 98 239 c 0,21,22
 100 254 100 254 104.5 268.5 c 128,-1,23
 109 283 109 283 112 297 c 0,24,25
 121 330 121 330 137.5 371 c 128,-1,26
 154 412 154 412 178 449.5 c 128,-1,27
 202 487 202 487 230 521.5 c 128,-1,28
 258 556 258 556 289 578 c 0,29,30
 311 593 311 593 345 606.5 c 128,-1,31
 379 620 379 620 427 599 c 128,-1,32
 475 578 475 578 499 514 c 0,33,34
 510 482 510 482 511.5 447 c 128,-1,35
 513 412 513 412 507 375 c 0,36,37
 501 327 501 327 485 280 c 0,38,39
 464 226 464 226 440 177.5 c 128,-1,40
 416 129 416 129 369 83 c 1,41,42
 384 60 384 60 399 41 c 128,-1,43
 414 22 414 22 421 13 c 0,0,1
330 143 m 1,44,45
 368 177 368 177 379.5 208.5 c 128,-1,46
 391 240 391 240 411 286 c 0,47,48
 417 306 417 306 422 326.5 c 128,-1,49
 427 347 427 347 430 367 c 0,50,51
 434 395 434 395 433 421 c 128,-1,52
 432 447 432 447 425 470 c 0,53,54
 410 512 410 512 387.5 524 c 128,-1,55
 365 536 365 536 313 506 c 1,56,57
 282 482 282 482 262.5 452 c 128,-1,58
 243 422 243 422 224 386 c 128,-1,59
 205 350 205 350 192.5 312 c 128,-1,60
 180 274 180 274 176 241 c 0,61,62
 169 206 169 206 168 162 c 128,-1,63
 167 118 167 118 180.5 96 c 128,-1,64
 194 74 194 74 216.5 60 c 128,-1,65
 239 46 239 46 279 85 c 1,66,67
 274 95 274 95 263 113 c 0,68,69
 257 127 257 127 244.5 140.5 c 128,-1,70
 232 154 232 154 229 164 c 128,-1,71
 226 174 226 174 228 189 c 0,72,73
 230 205 230 205 243.5 217 c 128,-1,74
 257 229 257 229 265 225 c 1,75,76
 279 226 279 226 290 210 c 0,77,78
 304 188 304 188 313.5 169.5 c 128,-1,79
 323 151 323 151 330 143 c 1,44,45
EndSplineSet
EndChar

StartChar: R
Encoding: 82 82 49
Width: 500
Flags: W
LayerCount: 2
Fore
SplineSet
141 29 m 1,0,1
 135 6 135 6 120.5 -5.5 c 128,-1,2
 106 -17 106 -17 92 -17 c 0,3,4
 79 -17 79 -17 70.5 -6.5 c 128,-1,5
 62 4 62 4 64 26 c 0,6,7
 170 478 170 478 186 556 c 0,8,9
 194 580 194 580 204 589 c 128,-1,10
 214 598 214 598 222 603 c 0,11,12
 268 628 268 628 300 634 c 128,-1,13
 332 640 332 640 347 638 c 0,14,15
 388 638 388 638 423 626 c 128,-1,16
 458 614 458 614 483 587 c 0,17,18
 513 555 513 555 521 517 c 128,-1,19
 529 479 529 479 520 439 c 0,20,21
 513 407 513 407 495.5 376 c 128,-1,22
 478 345 478 345 454 317.5 c 128,-1,23
 430 290 430 290 400.5 267.5 c 128,-1,24
 371 245 371 245 336 230 c 1,25,26
 361 187 361 187 391.5 139 c 128,-1,27
 422 91 422 91 447 49 c 0,28,29
 454 35 454 35 450 18 c 256,30,31
 446 1 446 1 433.5 -9.5 c 128,-1,32
 421 -20 421 -20 406 -20 c 0,33,34
 399 -20 399 -20 391 -16.5 c 128,-1,35
 383 -13 383 -13 377 -4 c 0,36,37
 373 3 373 3 363 19.5 c 128,-1,38
 353 36 353 36 340 56.5 c 128,-1,39
 327 77 327 77 313 100.5 c 128,-1,40
 299 124 299 124 286.5 144.5 c 128,-1,41
 274 165 274 165 263.5 181 c 128,-1,42
 253 197 253 197 250 204 c 1,43,44
 224 199 224 199 198 197 c 128,-1,45
 172 195 172 195 179 194 c 1,46,-1
 141 29 l 1,0,1
419 525 m 0,47,48
 401 542 401 542 376 549 c 128,-1,49
 351 556 351 556 323 556 c 0,50,51
 299 556 299 556 284 554 c 128,-1,52
 269 552 269 552 258 537 c 1,53,-1
 198 276 l 1,54,55
 234 278 234 278 254 282 c 128,-1,56
 274 286 274 286 312 300 c 0,57,58
 334 308 334 308 355.5 323 c 128,-1,59
 377 338 377 338 395.5 357 c 128,-1,60
 414 376 414 376 427 397.5 c 128,-1,61
 440 419 440 419 444 440 c 0,62,63
 449 463 449 463 444 485 c 128,-1,64
 439 507 439 507 419 525 c 0,47,48
EndSplineSet
EndChar

StartChar: S
Encoding: 83 83 50
Width: 500
Flags: W
LayerCount: 2
Fore
SplineSet
61 75 m 1,0,1
 59 89 59 89 62 101 c 0,2,3
 66 118 66 118 78 128.5 c 128,-1,4
 90 139 90 139 105 139 c 256,5,6
 120 139 120 139 131 128 c 1,7,8
 142 108 142 108 160 94.5 c 128,-1,9
 178 81 178 81 200 73.5 c 128,-1,10
 222 66 222 66 235.5 63.5 c 128,-1,11
 249 61 249 61 273 61 c 0,12,13
 292 59 292 59 299 64 c 128,-1,14
 306 69 306 69 310.5 71 c 128,-1,15
 315 73 315 73 320.5 77 c 128,-1,16
 326 81 326 81 341 91 c 0,17,18
 347 98 347 98 352 104 c 128,-1,19
 357 110 357 110 364 117 c 2,20,-1
 378 144 l 2,21,22
 380 151 380 151 381.5 157.5 c 128,-1,23
 383 164 383 164 384 172 c 0,24,25
 384 179 384 179 382.5 185.5 c 128,-1,26
 381 192 381 192 380 199 c 0,27,28
 376 206 376 206 372 212 c 128,-1,29
 368 218 368 218 365 225 c 0,30,31
 358 230 358 230 350.5 236 c 128,-1,32
 343 242 343 242 334 245 c 0,33,34
 299 259 299 259 276.5 264.5 c 128,-1,35
 254 270 254 270 227.5 278.5 c 128,-1,36
 201 287 201 287 180 305 c 128,-1,37
 159 323 159 323 144 363 c 0,38,39
 141 371 141 371 141.5 375 c 128,-1,40
 142 379 142 379 143 389 c 0,41,42
 144 397 144 397 145 404.5 c 128,-1,43
 146 412 146 412 148 419 c 0,44,45
 152 437 152 437 158.5 451 c 128,-1,46
 165 465 165 465 174.5 478 c 128,-1,47
 184 491 184 491 197.5 504.5 c 128,-1,48
 211 518 211 518 228 534 c 0,49,50
 248 552 248 552 271.5 563.5 c 128,-1,51
 295 575 295 575 318.5 581.5 c 128,-1,52
 342 588 342 588 358 590.5 c 128,-1,53
 374 593 374 593 396 593 c 0,54,55
 403 593 403 593 409.5 593 c 128,-1,56
 416 593 416 593 422 592 c 0,57,58
 443 590 443 590 460 581 c 128,-1,59
 477 572 477 572 496 566 c 1,60,61
 514 550 514 550 509 527 c 0,62,63
 506 512 506 512 492 500.5 c 128,-1,64
 478 489 478 489 459 489 c 0,65,66
 457 489 457 489 455 489.5 c 128,-1,67
 453 490 453 490 451 490 c 0,68,69
 424 500 424 500 402 505.5 c 128,-1,70
 380 511 380 511 359 511 c 1,71,72
 334 506 334 506 320 503 c 128,-1,73
 306 500 306 500 268 476 c 0,74,75
 261 468 261 468 253.5 461.5 c 128,-1,76
 246 455 246 455 239 448 c 0,77,78
 235 442 235 442 231.5 436 c 128,-1,79
 228 430 228 430 224 424 c 0,80,81
 223 418 223 418 222 412 c 128,-1,82
 221 406 221 406 221 401 c 0,83,84
 224 396 224 396 225.5 391 c 128,-1,85
 227 386 227 386 229 381 c 2,86,-1
 262 359 l 1,87,88
 289 350 289 350 304 345 c 128,-1,89
 319 340 319 340 339.5 333.5 c 128,-1,90
 360 327 360 327 380 318 c 128,-1,91
 400 309 400 309 421 294 c 0,92,93
 432 286 432 286 438.5 273.5 c 128,-1,94
 445 261 445 261 451 250 c 0,95,96
 461 231 461 231 463 207 c 128,-1,97
 465 183 465 183 459 157 c 0,98,99
 451 121 451 121 430 87 c 128,-1,100
 409 53 409 53 379 31 c 0,101,102
 369 23 369 23 358.5 16.5 c 128,-1,103
 348 10 348 10 339 4 c 0,104,105
 316 -10 316 -10 290 -17 c 128,-1,106
 264 -24 264 -24 237 -24 c 0,107,108
 206 -24 206 -24 185 -16.5 c 128,-1,109
 164 -9 164 -9 138.5 4.5 c 128,-1,110
 113 18 113 18 93 36 c 128,-1,111
 73 54 73 54 61 75 c 1,0,1
EndSplineSet
EndChar

StartChar: T
Encoding: 84 84 51
Width: 500
Flags: W
LayerCount: 2
Fore
SplineSet
545 593 m 0,0,1
 560 587 560 587 565.5 575 c 128,-1,2
 571 563 571 563 567 550 c 0,3,4
 563 536 563 536 551.5 525.5 c 128,-1,5
 540 515 540 515 520 511 c 1,6,-1
 390 513 l 1,7,-1
 279 25 l 2,8,9
 273 2 273 2 258.5 -9.5 c 128,-1,10
 244 -21 244 -21 230 -21 c 0,11,12
 217 -21 217 -21 208 -10.5 c 128,-1,13
 199 0 199 0 202 22 c 2,14,-1
 314 513 l 1,15,-1
 178 517 l 2,16,17
 159 521 159 521 152.5 533.5 c 128,-1,18
 146 546 146 546 150 560 c 0,19,20
 154 575 154 575 168 587 c 128,-1,21
 182 599 182 599 203 599 c 0,22,23
 214 599 214 599 242.5 599 c 128,-1,24
 271 599 271 599 301 598 c 128,-1,25
 331 597 331 597 374.5 596 c 128,-1,26
 418 595 418 595 454.5 593.5 c 128,-1,27
 491 592 491 592 512.5 592.5 c 128,-1,28
 534 593 534 593 545 593 c 0,0,1
EndSplineSet
EndChar

StartChar: U
Encoding: 85 85 52
Width: 500
Flags: W
LayerCount: 2
Fore
SplineSet
475 575 m 1,0,1
 484 595 484 595 496.5 605 c 128,-1,2
 509 615 509 615 522 615 c 0,3,4
 534 615 534 615 543 606 c 128,-1,5
 552 597 552 597 552 578 c 1,6,7
 537 515 537 515 518.5 445.5 c 128,-1,8
 500 376 500 376 478.5 310.5 c 128,-1,9
 457 245 457 245 433 187.5 c 128,-1,10
 409 130 409 130 382 90 c 0,11,12
 363 66 363 66 342 48 c 128,-1,13
 321 30 321 30 290.5 18 c 128,-1,14
 260 6 260 6 237.5 0 c 128,-1,15
 215 -6 215 -6 206 -4 c 0,16,17
 162 -4 162 -4 149.5 5 c 128,-1,18
 137 14 137 14 126.5 24.5 c 128,-1,19
 116 35 116 35 107 58.5 c 128,-1,20
 98 82 98 82 99 110 c 0,21,22
 95 158 95 158 102 215.5 c 128,-1,23
 109 273 109 273 121.5 334 c 128,-1,24
 134 395 134 395 149 455 c 128,-1,25
 164 515 164 515 176 568 c 1,26,27
 185 588 185 588 197.5 598 c 128,-1,28
 210 608 210 608 223 608 c 0,29,30
 235 608 235 608 243.5 599 c 128,-1,31
 252 590 252 590 253 571 c 1,32,33
 245 538 245 538 234.5 495.5 c 128,-1,34
 224 453 224 453 213 407.5 c 128,-1,35
 202 362 202 362 192.5 316.5 c 128,-1,36
 183 271 183 271 178 231 c 128,-1,37
 173 191 173 191 172.5 161 c 128,-1,38
 172 131 172 131 180 107 c 1,39,40
 194 85 194 85 200 81 c 128,-1,41
 206 77 206 77 229 77 c 0,42,43
 257 77 257 77 282 91 c 128,-1,44
 307 105 307 105 326 133 c 0,45,46
 337 149 337 149 353.5 180 c 128,-1,47
 370 211 370 211 384 251 c 128,-1,48
 398 291 398 291 411.5 336.5 c 128,-1,49
 425 382 425 382 437 426 c 128,-1,50
 449 470 449 470 458.5 509 c 128,-1,51
 468 548 468 548 475 575 c 1,0,1
EndSplineSet
EndChar

StartChar: V
Encoding: 86 86 53
Width: 500
Flags: W
LayerCount: 2
Fore
SplineSet
498 585 m 1,0,1
 519 611 519 611 540 611 c 0,2,3
 554 611 554 611 563 600 c 128,-1,4
 572 589 572 589 567 571 c 0,5,6
 565 562 565 562 558 549 c 0,7,8
 481 400 481 400 413 290 c 128,-1,9
 345 180 345 180 272 21 c 0,10,11
 263 5 263 5 248 -5 c 128,-1,12
 233 -15 233 -15 222 -15 c 0,13,14
 212 -15 212 -15 203.5 -8 c 128,-1,15
 195 -1 195 -1 192 13 c 0,16,17
 174 150 174 150 158 286 c 128,-1,18
 142 422 142 422 154 557 c 0,19,20
 154 559 154 559 154.5 561.5 c 128,-1,21
 155 564 155 564 155 566 c 0,22,23
 160 587 160 587 173.5 598.5 c 128,-1,24
 187 610 187 610 201 610 c 0,25,26
 222 610 222 610 232 587 c 1,27,28
 241 520 241 520 235 465.5 c 128,-1,29
 229 411 229 411 235.5 357.5 c 128,-1,30
 242 304 242 304 245.5 250 c 128,-1,31
 249 196 249 196 256 136 c 1,32,33
 272 174 272 174 287 201.5 c 128,-1,34
 302 229 302 229 316 256 c 0,35,36
 368 350 368 350 413 430.5 c 128,-1,37
 458 511 458 511 498 585 c 1,0,1
EndSplineSet
EndChar

StartChar: W
Encoding: 87 87 54
Width: 500
Flags: W
LayerCount: 2
Fore
SplineSet
512 590 m 0,0,1
 521 610 521 610 534 619.5 c 128,-1,2
 547 629 547 629 560 629 c 0,3,4
 574 629 574 629 582.5 617.5 c 128,-1,5
 591 606 591 606 585 582 c 2,6,-1
 584 578 l 1,7,8
 556 503 556 503 540 453.5 c 128,-1,9
 524 404 524 404 481 281 c 0,10,11
 456 211 456 211 422 138.5 c 128,-1,12
 388 66 388 66 359 3 c 1,13,14
 340 -15 340 -15 329 -15 c 0,15,16
 310 -11 310 -11 311 7 c 0,17,18
 303 67 303 67 305 115 c 128,-1,19
 307 163 307 163 307.5 197.5 c 128,-1,20
 308 232 308 232 313 280 c 1,21,22
 301 262 301 262 287 234 c 128,-1,23
 273 206 273 206 242.5 138 c 128,-1,24
 212 70 212 70 170 -2 c 1,25,26
 151 -21 151 -21 150 -19 c 0,27,28
 127 -19 127 -19 120 9 c 0,29,30
 110 99 110 99 115 187 c 0,31,32
 116 225 116 225 118.5 268.5 c 128,-1,33
 121 312 121 312 123 358 c 256,34,35
 125 404 125 404 129.5 456 c 128,-1,36
 134 508 134 508 140 553 c 0,37,38
 142 571 142 571 147 578 c 0,39,40
 151 595 151 595 164 606 c 128,-1,41
 177 617 177 617 191 617 c 0,42,43
 200 617 200 617 208.5 612 c 128,-1,44
 217 607 217 607 222 595 c 1,45,46
 216 547 216 547 210.5 487.5 c 128,-1,47
 205 428 205 428 201 390 c 0,48,49
 196 320 196 320 192 290 c 128,-1,50
 188 260 188 260 193 174 c 1,51,52
 210 211 210 211 225.5 238.5 c 128,-1,53
 241 266 241 266 254 299 c 0,54,55
 273 345 273 345 286 368.5 c 128,-1,56
 299 392 299 392 310 407 c 0,57,58
 315 416 315 416 345 432 c 1,59,60
 365 429 365 429 372 413 c 0,61,62
 382 402 382 402 377.5 340 c 128,-1,63
 373 278 373 278 372.5 268 c 128,-1,64
 372 258 372 258 371 238 c 128,-1,65
 370 218 370 218 371 194 c 1,66,67
 386 230 386 230 392.5 250 c 128,-1,68
 399 270 399 270 414 304 c 0,69,70
 445 380 445 380 464.5 449 c 128,-1,71
 484 518 484 518 512 590 c 0,0,1
EndSplineSet
EndChar

StartChar: X
Encoding: 88 88 55
Width: 500
Flags: W
LayerCount: 2
Fore
SplineSet
491 601 m 1,0,1
 509 615 509 615 524 613 c 0,2,3
 539 613 539 613 546.5 602 c 128,-1,4
 554 591 554 591 550 574 c 0,5,6
 548 565 548 565 540 552 c 0,7,8
 496 488 496 488 449 426.5 c 128,-1,9
 402 365 402 365 349 293 c 1,10,11
 366 235 366 235 394 162 c 128,-1,12
 422 89 422 89 435 51 c 0,13,14
 436 42 436 42 434 33 c 0,15,16
 430 15 430 15 417 4 c 128,-1,17
 404 -7 404 -7 389 -7 c 0,18,19
 371 -7 371 -7 360 9 c 1,20,21
 336 73 336 73 324.5 115 c 128,-1,22
 313 157 313 157 290 223 c 1,23,24
 229 161 229 161 195 114.5 c 128,-1,25
 161 68 161 68 98 7 c 1,26,27
 82 -2 82 -2 71 -4 c 0,28,29
 55 -4 55 -4 47.5 6.5 c 128,-1,30
 40 17 40 17 44 34 c 0,31,32
 47 48 47 48 59 63 c 0,33,34
 120 139 120 139 167.5 191.5 c 128,-1,35
 215 244 215 244 258 298 c 1,36,37
 230 368 230 368 211 432 c 128,-1,38
 192 496 192 496 177 542 c 0,39,40
 170 550 170 550 169.5 559.5 c 128,-1,41
 169 569 169 569 171 577 c 0,42,43
 175 593 175 593 187 604 c 128,-1,44
 199 615 199 615 215 615 c 0,45,46
 231 614 231 614 241 604 c 1,47,48
 264 546 264 546 280.5 490 c 128,-1,49
 297 434 297 434 321 370 c 1,50,51
 373 439 373 439 404 482.5 c 128,-1,52
 435 526 435 526 491 601 c 1,0,1
EndSplineSet
EndChar

StartChar: Y
Encoding: 89 89 56
Width: 500
Flags: W
LayerCount: 2
Fore
SplineSet
276 37 m 0,0,1
 270 14 270 14 255.5 2.5 c 128,-1,2
 241 -9 241 -9 227 -9 c 0,3,4
 214 -9 214 -9 205.5 1.5 c 128,-1,5
 197 12 197 12 199 34 c 0,6,7
 213 95 213 95 226.5 155.5 c 128,-1,8
 240 216 240 216 255 278 c 1,9,10
 220 348 220 348 189 414 c 128,-1,11
 158 480 158 480 144 554 c 0,12,13
 144 556 144 556 143.5 561 c 128,-1,14
 143 566 143 566 143 568 c 0,15,16
 148 589 148 589 161.5 600.5 c 128,-1,17
 175 612 175 612 188 612 c 0,18,19
 209 611 209 611 219 589 c 0,20,21
 238 533 238 533 258.5 473.5 c 128,-1,22
 279 414 279 414 309 352 c 1,23,24
 363 412 363 412 414.5 469.5 c 128,-1,25
 466 527 466 527 517 590 c 0,26,27
 528 604 528 604 539 610 c 128,-1,28
 550 616 550 616 560 616 c 0,29,30
 574 616 574 616 582.5 605 c 128,-1,31
 591 594 591 594 587 576 c 0,32,33
 585 567 585 567 577 554 c 0,34,35
 512 476 512 476 454 412 c 128,-1,36
 396 348 396 348 335 280 c 1,37,-1
 330 276 l 1,38,39
 316 216 316 216 302.5 156.5 c 128,-1,40
 289 97 289 97 276 37 c 0,0,1
EndSplineSet
EndChar

StartChar: Z
Encoding: 90 90 57
Width: 500
Flags: W
LayerCount: 2
Fore
SplineSet
177 262 m 0,0,1
 157 265 157 265 150 277 c 128,-1,2
 143 289 143 289 146 303 c 256,3,4
 149 317 149 317 163 330.5 c 128,-1,5
 177 344 177 344 199 344 c 0,6,7
 210 344 210 344 236.5 344 c 128,-1,8
 263 344 263 344 276.5 344.5 c 128,-1,9
 290 345 290 345 316.5 345 c 128,-1,10
 343 345 343 345 437 345 c 5,11,12
 454 340 454 340 459.5 328.5 c 132,-1,13
 465 317 465 317 462 304 c 4,14,15
 459 290 459 290 447 279 c 132,-1,16
 435 268 435 268 415 263 c 5,17,18
 371 262 371 262 269 262 c 0,19,20
 177 262 l 0,0,1
257 280 m 1024,21,-1
397 362 m 0,22,23
 356 307 356 307 321 249 c 1024,24,-1
266 318 m 1024,25,-1
399 373 m 0,26,27
 331 300 331 300 286 234 c 1025,28,-1
74 -3 m 2,29,30
 53 -3 53 -3 48 17 c 0,31,32
 44 26 44 26 47 37 c 256,33,34
 50 48 50 48 57 57 c 0,35,36
 58 59 58 59 59 61 c 128,-1,37
 60 63 60 63 63 65 c 0,38,39
 190 206 190 206 281.5 317.5 c 128,-1,40
 373 429 373 429 453 535 c 1,41,42
 400 535 400 535 367 535 c 128,-1,43
 334 535 334 535 281 533 c 0,44,45
 270 533 270 533 243.5 532 c 128,-1,46
 217 531 217 531 205 533 c 0,47,48
 185 536 185 536 177 546 c 128,-1,49
 169 556 169 556 173 570 c 0,50,51
 176 585 176 585 189.5 597.5 c 128,-1,52
 203 610 203 610 225 611 c 0,53,54
 252 609 252 609 277.5 609 c 128,-1,55
 303 609 303 609 329 609 c 0,56,57
 400 609 400 609 433.5 611 c 128,-1,58
 467 613 467 613 537 613 c 1,59,60
 567 602 567 602 560 573 c 0,61,62
 558 565 558 565 553.5 557 c 128,-1,63
 549 549 549 549 541 541 c 0,64,65
 483 446 483 446 414.5 373 c 128,-1,66
 346 300 346 300 301 234 c 1,67,68
 274 206 274 206 236 161.5 c 128,-1,69
 198 117 198 117 159 82 c 1,70,-1
 195 82 l 2,71,72
 201 82 201 82 223.5 79.5 c 128,-1,73
 246 77 246 77 276 77 c 0,74,75
 309 75 309 75 342 80 c 128,-1,76
 375 85 375 85 411 94 c 1,77,-1
 412 94 l 2,78,79
 432 96 432 96 440 84.5 c 128,-1,80
 448 73 448 73 446 58 c 0,81,82
 443 47 443 47 435.5 37 c 128,-1,83
 428 27 428 27 413 19 c 1,84,85
 390 13 390 13 368.5 8 c 128,-1,86
 347 3 347 3 325 1 c 0,87,88
 312 -1 312 -1 298.5 -1 c 128,-1,89
 285 -1 285 -1 272 -1 c 0,90,91
 225 -1 225 -1 211 1.5 c 128,-1,92
 197 4 197 4 178 4 c 0,93,94
 147 4 147 4 125 3 c 128,-1,95
 103 2 103 2 78 -3 c 1,96,-1
 74 -3 l 2,29,30
EndSplineSet
EndChar

StartChar: bracketleft
Encoding: 91 91 58
Width: 500
Flags: W
LayerCount: 2
Fore
SplineSet
342 -4 m 1,0,1
 358 -10 358 -10 364 -22 c 128,-1,2
 370 -34 370 -34 366.5 -46.5 c 128,-1,3
 363 -59 363 -59 351 -70.5 c 128,-1,4
 339 -82 339 -82 321 -86 c 1,5,6
 294 -86 294 -86 252 -85 c 128,-1,7
 210 -84 210 -84 183 -84 c 0,8,9
 148 -80 148 -80 153 -41 c 1,10,-1
 325 701 l 1,11,12
 334 721 334 721 346 730 c 128,-1,13
 358 739 358 739 377 740 c 2,14,-1
 514 740 l 1,15,16
 530 734 530 734 536 722 c 128,-1,17
 542 710 542 710 538.5 697.5 c 128,-1,18
 535 685 535 685 523 673.5 c 128,-1,19
 511 662 511 662 492 658 c 1,20,-1
 391 658 l 1,21,-1
 238 -3 l 1,22,-1
 342 -4 l 1,0,1
EndSplineSet
EndChar

StartChar: backslash
Encoding: 92 92 59
Width: 500
Flags: W
LayerCount: 2
Fore
SplineSet
211 643 m 0,0,1
 211 645 211 645 211.5 647.5 c 128,-1,2
 212 650 212 650 212 652 c 0,3,4
 217 673 217 673 230.5 684.5 c 128,-1,5
 244 696 244 696 258 696 c 0,6,7
 279 696 279 696 289 673 c 1,8,9
 319 502 319 502 350.5 334.5 c 128,-1,10
 382 167 382 167 413 -4 c 0,11,12
 414 -13 414 -13 412 -22 c 0,13,14
 408 -41 408 -41 394.5 -52 c 128,-1,15
 381 -63 381 -63 367 -63 c 0,16,17
 357 -63 357 -63 348 -56 c 128,-1,18
 339 -49 339 -49 336 -34 c 0,19,20
 332 -14 332 -14 322.5 38.5 c 128,-1,21
 313 91 313 91 300 159.5 c 128,-1,22
 287 228 287 228 273.5 304.5 c 128,-1,23
 260 381 260 381 247 449.5 c 128,-1,24
 234 518 234 518 224.5 570.5 c 128,-1,25
 215 623 215 623 211 643 c 0,0,1
EndSplineSet
EndChar

StartChar: bracketright
Encoding: 93 93 60
Width: 500
Flags: W
LayerCount: 2
Fore
SplineSet
105 -3 m 1,0,1
 86 -9 86 -9 74.5 -21 c 128,-1,2
 63 -33 63 -33 61 -45.5 c 128,-1,3
 59 -58 59 -58 65.5 -69.5 c 128,-1,4
 72 -81 72 -81 89 -85 c 1,5,6
 116 -85 116 -85 163 -85 c 128,-1,7
 210 -85 210 -85 237 -85 c 0,8,9
 274 -81 274 -81 287 -42 c 1,10,-1
 459 700 l 1,11,12
 459 720 459 720 451 729 c 128,-1,13
 443 738 443 738 425 739 c 2,14,-1
 276 739 l 1,15,16
 257 733 257 733 246 721 c 128,-1,17
 235 709 235 709 232.5 696.5 c 128,-1,18
 230 684 230 684 236.5 672.5 c 128,-1,19
 243 661 243 661 260 657 c 1,20,-1
 372 657 l 1,21,-1
 220 -4 l 1,22,-1
 105 -3 l 1,0,1
EndSplineSet
EndChar

StartChar: asciicircum
Encoding: 94 94 61
Width: 500
Flags: W
LayerCount: 2
Fore
SplineSet
505 410 m 0,0,1
 499 386 499 386 489 379.5 c 128,-1,2
 479 373 479 373 457 373 c 0,3,4
 431 373 431 373 422 398 c 1,5,-1
 353 520 l 1,6,-1
 225 401 l 2,7,8
 204 378 204 378 180 378 c 0,9,10
 158 378 158 378 151 384.5 c 128,-1,11
 144 391 144 391 150 415 c 0,12,13
 154 434 154 434 170 450 c 0,14,15
 234 503 234 503 305 574 c 1,16,17
 348 611 348 611 375 611 c 0,18,19
 401 611 401 611 426 572 c 0,20,21
 444 542 444 542 502 444 c 0,22,23
 509 428 509 428 505 410 c 0,0,1
EndSplineSet
EndChar

StartChar: underscore
Encoding: 95 95 62
Width: 500
Flags: W
LayerCount: 2
Fore
SplineSet
25 -82 m 1,0,1
 5 -80 5 -80 -2 -67.5 c 128,-1,2
 -9 -55 -9 -55 -6 -41 c 0,3,4
 -3 -26 -3 -26 11 -14 c 128,-1,5
 25 -2 25 -2 46 0 c 2,6,-1
 427 0 l 1,7,8
 444 -5 444 -5 449.5 -17 c 128,-1,9
 455 -29 455 -29 452 -41 c 0,10,11
 449 -55 449 -55 437 -66 c 128,-1,12
 425 -77 425 -77 405 -82 c 1,13,-1
 25 -82 l 1,0,1
EndSplineSet
EndChar

StartChar: grave
Encoding: 96 96 63
Width: 500
Flags: W
LayerCount: 2
Fore
SplineSet
341 603 m 0,0,1
 371 571 371 571 402 535.5 c 128,-1,2
 433 500 433 500 447 479 c 0,3,4
 458 458 458 458 450.5 442 c 128,-1,5
 443 426 443 426 429 414 c 128,-1,6
 415 402 415 402 397 398 c 128,-1,7
 379 394 379 394 370 403 c 0,8,9
 357 421 357 421 327 454.5 c 128,-1,10
 297 488 297 488 265 527 c 1,11,12
 257 545 257 545 262.5 564 c 128,-1,13
 268 583 268 583 280 595 c 0,14,15
 314 627 314 627 341 603 c 0,0,1
EndSplineSet
EndChar

StartChar: a
Encoding: 97 97 64
Width: 500
Flags: W
LayerCount: 2
Fore
SplineSet
414 44 m 0,0,1
 414 43 414 43 413 43 c 1,2,3
 415 29 415 29 409.5 17 c 128,-1,4
 404 5 404 5 395 -2.5 c 128,-1,5
 386 -10 386 -10 374 -12 c 128,-1,6
 362 -14 362 -14 350 -6 c 1,7,8
 344 3 344 3 339.5 18.5 c 128,-1,9
 335 34 335 34 332 45 c 1,10,11
 310 32 310 32 290.5 17 c 128,-1,12
 271 2 271 2 248 -7 c 1,13,14
 213 -9 213 -9 169 -11 c 128,-1,15
 125 -13 125 -13 100 12 c 0,16,17
 80 33 80 33 73.5 62 c 128,-1,18
 67 91 67 91 72.5 125 c 128,-1,19
 78 159 78 159 90.5 201 c 128,-1,20
 103 243 103 243 114 261 c 0,21,22
 127 283 127 283 133 294.5 c 128,-1,23
 139 306 139 306 149 318 c 0,24,25
 165 344 165 344 183.5 360 c 128,-1,26
 202 376 202 376 216 385 c 0,27,28
 229 395 229 395 242.5 404 c 128,-1,29
 256 413 256 413 270 420 c 0,30,31
 282 426 282 426 306 432 c 128,-1,32
 330 438 330 438 350 441.5 c 128,-1,33
 370 445 370 445 389 443 c 128,-1,34
 408 441 408 441 420 435 c 0,35,36
 433 429 433 429 443 424 c 128,-1,37
 453 419 453 419 454 399 c 1,38,39
 438 331 438 331 421.5 262 c 128,-1,40
 405 193 405 193 398 125 c 0,41,42
 397 116 397 116 399.5 103.5 c 128,-1,43
 402 91 402 91 405.5 79 c 128,-1,44
 409 67 409 67 412 57 c 128,-1,45
 415 47 415 47 414 44 c 0,0,1
323 121 m 0,46,47
 325 123 325 123 326 123.5 c 128,-1,48
 327 124 327 124 329 125 c 0,49,50
 331 185 331 185 344.5 245.5 c 128,-1,51
 358 306 358 306 372 360 c 1,52,53
 364 367 364 367 353.5 365.5 c 128,-1,54
 343 364 343 364 332 361 c 128,-1,55
 321 358 321 358 317.5 356 c 128,-1,56
 314 354 314 354 301 351 c 0,57,58
 282 343 282 343 244.5 319.5 c 128,-1,59
 207 296 207 296 186.5 266 c 128,-1,60
 166 236 166 236 154.5 200.5 c 128,-1,61
 143 165 143 165 142 134 c 0,62,63
 142 126 142 126 143 118 c 128,-1,64
 144 110 144 110 143 102 c 0,65,66
 146 97 146 97 149.5 91 c 128,-1,67
 153 85 153 85 157 80 c 0,68,69
 164 76 164 76 171 73 c 128,-1,70
 178 70 178 70 185 67 c 0,71,72
 200 67 200 67 222.5 66.5 c 128,-1,73
 245 66 245 66 259 71 c 1,74,75
 274 81 274 81 289.5 91 c 128,-1,76
 305 101 305 101 323 121 c 0,46,47
EndSplineSet
EndChar

StartChar: b
Encoding: 98 98 65
Width: 500
Flags: W
LayerCount: 2
Fore
SplineSet
118 16 m 0,0,1
 101 6 101 6 88 7.5 c 128,-1,2
 75 9 75 9 69 18 c 128,-1,3
 63 27 63 27 65.5 42 c 128,-1,4
 68 57 68 57 80 74 c 1,5,-1
 83 77 l 1,6,-1
 203 597 l 1,7,8
 211 616 211 616 223.5 626 c 128,-1,9
 236 636 236 636 247.5 636.5 c 128,-1,10
 259 637 259 637 267.5 628 c 128,-1,11
 276 619 276 619 277 600 c 1,12,-1
 222 362 l 1,13,14
 246 383 246 383 270 395 c 1,15,16
 297 413 297 413 312 417 c 128,-1,17
 327 421 327 421 337 423 c 0,18,19
 360 427 360 427 378 418 c 128,-1,20
 396 409 396 409 412 396 c 0,21,22
 433 379 433 379 439 349 c 128,-1,23
 445 319 445 319 442 284.5 c 128,-1,24
 439 250 439 250 430 214.5 c 128,-1,25
 421 179 421 179 410 151 c 0,26,27
 405 135 405 135 395.5 120.5 c 128,-1,28
 386 106 386 106 376 92 c 0,29,30
 357 64 357 64 332 44.5 c 128,-1,31
 307 25 307 25 278.5 13.5 c 128,-1,32
 250 2 250 2 222 -2.5 c 128,-1,33
 194 -7 194 -7 188 -6 c 0,34,35
 169 -4 169 -4 151.5 1 c 128,-1,36
 134 6 134 6 120 18 c 1,37,38
 119 17 119 17 118 16 c 0,0,1
194 238 m 1,39,-1
 161 98 l 2,40,41
 163 96 163 96 169 92 c 0,42,43
 170 90 170 90 171.5 89 c 128,-1,44
 173 88 173 88 175 86 c 0,45,46
 215 66 215 66 249 79.5 c 128,-1,47
 283 93 283 93 324 135 c 1,48,49
 338 159 338 159 346.5 179.5 c 128,-1,50
 355 200 355 200 360 220.5 c 128,-1,51
 365 241 365 241 366 262 c 128,-1,52
 367 283 367 283 365 307 c 0,53,54
 362 312 362 312 360.5 317.5 c 128,-1,55
 359 323 359 323 356 328 c 0,56,57
 352 330 352 330 348.5 333 c 128,-1,58
 345 336 345 336 342 338 c 0,59,60
 338 339 338 339 333 340 c 128,-1,61
 328 341 328 341 324 342 c 0,62,63
 281 334 281 334 257.5 309 c 128,-1,64
 234 284 234 284 202 246 c 1,65,-1
 194 238 l 1,39,-1
EndSplineSet
EndChar

StartChar: c
Encoding: 99 99 66
Width: 500
Flags: W
LayerCount: 2
Fore
SplineSet
323 105 m 0,0,1
 341 119 341 119 355 118 c 128,-1,2
 369 117 369 117 375 107 c 128,-1,3
 381 97 381 97 378.5 80.5 c 128,-1,4
 376 64 376 64 360 47 c 0,5,6
 323 11 323 11 281 -4 c 128,-1,7
 239 -19 239 -19 193 -12 c 128,-1,8
 147 -5 147 -5 121.5 23 c 128,-1,9
 96 51 96 51 92 99 c 0,10,11
 89 126 89 126 91.5 156 c 128,-1,12
 94 186 94 186 102 215 c 0,13,14
 116 263 116 263 144 311.5 c 128,-1,15
 172 360 172 360 209.5 396 c 128,-1,16
 247 432 247 432 290 448.5 c 128,-1,17
 333 465 333 465 395 447 c 0,18,19
 416 438 416 438 432 425 c 128,-1,20
 448 412 448 412 461 392 c 0,21,22
 467 376 467 376 463 361 c 128,-1,23
 459 346 459 346 450 336.5 c 128,-1,24
 441 327 441 327 427.5 324 c 128,-1,25
 414 321 414 321 401 330 c 1,26,27
 380 363 380 363 355 369.5 c 128,-1,28
 330 376 330 376 295 364.5 c 128,-1,29
 260 353 260 353 236.5 326.5 c 128,-1,30
 213 300 213 300 196 266.5 c 128,-1,31
 179 233 179 233 170.5 196.5 c 128,-1,32
 162 160 162 160 167 129 c 0,33,34
 171 101 171 101 184.5 86 c 128,-1,35
 198 71 198 71 217.5 68.5 c 128,-1,36
 237 66 237 66 269.5 75 c 128,-1,37
 302 84 302 84 323 105 c 0,0,1
EndSplineSet
EndChar

StartChar: d
Encoding: 100 100 67
Width: 500
Flags: W
LayerCount: 2
Fore
SplineSet
404 71 m 0,0,1
 411 53 411 53 405 36.5 c 128,-1,2
 399 20 399 20 387.5 10.5 c 128,-1,3
 376 1 376 1 361.5 1.5 c 128,-1,4
 347 2 347 2 337 18 c 0,5,6
 334 23 334 23 331.5 28.5 c 128,-1,7
 329 34 329 34 328 39 c 1,8,9
 296 13 296 13 258.5 -1.5 c 128,-1,10
 221 -16 221 -16 192.5 -14.5 c 128,-1,11
 164 -13 164 -13 135 5 c 128,-1,12
 106 23 106 23 92 58 c 0,13,14
 82 85 82 85 82.5 118.5 c 128,-1,15
 83 152 83 152 91 186.5 c 128,-1,16
 99 221 99 221 114 254.5 c 128,-1,17
 129 288 129 288 147 317 c 0,18,19
 163 343 163 343 187.5 364 c 128,-1,20
 212 385 212 385 236 398 c 0,21,22
 259 411 259 411 286.5 418 c 128,-1,23
 314 425 314 425 324 423 c 0,24,25
 345 423 345 423 365.5 422 c 128,-1,26
 386 421 386 421 404 414 c 1,27,28
 420 486 420 486 431 535.5 c 128,-1,29
 442 585 442 585 446 602 c 0,30,31
 454 621 454 621 466.5 631 c 128,-1,32
 479 641 479 641 490 641.5 c 128,-1,33
 501 642 501 642 510 633 c 128,-1,34
 519 624 519 624 519 605 c 1,35,-1
 399 82 l 2,36,37
 400 79 400 79 401.5 76.5 c 128,-1,38
 403 74 403 74 404 71 c 0,0,1
343 143 m 1,39,-1
 346 157 l 2,40,41
 355 194 355 194 365 238.5 c 128,-1,42
 375 283 375 283 383 323 c 1,43,-1
 379 326 l 2,44,45
 377 328 377 328 375 330 c 128,-1,46
 373 332 373 332 371 334 c 0,47,48
 347 343 347 343 319 342 c 128,-1,49
 291 341 291 341 270 331 c 128,-1,50
 249 321 249 321 223.5 300.5 c 128,-1,51
 198 280 198 280 182 246 c 0,52,53
 168 215 168 215 164.5 192 c 128,-1,54
 161 169 161 169 158 138 c 0,55,56
 160 130 160 130 160.5 122 c 128,-1,57
 161 114 161 114 163 106 c 2,58,-1
 175 86 l 1,59,60
 184 82 184 82 189 75 c 1,61,62
 222 71 222 71 249 76.5 c 128,-1,63
 276 82 276 82 309 109 c 0,64,65
 310 111 310 111 314 114.5 c 128,-1,66
 318 118 318 118 322.5 122 c 128,-1,67
 327 126 327 126 330.5 129.5 c 128,-1,68
 334 133 334 133 335 134 c 2,69,-1
 343 143 l 1,39,-1
EndSplineSet
EndChar

StartChar: e
Encoding: 101 101 68
Width: 500
Flags: W
LayerCount: 2
Fore
SplineSet
364 122 m 0,0,1
 384 130 384 130 395.5 124.5 c 128,-1,2
 407 119 407 119 409.5 106.5 c 128,-1,3
 412 94 412 94 405 78.5 c 128,-1,4
 398 63 398 63 379 53 c 0,5,6
 346 35 346 35 310 20 c 128,-1,7
 274 5 274 5 239 -1 c 128,-1,8
 204 -7 204 -7 179.5 -0.5 c 128,-1,9
 155 6 155 6 130 28 c 0,10,11
 100 56 100 56 92 103 c 128,-1,12
 84 150 84 150 95 201 c 128,-1,13
 106 252 106 252 134.5 299 c 128,-1,14
 163 346 163 346 207 374 c 0,15,16
 253 403 253 403 296.5 418 c 128,-1,17
 340 433 340 433 385 422 c 0,18,19
 407 416 407 416 421.5 397.5 c 128,-1,20
 436 379 436 379 442 355 c 128,-1,21
 448 331 448 331 442.5 303.5 c 128,-1,22
 437 276 437 276 419 253 c 0,23,24
 398 226 398 226 366.5 207.5 c 128,-1,25
 335 189 335 189 300 176 c 128,-1,26
 265 163 265 163 230.5 155 c 128,-1,27
 196 147 196 147 183 141 c 0,28,29
 172 139 172 139 165 138 c 1,30,31
 171 108 171 108 191.5 88 c 128,-1,32
 212 68 212 68 237 71 c 0,33,34
 267 73 267 73 301 89.5 c 128,-1,35
 335 106 335 106 364 122 c 0,0,1
258 325 m 1,36,37
 222 307 222 307 199 274 c 128,-1,38
 176 241 176 241 168 205 c 1,39,40
 184 213 184 213 182 213 c 1,41,42
 200 219 200 219 210.5 221.5 c 128,-1,43
 221 224 221 224 237 233 c 0,44,45
 246 237 246 237 265.5 242 c 128,-1,46
 285 247 285 247 305.5 254.5 c 128,-1,47
 326 262 326 262 344 272 c 128,-1,48
 362 282 362 282 370 294 c 1,49,50
 379 325 379 325 366 337 c 128,-1,51
 353 349 353 349 331.5 349 c 128,-1,52
 310 349 310 349 285.5 341 c 128,-1,53
 261 333 261 333 258 325 c 1,36,37
EndSplineSet
EndChar

StartChar: f
Encoding: 102 102 69
Width: 500
Flags: W
LayerCount: 2
Fore
SplineSet
243 29 m 1,0,1
 237 6 237 6 223 -5.5 c 128,-1,2
 209 -17 209 -17 196 -17 c 0,3,4
 184 -17 184 -17 175.5 -6.5 c 128,-1,5
 167 4 167 4 169 26 c 2,6,-1
 235 310 l 1,7,-1
 154 310 l 2,8,9
 136 313 136 313 130 325 c 128,-1,10
 124 337 124 337 127 351 c 256,11,12
 130 365 130 365 143 378.5 c 128,-1,13
 156 392 156 392 176 392 c 2,14,-1
 254 392 l 1,15,-1
 267 452 l 2,16,17
 275 487 275 487 291.5 517 c 128,-1,18
 308 547 308 547 330 568.5 c 128,-1,19
 352 590 352 590 378 602 c 128,-1,20
 404 614 404 614 433 614 c 0,21,22
 448 617 448 617 472.5 609.5 c 128,-1,23
 497 602 497 602 511.5 591.5 c 128,-1,24
 526 581 526 581 536.5 567.5 c 128,-1,25
 547 554 547 554 543 536 c 0,26,27
 539 520 539 520 527 509 c 128,-1,28
 515 498 515 498 501 498 c 0,29,30
 494 501 494 501 484 503 c 128,-1,31
 474 505 474 505 467.5 515 c 128,-1,32
 461 525 461 525 449.5 527 c 128,-1,33
 438 529 438 529 414 532 c 0,34,35
 392 532 392 532 374 514.5 c 128,-1,36
 356 497 356 497 342 459 c 1,37,-1
 327 394 l 1,38,39
 351 395 351 395 379 395.5 c 128,-1,40
 407 396 407 396 432 397 c 1,41,42
 447 392 447 392 452 380.5 c 128,-1,43
 457 369 457 369 454 356 c 0,44,45
 449 336 449 336 432.5 327 c 128,-1,46
 416 318 416 318 394 315 c 128,-1,47
 372 312 372 312 349 312.5 c 128,-1,48
 326 313 326 313 308 312 c 1,49,-1
 243 29 l 1,0,1
EndSplineSet
EndChar

StartChar: g
Encoding: 103 103 70
Width: 500
Flags: W
LayerCount: 2
Fore
SplineSet
30 -167 m 1,0,1
 22 -154 22 -154 23.5 -139 c 128,-1,2
 25 -124 25 -124 33 -113 c 128,-1,3
 41 -102 41 -102 54 -96.5 c 128,-1,4
 67 -91 67 -91 82 -97 c 0,5,6
 92 -104 92 -104 98.5 -109.5 c 128,-1,7
 105 -115 105 -115 111.5 -119.5 c 128,-1,8
 118 -124 118 -124 125.5 -127 c 128,-1,9
 133 -130 133 -130 143 -133 c 0,10,11
 157 -137 157 -137 175.5 -137 c 128,-1,12
 194 -137 194 -137 212.5 -132 c 128,-1,13
 231 -127 231 -127 248.5 -116 c 128,-1,14
 266 -105 266 -105 279 -87 c 0,15,16
 288 -75 288 -75 292.5 -58 c 128,-1,17
 297 -41 297 -41 300 -27 c 2,18,-1
 320 56 l 1,19,20
 310 46 310 46 292 34 c 128,-1,21
 274 22 274 22 254 12 c 1,22,23
 232 7 232 7 211 5.5 c 128,-1,24
 190 4 190 4 171 9 c 0,25,26
 129 18 129 18 106.5 51 c 128,-1,27
 84 84 84 84 79.5 129 c 128,-1,28
 75 174 75 174 83 211.5 c 128,-1,29
 91 249 91 249 116 294 c 0,30,31
 136 330 136 330 166.5 360 c 128,-1,32
 197 390 197 390 230 407.5 c 128,-1,33
 263 425 263 425 297 428 c 128,-1,34
 331 431 331 431 359 414 c 0,35,36
 381 400 381 400 399 383 c 1,37,38
 408 397 408 397 419 403.5 c 128,-1,39
 430 410 430 410 440 408.5 c 128,-1,40
 450 407 450 407 457.5 398 c 128,-1,41
 465 389 465 389 465 372 c 1,42,-1
 374 -24 l 2,43,44
 362 -78 362 -78 339 -116.5 c 128,-1,45
 316 -155 316 -155 269 -185 c 0,46,47
 250 -197 250 -197 229 -206 c 128,-1,48
 208 -215 208 -215 189 -217 c 0,49,50
 146 -223 146 -223 110 -213 c 0,51,52
 84 -206 84 -206 67.5 -194.5 c 128,-1,53
 51 -183 51 -183 30 -167 c 1,0,1
335 148 m 0,54,55
 339 150 339 150 342 151 c 2,56,-1
 372 283 l 1,57,58
 371 283 371 283 371 284 c 0,59,60
 358 303 358 303 340.5 320 c 128,-1,61
 323 337 323 337 301 345 c 1,62,63
 291 344 291 344 280 343 c 128,-1,64
 269 342 269 342 259 341 c 0,65,66
 251 337 251 337 243 333 c 128,-1,67
 235 329 235 329 227 325 c 0,68,69
 172 274 172 274 156 221 c 128,-1,70
 140 168 140 168 156 131 c 0,71,72
 159 125 159 125 163 119 c 128,-1,73
 167 113 167 113 170 107 c 0,74,75
 247 70 247 70 335 148 c 0,54,55
EndSplineSet
EndChar

StartChar: h
Encoding: 104 104 71
Width: 500
Flags: W
LayerCount: 2
Fore
SplineSet
135 31 m 1,0,1
 129 9 129 9 116 -2.5 c 128,-1,2
 103 -14 103 -14 90 -14.5 c 128,-1,3
 77 -15 77 -15 68 -4.5 c 128,-1,4
 59 6 59 6 62 28 c 2,5,-1
 190 584 l 1,6,7
 198 603 198 603 210.5 613 c 128,-1,8
 223 623 223 623 234.5 623.5 c 128,-1,9
 246 624 246 624 254.5 615 c 128,-1,10
 263 606 263 606 264 587 c 1,11,-1
 203 323 l 1,12,13
 224 356 224 356 236 371 c 0,14,15
 263 397 263 397 281.5 410 c 128,-1,16
 300 423 300 423 321 428 c 0,17,18
 338 433 338 433 353.5 430 c 128,-1,19
 369 427 369 427 383 422 c 0,20,21
 407 413 407 413 421 393 c 128,-1,22
 435 373 435 373 441.5 346.5 c 128,-1,23
 448 320 448 320 447 290 c 128,-1,24
 446 260 446 260 434 216 c 0,25,26
 424 168 424 168 413 121.5 c 128,-1,27
 402 75 402 75 391 27 c 0,28,29
 385 5 385 5 372 -6.5 c 128,-1,30
 359 -18 359 -18 346.5 -18.5 c 128,-1,31
 334 -19 334 -19 326 -8.5 c 128,-1,32
 318 2 318 2 320 24 c 0,33,34
 331 72 331 72 342 118.5 c 128,-1,35
 353 165 353 165 363 213 c 0,36,37
 370 249 370 249 369.5 286 c 128,-1,38
 369 323 369 323 346 343 c 0,39,40
 333 356 333 356 307 342 c 0,41,42
 282 329 282 329 265 311 c 0,43,44
 249 296 249 296 218 259 c 0,45,46
 194 232 194 232 174 196 c 1,47,-1
 135 31 l 1,0,1
EndSplineSet
EndChar

StartChar: i
Encoding: 105 105 72
Width: 500
Flags: W
LayerCount: 2
Fore
SplineSet
295 625 m 0,0,1
 315 625 315 625 328.5 607 c 128,-1,2
 342 589 342 589 337 565 c 0,3,4
 331 540 331 540 309.5 523.5 c 128,-1,5
 288 507 288 507 268 507 c 0,6,7
 248 507 248 507 235.5 523.5 c 128,-1,8
 223 540 223 540 229 565 c 0,9,10
 235 589 235 589 255 607 c 128,-1,11
 275 625 275 625 295 625 c 0,0,1
211 90 m 0,12,13
 217 75 217 75 228.5 76 c 128,-1,14
 240 77 240 77 271 94 c 0,15,16
 287 102 287 102 301 110 c 0,17,18
 333 124 333 124 345 92 c 0,19,20
 348 83 348 83 344.5 67.5 c 128,-1,21
 341 52 341 52 327 43 c 0,22,23
 293 20 293 20 258.5 5 c 128,-1,24
 224 -10 224 -10 195 -7 c 0,25,26
 169 -3 169 -3 157 8 c 128,-1,27
 145 19 145 19 139 31 c 0,28,29
 130 52 130 52 131 68 c 0,30,31
 134 95 134 95 142 130 c 0,32,33
 175 271 175 271 194 353 c 0,34,35
 207 411 207 411 209 421 c 0,36,37
 217 435 217 435 226.5 440 c 128,-1,38
 236 445 236 445 249.5 446.5 c 128,-1,39
 263 448 263 448 274 441 c 128,-1,40
 285 434 285 434 282 418 c 0,41,42
 235 215 235 215 220 146 c 0,43,44
 215 124 215 124 213 116 c 0,45,46
 207 100 207 100 211 90 c 0,12,13
EndSplineSet
EndChar

StartChar: j
Encoding: 106 106 73
Width: 500
Flags: W
LayerCount: 2
Fore
SplineSet
22 -121 m 1,0,1
 20 -108 20 -108 23 -96 c 0,2,3
 27 -79 27 -79 38.5 -68 c 128,-1,4
 50 -57 50 -57 63 -57 c 0,5,6
 76 -58 76 -58 87 -68 c 0,7,8
 93 -76 93 -76 96 -83.5 c 128,-1,9
 99 -91 99 -91 100 -94 c 128,-1,10
 101 -97 101 -97 106.5 -105.5 c 128,-1,11
 112 -114 112 -114 123 -120 c 256,12,13
 136 -120 136 -120 191 -120 c 1,14,15
 217 -112 217 -112 230.5 -90 c 128,-1,16
 244 -68 244 -68 250 -42 c 0,17,18
 261 -4 261 -4 351 420 c 0,19,20
 354 441 354 441 365.5 451 c 128,-1,21
 377 461 377 461 395.5 461.5 c 128,-1,22
 414 462 414 462 421.5 451.5 c 128,-1,23
 429 441 429 441 423 417 c 2,24,-1
 322 -45 l 2,25,26
 311 -85 311 -85 300 -105.5 c 128,-1,27
 289 -126 289 -126 273 -146 c 0,28,29
 263 -160 263 -160 250.5 -169 c 128,-1,30
 238 -178 238 -178 224 -186 c 0,31,32
 196 -203 196 -203 111 -203 c 1,33,34
 75 -199 75 -199 60.5 -181 c 128,-1,35
 46 -163 46 -163 22 -121 c 1,0,1
437 636 m 0,36,37
 457 636 457 636 470 618 c 128,-1,38
 483 600 483 600 477 576 c 0,39,40
 471 551 471 551 450.5 534 c 128,-1,41
 430 517 430 517 409 517 c 0,42,43
 388 517 388 517 374.5 534 c 128,-1,44
 361 551 361 551 367 576 c 0,45,46
 373 600 373 600 394.5 618 c 128,-1,47
 416 636 416 636 437 636 c 0,36,37
EndSplineSet
EndChar

StartChar: k
Encoding: 107 107 74
Width: 500
Flags: W
LayerCount: 2
Fore
SplineSet
138 36 m 1,0,1
 132 14 132 14 119 2.5 c 128,-1,2
 106 -9 106 -9 93 -9.5 c 128,-1,3
 80 -10 80 -10 71 0.5 c 0,4,5
 60.3199494151 12.6364211192 60.3199494151 12.6364211192 65 33 c 2,6,-1
 196 603 l 1,7,8
 204 622 204 622 216.5 632 c 128,-1,9
 229 642 229 642 240.5 642.5 c 128,-1,10
 252 643 252 643 260.5 634 c 128,-1,11
 269 625 269 625 270 606 c 1,12,-1
 202 313 l 1,13,14
 230 316 230 316 262.5 337 c 128,-1,15
 295 358 295 358 320 378 c 128,-1,16
 345 398 345 398 370.5 420 c 128,-1,17
 396 442 396 442 424 464 c 0,18,19
 442 478 442 478 456 477 c 128,-1,20
 470 476 470 476 476 466 c 128,-1,21
 482 456 482 456 479 439.5 c 128,-1,22
 476 423 476 423 461 406 c 0,23,24
 418 362 418 362 377 333.5 c 128,-1,25
 336 305 336 305 300 279 c 1,26,27
 330 222 330 222 357.5 171.5 c 128,-1,28
 385 121 385 121 415 64 c 0,29,-1
 422 51 l 0,30,31
 427 43 427 43 430 43 c 0,32,33
 443.857142857 43 443.857142857 43 467 79 c 2,34,-1
 494 121 l 1,35,-1
 497 53 l 1,36,37
 462 -10 462 -10 430 -25 c 0,38,39
 400 -39 400 -39 387 -21 c 0,40,41
 356 22 356 22 325 65 c 0,42,-1
 290 123 l 4,43,44
 258 182 258 182 260 179 c 128,-1,45
 262 176 262 176 230 234 c 1,46,47
 213 230 213 230 203.5 226 c 128,-1,48
 194 222 194 222 181 220 c 1,49,-1
 138 36 l 1,0,1
EndSplineSet
EndChar

StartChar: l
Encoding: 108 108 75
Width: 500
Flags: W
LayerCount: 2
Fore
SplineSet
219 58 m 0,0,1
 228 46 228 46 265 65 c 0,2,3
 285 79 285 79 306 94 c 128,-1,4
 327 109 327 109 340 112 c 0,5,6
 359 114 359 114 367.5 96 c 128,-1,7
 376 78 376 78 358 52 c 1,8,9
 330 26 330 26 291.5 -0.5 c 128,-1,10
 253 -27 253 -27 205 -29 c 0,11,12
 185 -27 185 -27 168.5 -16 c 128,-1,13
 152 -5 152 -5 144 9 c 1,14,15
 134 42 134 42 137 68 c 0,16,17
 141 92 141 92 145 109 c 0,18,19
 154 149 154 149 188 292 c 0,20,21
 223 452 223 452 260 600 c 0,22,23
 267 616 267 616 278.5 623 c 128,-1,24
 290 630 290 630 304.5 632 c 128,-1,25
 319 634 319 634 329 623 c 128,-1,26
 339 612 339 612 336 600 c 0,27,28
 288 399 288 399 267 305 c 0,29,30
 235 168 235 168 219 96 c 0,31,32
 212 62 212 62 219 58 c 0,0,1
EndSplineSet
EndChar

StartChar: m
Encoding: 109 109 76
Width: 500
Flags: W
LayerCount: 2
Fore
SplineSet
219 222 m 0,0,1
 213 249 213 249 201 283.5 c 128,-1,2
 189 318 189 318 185 332 c 1,3,4
 178 302 178 302 159 217 c 0,5,6
 127 73 127 73 116 35 c 0,7,8
 109 13 109 13 95.5 1 c 128,-1,9
 82 -11 82 -11 69 -11 c 0,10,11
 57 -11 57 -11 48.5 -0.5 c 128,-1,12
 40 10 40 10 42 32 c 0,13,14
 83 210 83 210 102 292 c 0,15,16
 109 326 109 326 110 330 c 0,17,18
 129 426 129 426 146 438 c 1,19,20
 163 460 163 460 189 463 c 128,-1,21
 215 466 215 466 224 453 c 0,22,23
 231 444 231 444 237 428 c 0,24,25
 247 398 247 398 258 362 c 128,-1,26
 269 326 269 326 284 269 c 1,27,28
 326 330 326 330 352 363 c 128,-1,29
 378 396 378 396 389 406 c 0,30,31
 422 428 422 428 445.5 428 c 128,-1,32
 469 428 469 428 478 407 c 128,-1,33
 487 386 487 386 482 358 c 128,-1,34
 477 330 477 330 471 306 c 2,35,-1
 406 24 l 2,36,37
 400 1 400 1 386 -10.5 c 128,-1,38
 372 -22 372 -22 359 -22 c 0,39,40
 347 -22 347 -22 338.5 -11.5 c 128,-1,41
 330 -1 330 -1 332 21 c 2,42,-1
 396 293 l 2,43,44
 400 305 400 305 401 317 c 1,45,46
 397 311 397 311 373 284 c 0,47,48
 364 274 364 274 307 201 c 1,49,50
 281 175 281 175 259 173 c 0,51,52
 241 171 241 171 228 194 c 0,53,54
 223 204 223 204 219 222 c 0,0,1
EndSplineSet
EndChar

StartChar: n
Encoding: 110 110 77
Width: 500
Flags: W
LayerCount: 2
Fore
SplineSet
387 29 m 1,0,1
 381 7 381 7 367 -3.5 c 128,-1,2
 353 -14 353 -14 340 -14 c 0,3,4
 328 -14 328 -14 319.5 -4 c 128,-1,5
 311 6 311 6 313 26 c 0,6,7
 323 69 323 69 332.5 112 c 128,-1,8
 342 155 342 155 352 199 c 0,9,10
 359 230 359 230 366.5 261 c 128,-1,11
 374 292 374 292 377 323 c 1,12,13
 373 337 373 337 366 340.5 c 128,-1,14
 359 344 359 344 348 344 c 0,15,16
 323 350 323 350 276 309 c 128,-1,17
 229 268 229 268 180 220 c 1,18,19
 172 207 172 207 169 196 c 128,-1,20
 166 185 166 185 158 156 c 0,21,22
 147 108 147 108 145 94.5 c 128,-1,23
 143 81 143 81 133 33 c 0,24,25
 127 11 127 11 113.5 0.5 c 128,-1,26
 100 -10 100 -10 87 -10 c 0,27,28
 75 -10 75 -10 66.5 0 c 128,-1,29
 58 10 58 10 60 30 c 0,30,31
 70 75 70 75 80 118 c 128,-1,32
 90 161 90 161 99 202.5 c 128,-1,33
 108 244 108 244 118 287 c 128,-1,34
 128 330 128 330 139 376 c 1,35,36
 148 396 148 396 160 406 c 128,-1,37
 172 416 172 416 184 416 c 0,38,39
 196 416 196 416 204 407 c 128,-1,40
 212 398 212 398 199 341 c 2,41,-1
 191 310 l 1,42,43
 223 341 223 341 271 384.5 c 128,-1,44
 319 428 319 428 363 427 c 0,45,46
 395 427 395 427 419.5 410.5 c 128,-1,47
 444 394 444 394 453 358 c 0,48,49
 456 346 456 346 454 327 c 128,-1,50
 452 308 452 308 447.5 287.5 c 128,-1,51
 443 267 443 267 437.5 246 c 128,-1,52
 432 225 432 225 427 206 c 2,53,-1
 401 93 l 1,54,-1
 387 29 l 1,0,1
EndSplineSet
EndChar

StartChar: o
Encoding: 111 111 78
Width: 500
Flags: W
LayerCount: 2
Fore
SplineSet
111 264 m 2,0,1
 128 296 128 296 149 326.5 c 128,-1,2
 170 357 170 357 194.5 382 c 128,-1,3
 219 407 219 407 248 425 c 128,-1,4
 277 443 277 443 309 451 c 0,5,6
 362 464 362 464 394 442 c 128,-1,7
 426 420 426 420 439 379 c 128,-1,8
 452 338 452 338 447.5 285.5 c 128,-1,9
 443 233 443 233 420 185 c 0,10,11
 393 126 393 126 349 75 c 128,-1,12
 305 24 305 24 250 1 c 0,13,14
 209 -16 209 -16 176 -11.5 c 128,-1,15
 143 -7 143 -7 120.5 14 c 128,-1,16
 98 35 98 35 87 69 c 128,-1,17
 76 103 76 103 79 146 c 0,18,19
 81 173 81 173 88 199 c 128,-1,20
 95 225 95 225 106 251 c 2,21,-1
 111 264 l 2,0,1
175 241 m 0,22,23
 167 220 167 220 161.5 202.5 c 128,-1,24
 156 185 156 185 154 163 c 0,25,26
 150 136 150 136 157 114.5 c 128,-1,27
 164 93 164 93 178.5 81.5 c 128,-1,28
 193 70 193 70 214 70.5 c 128,-1,29
 235 71 235 71 260 86 c 0,30,31
 293 106 293 106 317 138 c 128,-1,32
 341 170 341 170 358 207 c 0,33,34
 372 237 372 237 376 271 c 128,-1,35
 380 305 380 305 372 331 c 128,-1,36
 364 357 364 357 344 368.5 c 128,-1,37
 324 380 324 380 289 365 c 0,38,39
 251 348 251 348 223 314 c 128,-1,40
 195 280 195 280 175 241 c 0,22,23
EndSplineSet
EndChar

StartChar: p
Encoding: 112 112 79
Width: 500
Flags: W
LayerCount: 2
Fore
SplineSet
147 404 m 1,0,1
 156 424 156 424 168 434 c 128,-1,2
 180 444 180 444 193 444 c 0,3,4
 205 444 205 444 212.5 435 c 128,-1,5
 220 426 220 426 221 407 c 1,6,-1
 218 398 l 1,7,8
 243 418 243 418 270.5 427.5 c 128,-1,9
 298 437 298 437 323 437 c 0,10,11
 357 437 357 437 381.5 420 c 128,-1,12
 406 403 406 403 421 374 c 128,-1,13
 436 345 436 345 439.5 306.5 c 128,-1,14
 443 268 443 268 432 224 c 0,15,16
 421 176 421 176 398.5 136 c 128,-1,17
 376 96 376 96 343.5 67 c 128,-1,18
 311 38 311 38 268.5 21.5 c 128,-1,19
 226 5 226 5 175 5 c 0,20,21
 163 5 163 5 151.5 6 c 128,-1,22
 140 7 140 7 129 9 c 1,23,-1
 80 -202 l 2,24,25
 74 -225 74 -225 60 -236.5 c 128,-1,26
 46 -248 46 -248 33 -248 c 0,27,28
 21 -248 21 -248 12.5 -237.5 c 128,-1,29
 4 -227 4 -227 6 -205 c 2,30,-1
 147 404 l 1,0,1
202 291 m 0,31,32
 200 288 200 288 197 285.5 c 128,-1,33
 194 283 194 283 191 281 c 2,34,-1
 148 92 l 1,35,36
 159 89 159 89 170 87 c 128,-1,37
 181 85 181 85 193 85 c 0,38,39
 222 85 222 85 249 94 c 128,-1,40
 276 103 276 103 298.5 120 c 128,-1,41
 321 137 321 137 337 162 c 128,-1,42
 353 187 353 187 360 219 c 0,43,44
 366 243 366 243 365 267.5 c 128,-1,45
 364 292 364 292 357 312 c 128,-1,46
 350 332 350 332 337.5 344.5 c 128,-1,47
 325 357 325 357 307 357 c 0,48,49
 292 357 292 357 278 351 c 128,-1,50
 264 345 264 345 250.5 335.5 c 128,-1,51
 237 326 237 326 224.5 314.5 c 128,-1,52
 212 303 212 303 202 291 c 0,31,32
EndSplineSet
EndChar

StartChar: q
Encoding: 113 113 80
Width: 500
Flags: W
LayerCount: 2
Fore
SplineSet
333 -205 m 1,0,1
 327 -227 327 -227 314 -238.5 c 128,-1,2
 301 -250 301 -250 288 -250.5 c 128,-1,3
 275 -251 275 -251 266 -240.5 c 128,-1,4
 257 -230 257 -230 260 -208 c 2,5,-1
 312 19 l 1,6,7
 278 5 278 5 246 2 c 0,8,9
 227 0 227 0 199 1.5 c 128,-1,10
 171 3 171 3 155 9 c 0,11,12
 114 23 114 23 97.5 58 c 128,-1,13
 81 93 81 93 82.5 137.5 c 128,-1,14
 84 182 84 182 100.5 230.5 c 128,-1,15
 117 279 117 279 142 321 c 0,16,17
 161 353 161 353 187 376 c 128,-1,18
 213 399 213 399 243.5 413.5 c 128,-1,19
 274 428 274 428 305 434 c 128,-1,20
 336 440 336 440 375 437 c 0,21,22
 403 434 403 434 422 421 c 1,23,24
 439 432 439 432 454.5 425 c 128,-1,25
 470 418 470 418 471 392 c 1,26,-1
 333 -205 l 1,0,1
176 98 m 0,27,28
 208 81 208 81 251.5 83.5 c 128,-1,29
 295 86 295 86 333 109 c 1,30,-1
 385 336 l 1,31,32
 381 339 381 339 382 343 c 0,33,34
 364 353 364 353 341 355 c 128,-1,35
 318 357 318 357 289 350 c 128,-1,36
 260 343 260 343 238 327 c 128,-1,37
 216 311 216 311 199 286 c 0,38,39
 177 253 177 253 168.5 215 c 128,-1,40
 160 177 160 177 156 141 c 0,41,42
 158 135 158 135 159.5 128.5 c 128,-1,43
 161 122 161 122 163 115 c 0,44,45
 166 110 166 110 169.5 106.5 c 128,-1,46
 173 103 173 103 176 98 c 0,27,28
EndSplineSet
EndChar

StartChar: r
Encoding: 114 114 81
Width: 500
Flags: W
LayerCount: 2
Fore
SplineSet
156 328 m 0,0,1
 145 336 145 336 138.5 349 c 128,-1,2
 132 362 132 362 134 373 c 0,3,4
 137 388 137 388 150 399.5 c 128,-1,5
 163 411 163 411 179 411 c 0,6,7
 191 411 191 411 210.5 399 c 128,-1,8
 230 387 230 387 234 365 c 1,9,10
 267 391 267 391 300.5 413 c 128,-1,11
 334 435 334 435 416 435 c 0,12,13
 425 435 425 435 439.5 430 c 128,-1,14
 454 425 454 425 468 415 c 128,-1,15
 482 405 482 405 490 389 c 128,-1,16
 498 373 498 373 493 352 c 0,17,18
 489 335 489 335 477.5 324.5 c 128,-1,19
 466 314 466 314 452 314 c 0,20,21
 443 314 443 314 437 320.5 c 128,-1,22
 431 327 431 327 425.5 334.5 c 128,-1,23
 420 342 420 342 412.5 346.5 c 128,-1,24
 405 351 405 351 396 357 c 0,25,26
 376 369 376 369 337.5 354 c 128,-1,27
 299 339 299 339 284 325.5 c 128,-1,28
 269 312 269 312 251 298 c 128,-1,29
 233 284 233 284 220 267 c 1,30,-1
 165 27 l 2,31,32
 159 5 159 5 145.5 -5.5 c 128,-1,33
 132 -16 132 -16 119 -16 c 0,34,35
 107 -16 107 -16 98.5 -6 c 128,-1,36
 90 4 90 4 92 24 c 2,37,-1
 151 280 l 2,38,39
 151 282 151 282 151 284.5 c 128,-1,40
 151 287 151 287 152 289 c 256,41,42
 152 291 152 291 153 293 c 128,-1,43
 154 295 154 295 155 297 c 2,44,-1
 161 325 l 1,45,46
 158 327 158 327 156 328 c 0,0,1
EndSplineSet
EndChar

StartChar: s
Encoding: 115 115 82
Width: 500
Flags: W
LayerCount: 2
Fore
SplineSet
80 89 m 0,0,1
 76 107 76 107 82.5 121.5 c 128,-1,2
 89 136 89 136 99 144.5 c 128,-1,3
 109 153 109 153 122.5 152.5 c 128,-1,4
 136 152 136 152 148 142 c 0,5,6
 164 121 164 121 186 95 c 128,-1,7
 208 69 208 69 272 73 c 1,8,-1
 292 79 l 2,9,10
 301 85 301 85 304 87 c 128,-1,11
 307 89 307 89 308.5 90.5 c 128,-1,12
 310 92 310 92 313 95 c 128,-1,13
 316 98 316 98 323 106 c 0,14,15
 326 110 326 110 327.5 113 c 128,-1,16
 329 116 329 116 332 127 c 128,-1,17
 335 138 335 138 336 143 c 0,18,19
 337 157 337 157 335 161 c 0,20,21
 330 169 330 169 325 172 c 0,22,23
 304 186 304 186 272 192.5 c 128,-1,24
 240 199 240 199 217.5 208.5 c 128,-1,25
 195 218 195 218 177.5 230 c 128,-1,26
 160 242 160 242 149 269 c 0,27,28
 138 290 138 290 144 317 c 128,-1,29
 150 344 150 344 166.5 369.5 c 128,-1,30
 183 395 183 395 210.5 420 c 128,-1,31
 238 445 238 445 261 449 c 0,32,33
 298 457 298 457 351.5 447.5 c 128,-1,34
 405 438 405 438 434 418 c 0,35,36
 447 405 447 405 446 388.5 c 128,-1,37
 445 372 445 372 435.5 360 c 128,-1,38
 426 348 426 348 411 343 c 128,-1,39
 396 338 396 338 381 348 c 0,40,41
 363 361 363 361 333.5 371.5 c 128,-1,42
 304 382 304 382 261 370 c 0,43,44
 258 368 258 368 254.5 367 c 128,-1,45
 251 366 251 366 248 364 c 0,46,47
 239 358 239 358 230 343.5 c 128,-1,48
 221 329 221 329 226 312 c 0,49,50
 226 308 226 308 227 300 c 0,51,52
 227 296 227 296 229 293 c 128,-1,53
 231 290 231 290 235 286 c 0,54,55
 252 272 252 272 283.5 271.5 c 128,-1,56
 315 271 315 271 341 260.5 c 128,-1,57
 367 250 367 250 384 234.5 c 128,-1,58
 401 219 401 219 406 189 c 0,59,60
 414 132 414 132 390.5 87.5 c 128,-1,61
 367 43 367 43 315 10 c 0,62,63
 302 2 302 2 286 -3.5 c 128,-1,64
 270 -9 270 -9 258 -9 c 0,65,66
 193 -12 193 -12 146.5 16.5 c 128,-1,67
 100 45 100 45 80 89 c 0,0,1
EndSplineSet
EndChar

StartChar: t
Encoding: 116 116 83
Width: 500
Flags: W
LayerCount: 2
Fore
SplineSet
58.8037109375 350 m 1,0,1
 37 353 37 353 29.7666015625 365 c 0,2,3
 22 377 22 377 25.26953125 391 c 256,4,5
 29 405 29 405 43.1181640625 418.5 c 0,6,7
 57.184086085 431.165761652 57.184086085 431.165761652 80.7353515625 432 c 2,8,-1
 221.889648438 437 l 1,9,-1
 241.513671875 522 l 1,10,11
 251 542 251 542 264.439453125 552 c 128,-1,12
 278 562 278 562 291.748046875 562 c 0,13,14
 305 562 305 562 314.169921875 553 c 0,15,16
 324 544 324 544 324.206054688 525 c 1,17,-1
 304.3515625 439 l 1,18,-1
 441.966796875 446 l 1,19,20
 460 441 460 441 466.158203125 429.5 c 0,21,22
 473 418 473 418 469.501953125 405 c 0,23,24
 466 391 466 391 453.729492188 380 c 0,25,26
 435.786053298 364.818990838 435.786053298 364.818990838 420.036132812 364 c 2,27,-1
 285.419921875 357 l 1,28,29
 224 166 224 166 254 115 c 0,30,31
 265 34 l 4,32,33
 266 -35 266 -35 254.203125 -34.9150390625 c 4,34,35
 224 -40 l 260,36,37
 194 -20 l 4,38,39
 177 20 l 4,40,41
 156 71 156 71 166.981445312 197 c 0,42,43
 168 209 168 209 202.958007812 355 c 1,44,-1
 58.8037109375 350 l 1,45,-1
 58.8037109375 350 l 1,0,1
EndSplineSet
EndChar

StartChar: u
Encoding: 117 117 84
Width: 500
Flags: W
LayerCount: 2
Fore
SplineSet
391 56 m 0,0,1
 397 42 397 42 393 25 c 256,2,3
 389 8 389 8 377 -2.5 c 128,-1,4
 365 -13 365 -13 351 -13 c 0,5,6
 326 -14 326 -14 322 7 c 128,-1,7
 318 28 318 28 320 84 c 1,8,9
 287 41 287 41 265 23 c 128,-1,10
 243 5 243 5 198 -8 c 1,11,12
 174 -8 174 -8 151 -1.5 c 128,-1,13
 128 5 128 5 113 21.5 c 128,-1,14
 98 38 98 38 89 60 c 128,-1,15
 80 82 80 82 78 106 c 0,16,17
 77 132 77 132 82 163.5 c 128,-1,18
 87 195 87 195 94 229 c 0,19,20
 103 270 103 270 114 309 c 128,-1,21
 125 348 125 348 136 390 c 1,22,23
 145 410 145 410 157 420 c 128,-1,24
 169 430 169 430 182 430 c 0,25,26
 194 430 194 430 201.5 421 c 128,-1,27
 209 412 209 412 210 393 c 1,28,29
 199 346 199 346 185.5 296.5 c 128,-1,30
 172 247 172 247 161 198 c 0,31,32
 148 142 148 142 160.5 106 c 128,-1,33
 173 70 173 70 208 70 c 0,34,35
 221 70 221 70 235 76 c 128,-1,36
 249 82 249 82 262.5 95 c 128,-1,37
 276 108 276 108 286 120.5 c 128,-1,38
 296 133 296 133 317 169 c 0,39,40
 321 178 321 178 331 198 c 1,41,42
 338 238 338 238 341 249 c 0,43,44
 349 278 349 278 355.5 307.5 c 128,-1,45
 362 337 362 337 373.5 368 c 128,-1,46
 385 399 385 399 398 414.5 c 128,-1,47
 411 430 411 430 427 430 c 0,48,49
 440 430 440 430 448.5 418.5 c 128,-1,50
 457 407 457 407 452 385 c 0,51,52
 447 362 447 362 434.5 322.5 c 128,-1,53
 422 283 422 283 414 247 c 0,54,55
 408 222 408 222 403.5 190 c 128,-1,56
 399 158 399 158 395.5 136 c 128,-1,57
 392 114 392 114 390 90 c 128,-1,58
 388 66 388 66 391 56 c 0,0,1
EndSplineSet
EndChar

StartChar: v
Encoding: 118 118 85
Width: 500
Flags: W
LayerCount: 2
Fore
SplineSet
312 301 m 0,0,-1
 360 381 l 0,1,2
 393 424 393 424 412 437 c 0,3,4
 434 451 434 451 439 443 c 0,5,6
 468 411 l 1,7,-1
 444 388 l 1,8,-1
 433 387 l 6,9,-1
 427 384 l 0,10,11
 421 380 421 380 414 369 c 0,12,-1
 368 282 l 0,13,14
 343 232 343 232 314 184 c 0,15,16
 282 130 282 130 261 96 c 0,17,18
 228 43 228 43 192 5 c 0,19,20
 172 -16 172 -16 154 -13 c 0,21,22
 135 -10 135 -10 131 13 c 0,23,24
 121 74 121 74 105.5 190.5 c 0,25,26
 94 279 94 279 78 365 c 0,27,-1
 77 370 l 0,28,29
 75 383 75 383 67 384 c 0,30,31
 52.95 384 52.95 384 30 350 c 2,32,-1
 3 310 l 1,33,-1
 -24 359 l 1,34,35
 12 424 12 424 47.5 445.5 c 0,36,37
 84 467 84 467 114 444 c 0,38,39
 146 420 146 420 148 400 c 0,40,-1
 147 406 l 1,41,42
 159 338 159 338 173.5 268.5 c 128,-1,43
 188 199 188 199 199 131 c 1,44,45
 214 149 214 149 226 166 c 0,46,47
 228 169 228 169 252 206 c 0,48,-1
 312 301 l 0,0,-1
EndSplineSet
EndChar

StartChar: w
Encoding: 119 119 86
Width: 500
Flags: W
LayerCount: 2
Fore
SplineSet
430 402 m 1,0,1
 442 419 442 419 455 424.5 c 128,-1,2
 468 430 468 430 478 426.5 c 128,-1,3
 488 423 488 423 492.5 411 c 128,-1,4
 497 399 497 399 492 381 c 0,5,6
 454 259 454 259 414 167.5 c 128,-1,7
 374 76 374 76 342 12 c 1,8,9
 325 -5 325 -5 309.5 -6 c 128,-1,10
 294 -7 294 -7 284 9 c 1,11,12
 272 62 272 62 270 108.5 c 128,-1,13
 268 155 268 155 271 214 c 0,14,15
 272 233 272 233 271 237 c 128,-1,16
 270 241 270 241 270 249 c 1,17,18
 252 219 252 219 238 194 c 128,-1,19
 224 169 224 169 207 139 c 128,-1,20
 190 109 190 109 175 75.5 c 128,-1,21
 160 42 160 42 138 6 c 1,22,23
 118 -15 118 -15 102.5 -12 c 128,-1,24
 87 -9 87 -9 83 15 c 1,25,26
 84 74 84 74 88.5 118 c 128,-1,27
 93 162 93 162 97 232 c 0,28,29
 99 269 99 269 100.5 302.5 c 128,-1,30
 102 336 102 336 105 372 c 0,31,32
 101 312 l 0,33,34
 111 358 111 358 111 368 c 0,35,36
 111 371 111 371 106.5 378 c 0,37,38
 103 383 103 383 99 383 c 0,39,40
 84.1 383 84.1 383 62 349 c 2,41,-1
 36 309 l 1,42,-1
 19 349 l 5,43,44
 55 414 55 414 83 425.5 c 128,-1,45
 111 437 111 437 140 437 c 0,46,47
 178 437 178 437 170 372 c 0,48,-1
 157 163 l 1,49,50
 169 189 169 189 182.5 213.5 c 128,-1,51
 196 238 196 238 207.5 255 c 128,-1,52
 219 272 219 272 233 303 c 0,53,54
 251 342 251 342 265 355 c 0,55,56
 275 364 275 364 286 369.5 c 128,-1,57
 297 375 297 375 306.5 373.5 c 128,-1,58
 316 372 316 372 323 364 c 0,59,60
 331 355 331 355 330 341 c 0,61,62
 329 328 329 328 332 306.5 c 0,63,64
 335 288 335 288 334 255 c 0,65,66
 334 235 334 235 334 214 c 0,67,68
 333 193 333 193 337 154 c 1,69,70
 379 257 379 257 391 292.5 c 128,-1,71
 403 328 403 328 430 402 c 1,0,1
EndSplineSet
EndChar

StartChar: x
Encoding: 120 120 87
Width: 500
Flags: W
LayerCount: 2
Fore
SplineSet
418 417 m 0,0,1
 421 420 l 0,2,3
 438 436 438 436 467 437 c 0,4,5
 496 437 496 437 512.5 426.5 c 128,-1,6
 529 416 529 416 550 357 c 1,7,-1
 507 333 l 1,8,-1
 505 348 l 2,9,10
 503 363 503 363 483 383 c 0,11,12
 482 384 482 384 479 381.5 c 0,13,14
 477 380 477 380 475 377 c 0,15,16
 472 374 472 374 471 373 c 0,17,-1
 461 364 l 1,18,19
 422 327 422 327 386.5 292 c 128,-1,20
 351 257 351 257 313 222 c 1,21,22
 334 174 334 174 355.5 126 c 128,-1,23
 377 78 377 78 401 24 c 1,24,25
 402 5 402 5 394 -8.5 c 128,-1,26
 386 -22 386 -22 375 -28.5 c 128,-1,27
 364 -35 364 -35 352.5 -33 c 0,28,29
 338 -31 338 -31 332 -18 c 0,30,31
 312 23 312 23 292.5 70.5 c 0,32,33
 263 139 263 139 254 162 c 1,34,35
 180 84 180 84 115 15 c 0,36,-1
 107 7 l 0,37,38
 89 -13 89 -13 64 -12 c 0,39,40
 26 -11 26 -11 18 14 c 0,41,42
 5 45 l 1,43,-1
 28 73 l 1,44,-1
 28 73 l 2,45,46
 28 62 28 62 37 49.5 c 0,47,48
 43 41 43 41 48 41 c 0,49,50
 51 41 51 41 60 50 c 0,51,-1
 73 63 l 1,52,53
 115 110 115 110 148.5 144.5 c 128,-1,54
 182 179 182 179 220 222 c 1,55,56
 199 263 199 263 184 290 c 128,-1,57
 169 317 169 317 147 356 c 0,58,-1
 136 376 l 0,59,60
 130 384 130 384 128 385 c 0,61,-1
 128 385 l 0,62,-1
 119 384 l 2,63,-1
 112 389 l 1,64,-1
 100 388 l 1,65,66
 105 427 105 427 122 432 c 128,-1,67
 139 437 139 437 167 437 c 0,68,69
 194 437 194 437 203 422 c 0,70,-1
 243 350 l 0,71,72
 261 314 261 314 280 280 c 1,73,74
 333 330 333 330 351.5 351 c 128,-1,75
 370 372 370 372 418 417 c 0,0,1
EndSplineSet
EndChar

StartChar: y
Encoding: 121 121 88
Width: 500
Flags: W
LayerCount: 2
Fore
SplineSet
428 428 m 1,0,1
 438 442 438 442 448 448 c 128,-1,2
 458 454 458 454 468 454 c 0,3,4
 483 454 483 454 490 441 c 128,-1,5
 497 428 497 428 492 405 c 1,6,7
 455 324 455 324 409 248 c 128,-1,8
 363 172 363 172 313 99 c 128,-1,9
 263 26 263 26 211 -45.5 c 128,-1,10
 159 -117 159 -117 108 -190 c 0,11,12
 98 -201 98 -201 88 -205.5 c 128,-1,13
 78 -210 78 -210 70 -210 c 0,14,15
 57 -210 57 -210 49.5 -199 c 128,-1,16
 42 -188 42 -188 47 -168 c 0,17,18
 48 -165 48 -165 48.5 -161.5 c 128,-1,19
 49 -158 49 -158 51 -154 c 0,20,21
 95 -93 95 -93 139 -34 c 128,-1,22
 183 25 183 25 225 85 c 1,23,24
 202 122 202 122 186.5 158.5 c 128,-1,25
 171 195 171 195 158 231.5 c 128,-1,26
 145 268 145 268 135 308.5 c 128,-1,27
 125 349 125 349 118 397 c 1,28,29
 120 421 120 421 134 435.5 c 128,-1,30
 148 450 148 450 164 450 c 0,31,32
 175 450 175 450 184 442 c 128,-1,33
 193 434 193 434 192 414 c 0,34,35
 196 376 196 376 204 344.5 c 128,-1,36
 212 313 212 313 223 281 c 128,-1,37
 234 249 234 249 245 218 c 128,-1,38
 256 187 256 187 275 159 c 1,39,40
 318 224 318 224 357 290 c 128,-1,41
 396 356 396 356 428 428 c 1,0,1
EndSplineSet
EndChar

StartChar: z
Encoding: 122 122 89
Width: 500
Flags: W
LayerCount: 2
Fore
SplineSet
119 183 m 0,0,1
 101 186 101 186 95 198 c 128,-1,2
 89 210 89 210 92 224 c 256,3,4
 95 238 95 238 108 251.5 c 128,-1,5
 121 265 121 265 141 265 c 0,6,7
 151 265 151 265 191 265 c 128,-1,8
 231 265 231 265 243.5 265.5 c 128,-1,9
 256 266 256 266 272 266 c 128,-1,10
 288 266 288 266 375 266 c 5,11,12
 390 261 390 261 395 249.5 c 132,-1,13
 400 238 400 238 397 225 c 4,14,15
 394 211 394 211 382.5 200 c 128,-1,16
 371 189 371 189 353 184 c 5,17,18
 329 184 329 184 235 184 c 0,19,20
 119 183 l 0,0,1
243 280 m 1024,21,-1
373 362 m 0,22,23
 335 307 335 307 301 249 c 1024,24,-1
252 318 m 1024,25,-1
375 373 m 0,26,27
 311 300 311 300 268 234 c 1025,28,-1
389 82 m 0,29,30
 408 83 408 83 412 67 c 128,-1,31
 416 51 416 51 408 33 c 128,-1,32
 400 15 400 15 386.5 9 c 128,-1,33
 373 3 373 3 356 2 c 0,34,35
 294 1 294 1 211 4.5 c 128,-1,36
 128 8 128 8 62 -4 c 1,37,38
 39 0 39 0 35.5 19.5 c 128,-1,39
 32 39 32 39 49 64 c 0,40,41
 114 145 114 145 196 223.5 c 128,-1,42
 278 302 278 302 351 374 c 1,43,44
 299 373 299 373 243.5 369 c 128,-1,45
 188 365 188 365 144 361 c 1,46,47
 124 365 124 365 120.5 372.5 c 128,-1,48
 117 380 117 380 116 391 c 128,-1,49
 115 402 115 402 125 415 c 128,-1,50
 135 428 135 428 152 435 c 1,51,52
 224 443 224 443 294.5 444.5 c 128,-1,53
 365 446 365 446 435 444 c 1,54,55
 456 436 456 436 457 414.5 c 128,-1,56
 458 393 458 393 438 372 c 0,57,58
 365 301 365 301 285.5 226 c 128,-1,59
 206 151 206 151 139 73 c 1,60,61
 201 81 201 81 285 80 c 128,-1,62
 369 79 369 79 389 82 c 0,29,30
EndSplineSet
EndChar

StartChar: braceleft
Encoding: 123 123 90
Width: 500
Flags: W
LayerCount: 2
Fore
SplineSet
334 -9 m 1,0,1
 369 -5 369 -5 382.5 -20 c 128,-1,2
 396 -35 396 -35 391 -56 c 128,-1,3
 386 -77 386 -77 363 -85 c 128,-1,4
 340 -93 340 -93 270 -89 c 1,5,6
 242 -76 242 -76 226 -61 c 128,-1,7
 210 -46 210 -46 209 -13 c 128,-1,8
 208 20 208 20 210.5 47 c 128,-1,9
 213 74 213 74 219.5 89 c 128,-1,10
 226 104 226 104 236.5 149 c 128,-1,11
 247 194 247 194 238 227 c 1,12,13
 222 241 222 241 213 251.5 c 128,-1,14
 204 262 204 262 180 282 c 128,-1,15
 156 302 156 302 160 327.5 c 128,-1,16
 164 353 164 353 219 385 c 0,17,18
 222 388 222 388 227.5 391.5 c 128,-1,19
 233 395 233 395 256 410 c 0,20,21
 277 422 277 422 277.5 423 c 128,-1,22
 278 424 278 424 293 432 c 1,23,24
 307 476 307 476 316 502 c 128,-1,25
 325 528 325 528 335 573 c 0,26,27
 342 603 342 603 356 637 c 128,-1,28
 370 671 370 671 397 696 c 128,-1,29
 424 721 424 721 449.5 732.5 c 128,-1,30
 475 744 475 744 533 739 c 1,31,32
 551 733 551 733 558.5 720.5 c 128,-1,33
 566 708 566 708 560 694 c 128,-1,34
 554 680 554 680 539 670 c 128,-1,35
 524 660 524 660 471 659 c 0,36,37
 466 658 466 658 465 659 c 0,38,39
 460 658 460 658 456 655 c 0,40,41
 439 643 439 643 424.5 603 c 128,-1,42
 410 563 410 563 405 541 c 128,-1,43
 400 519 400 519 393 497.5 c 128,-1,44
 386 476 386 476 374 437 c 1,45,46
 372 417 372 417 364.5 401.5 c 128,-1,47
 357 386 357 386 339 376 c 0,48,49
 317 365 317 365 297.5 356.5 c 128,-1,50
 278 348 278 348 252 331 c 1,51,52
 273 323 273 323 287 312 c 128,-1,53
 301 301 301 301 314 292 c 1,54,55
 321 280 321 280 322.5 274 c 128,-1,56
 324 268 324 268 326 248 c 0,57,58
 327 216 327 216 318 172.5 c 128,-1,59
 309 129 309 129 299 92.5 c 128,-1,60
 289 56 289 56 286.5 41 c 128,-1,61
 284 26 284 26 293 5 c 0,62,63
 298 0 298 0 301.5 -3.5 c 128,-1,64
 305 -7 305 -7 334 -9 c 1,0,1
EndSplineSet
EndChar

StartChar: bar
Encoding: 124 124 91
Width: 500
Flags: W
LayerCount: 2
Fore
SplineSet
325 575 m 1,0,1
 334 595 334 595 346.5 605 c 128,-1,2
 359 615 359 615 372 615 c 0,3,4
 384 615 384 615 392.5 606 c 128,-1,5
 401 597 401 597 402 578 c 1,6,-1
 220 -206 l 2,7,8
 214 -229 214 -229 199.5 -240.5 c 128,-1,9
 185 -252 185 -252 171 -252 c 0,10,11
 158 -252 158 -252 149.5 -241.5 c 128,-1,12
 141 -231 141 -231 143 -209 c 2,13,-1
 325 575 l 1,0,1
EndSplineSet
EndChar

StartChar: braceright
Encoding: 125 125 92
Width: 500
Flags: W
LayerCount: 2
Fore
SplineSet
128 -7 m 0,0,1
 107 -10 107 -10 89.5 -24.5 c 128,-1,2
 72 -39 72 -39 71.5 -54.5 c 128,-1,3
 71 -70 71 -70 81.5 -80 c 128,-1,4
 92 -90 92 -90 139 -90 c 0,5,6
 175 -88 175 -88 205.5 -61 c 128,-1,7
 236 -34 236 -34 246.5 -7 c 128,-1,8
 257 20 257 20 269 56 c 128,-1,9
 281 92 281 92 284.5 107 c 128,-1,10
 288 122 288 122 299 159.5 c 128,-1,11
 310 197 310 197 317 215 c 1,12,13
 340 229 340 229 363.5 239 c 128,-1,14
 387 249 387 249 424.5 270 c 128,-1,15
 462 291 462 291 466.5 315.5 c 128,-1,16
 471 340 471 340 428 372 c 0,17,18
 425 376 425 376 422.5 379 c 128,-1,19
 420 382 420 382 413.5 386.5 c 128,-1,20
 407 391 407 391 402 397 c 0,21,22
 390 407 390 407 388 410 c 128,-1,23
 386 413 386 413 376 419 c 1,24,25
 380 460 380 460 386.5 498 c 128,-1,26
 393 536 393 536 400 574 c 256,27,28
 407 612 407 612 410 639.5 c 128,-1,29
 413 667 413 667 402.5 691.5 c 128,-1,30
 392 716 392 716 370.5 729.5 c 128,-1,31
 349 743 349 743 291 738 c 1,32,33
 270 732 270 732 257 719.5 c 128,-1,34
 244 707 244 707 243.5 693 c 128,-1,35
 243 679 243 679 254.5 669 c 128,-1,36
 266 659 266 659 312 657 c 0,37,38
 319 657 319 657 326 653 c 0,39,40
 336 637 336 637 326.5 604 c 128,-1,41
 317 571 317 571 311 538 c 128,-1,42
 305 505 305 505 301 478 c 128,-1,43
 297 451 297 451 297 424 c 0,44,45
 295 403 295 403 293 388 c 128,-1,46
 291 373 291 373 304 363 c 0,47,48
 321 352 321 352 342.5 343.5 c 128,-1,49
 364 335 364 335 381 318 c 1,50,51
 356 310 356 310 316.5 295.5 c 128,-1,52
 277 281 277 281 273 279 c 0,53,54
 258 269 258 269 251.5 259.5 c 128,-1,55
 245 250 245 250 242 234 c 0,56,57
 236 206 236 206 224 172 c 128,-1,58
 212 138 212 138 204 102 c 128,-1,59
 196 66 196 66 192 55.5 c 128,-1,60
 188 45 188 45 175 6 c 1,61,62
 165 -2 165 -2 158.5 -4 c 128,-1,63
 152 -6 152 -6 128 -7 c 0,0,1
EndSplineSet
EndChar

StartChar: asciitilde
Encoding: 126 126 93
Width: 500
Flags: W
LayerCount: 2
Fore
SplineSet
433 332 m 0,0,1
 450 355 450 355 463 361 c 256,2,3
 476 367 476 367 486 352.5 c 128,-1,4
 496 338 496 338 489 317 c 0,5,6
 484 294 484 294 460.5 272 c 128,-1,7
 437 250 437 250 415 235 c 128,-1,8
 393 220 393 220 374 211 c 128,-1,9
 355 202 355 202 346 200 c 0,10,11
 342 198 342 198 333.5 198 c 128,-1,12
 325 198 325 198 316 201 c 0,13,14
 299 210 299 210 294 217 c 128,-1,15
 289 224 289 224 278.5 237 c 128,-1,16
 268 250 268 250 258 271.5 c 128,-1,17
 248 293 248 293 229 290 c 0,18,19
 209 284 209 284 196.5 270 c 128,-1,20
 184 256 184 256 167.5 241 c 128,-1,21
 151 226 151 226 139.5 217 c 128,-1,22
 128 208 128 208 117 204 c 1,23,24
 101 204 101 204 97.5 214.5 c 128,-1,25
 94 225 94 225 97 240 c 0,26,27
 101 257 101 257 120.5 275 c 128,-1,28
 140 293 140 293 166 315.5 c 128,-1,29
 192 338 192 338 215.5 352 c 128,-1,30
 239 366 239 366 261 363 c 0,31,32
 280 363 280 363 294 351.5 c 128,-1,33
 308 340 308 340 319.5 318.5 c 128,-1,34
 331 297 331 297 338 285 c 128,-1,35
 345 273 345 273 356 275 c 0,36,37
 375 278 375 278 393.5 294 c 128,-1,38
 412 310 412 310 433 332 c 0,0,1
EndSplineSet
EndChar
